<?xml version="1.0" encoding="UTF-8"?>
<svg width="426px" height="77px" viewBox="0 0 426 77" version="1.1" xmlns="http://www.w3.org/2000/svg" xmlns:xlink="http://www.w3.org/1999/xlink">
    <!-- Generator: Sketch 54.1 (76490) - https://sketchapp.com -->
    <title>Logo horizontal@3x</title>
    <desc>Created with Sketch.</desc>
    <g id="Symbols" stroke="none" stroke-width="1" fill="none" fill-rule="evenodd">
        <g id="🖥-/-Header" transform="translate(-56.000000, -91.000000)" fill="#FFFFFF">
            <g id="Rounds-1-10-/-Logo-/-White" transform="translate(56.000000, 90.104895)">
                <g id="Logo" transform="translate(0.835553, 0.073688)">
                    <g id="Group" fill-rule="nonzero">
                        <path d="M78.4732198,30.0749686 C78.2089044,30.1462071 77.5949342,30.3329014 77.187201,30.3869445 C77.9588123,29.613146 78.4234384,28.6600227 78.4234384,27.8665722 C78.0548192,27.9881691 77.3922529,28.2448737 76.7877648,28.3836661 C77.9896293,27.3298262 78.640343,26.1077159 78.355878,24.482739 C77.9896293,24.673118 77.4752218,24.9826374 76.9572585,25.204951 C78.0050378,23.5357571 77.9896293,22.0655399 77.5570055,21.2033073 C77.0911941,21.6553039 76.5234494,22.1871368 75.9225172,22.5654383 C76.3065449,20.6346268 76.2887658,19.3928644 75.5076724,18.5294036 C74.7076146,20.0819136 74.0284545,21.2413831 72.9071884,22.6194814 C72.9925279,21.343328 72.8609628,19.7527421 72.0573493,18.9249006 C72.0573493,18.9249006 71.828592,20.7070936 71.2276598,21.2733176 C71.0806862,19.5304286 70.5627229,18.5834466 69.7958527,17.6499754 C69.7958527,17.6499754 69.7460713,19.4616465 69.2684072,20.5830402 C68.8630446,19.0673778 68.111583,17.8882562 67.1491431,16.7680908 C67.2167036,20.1175329 66.3170831,26.4344308 63.7201549,30.6780401 C63.4167256,33.1959559 63.1500397,36.9765143 59.1912354,39.2205299 C58.6223055,38.8053809 57.6195664,38.2735479 56.2090942,38.3595256 C55.8369192,36.4581921 58.2347219,34.7337269 60.3006488,33.3519438 C62.3902811,31.9541935 63.2970132,30.7652459 63.2507877,28.9019883 C63.2021916,26.8643189 61.8675767,26.0278795 60.4855511,25.9701517 C58.536966,25.8817176 56.9558148,27.709356 56.5848251,28.465959 C56.0218215,28.7460003 54.3565161,29.2802898 53.6726149,29.4694405 C52.9164121,29.6794715 52.0582761,30.0025017 51.5249043,30.4704656 C51.8425568,30.6768118 52.75403,30.7480504 53.108426,30.6927791 C53.7674365,30.5969755 55.8736626,30.1904242 57.8850671,29.9374044 C58.6199349,30.3476404 59.7992793,31.0354613 58.5500039,31.9382262 C56.838473,33.0755872 56.1024199,33.3691393 53.6880234,34.6784555 C49.8702663,36.750516 51.1065037,41.9669005 52.0440529,42.3439737 C52.0440529,44.1003735 53.5564583,47.2790886 54.5864586,48.3820586 C55.05227,50.5929114 54.4347439,53.885854 53.7911419,55.247985 C53.2589554,53.9079625 52.3391853,50.7980295 51.738253,48.9875866 C52.3581496,45.5570799 51.3554106,44.0487869 50.6572861,43.4653674 C49.9567911,42.8758067 48.8592304,43.0354794 48.1433269,44.2256552 C49.2432581,44.1003735 49.610692,45.5607647 49.5858013,47.0702859 C49.5609107,48.8844135 49.1128783,50.3423481 47.8932347,50.3509459 C47.9939827,51.9046842 49.6035804,52.3370287 50.4048234,51.5939365 C50.5316474,51.9403034 51.182361,53.9742881 51.7927755,55.7896439 C52.1554683,56.8643641 52.508679,57.8555631 52.7398068,58.3738853 C52.9934547,58.9511636 54.8531445,59.0334564 55.0688638,58.3738853 C55.3639962,57.4834029 55.5963093,56.820147 56.0585648,55.7896439 C56.4141461,55.0072477 56.9012923,54.0049944 57.6515687,52.523723 C58.1541235,53.4191184 58.8166899,54.8316077 59.1995323,55.7896439 C59.3808787,56.2354993 59.5017763,56.590464 59.5159996,56.7538214 C59.6677142,58.2326364 59.5823748,63.4809554 59.1995323,66.6240513 C55.0356762,65.4486145 53.8575171,67.5587507 54.2213952,69.1235433 C54.8175864,68.4332659 55.5998651,68.5204717 56.0870113,68.887719 C55.9684843,70.0410472 56.269543,70.8664323 57.4038471,71.216484 C58.5997853,67.9382805 62.8952065,68.6617207 63.295828,68.9380773 C63.3147923,68.2993864 63.8920192,66.7161701 61.6814892,66.383314 C61.7644582,63.5534223 62.0441821,60.0836115 62.1461154,59.3589431 C62.2480486,58.6330464 62.3274618,58.1859628 61.995586,57.0486018 C61.894838,56.7083761 61.7774962,56.2895423 61.6530427,55.7908722 C61.3650219,54.6449135 61.0687043,53.148903 61.0473694,51.5263827 C61.4325824,51.9206514 62.3464261,52.2338556 62.9769901,52.0950631 C63.4641364,54.2322209 64.1610756,53.6131821 64.5285095,54.5122623 C64.7169676,54.9740849 64.7596373,55.4039729 64.8129745,55.7908722 C64.8580148,56.1679454 64.9160931,56.4922039 65.1152186,56.7685605 C66.5908806,56.8127775 67.8448971,56.4492151 68.7468881,55.7908722 C69.0242415,55.5894389 69.2660367,55.3634406 69.4699033,55.1153338 C69.1083957,52.8369271 68.4884991,51.7155334 67.341157,50.3337504 C67.0400982,48.4717209 66.2009266,46.75831 65.0441023,45.2537018 C66.4996148,44.7624011 67.9693505,43.5402908 68.7468881,42.6891124 C69.4414568,42.6362976 70.2403292,42.0356826 70.3031486,40.8602458 C70.7061406,40.8111157 71.053425,40.7890072 71.3746333,40.7214534 C71.3367047,40.3984232 71.2584768,39.9108073 71.2075102,39.6197117 C71.7420673,39.6197117 72.2552895,39.5976032 72.7531032,39.5484731 C72.6073149,39.1161285 72.4200421,38.6715015 72.2718833,38.3435583 C72.8076257,38.3435583 73.4690067,38.3042542 74.0035638,38.2723197 C73.7226547,37.7196065 73.5021943,37.2369036 73.3386269,36.750516 C73.9502266,36.6854186 74.9043696,36.5269742 75.6807219,36.3378234 C75.4318151,36.0651516 75.1509059,35.7851102 74.7206526,35.3539939 C76.7510214,34.7337269 77.6328628,33.2659662 77.7347961,32.6272754 C77.4325521,32.6272754 76.8185818,32.7685243 76.4511479,32.732905 C77.5878225,32.0389429 78.3487664,31.0907326 78.4661082,30.0737403" id="Shape"></path>
                        <path d="M50.0800592,34.7975959 L24.4272446,34.7975959 L24.4272446,44.6150109 C24.5457717,44.6874778 24.6560019,44.7795966 24.7686026,44.8852263 L24.7686026,35.2152015 L50.2886669,35.2152015 L50.2886669,44.2084597 C50.3823033,44.307948 50.468828,44.4320014 50.5529823,44.5904459 L50.5529823,34.7975959 L50.0800592,34.7975959" id="Shape"></path>
                        <path d="M37.4533701,68.6285579 C26.1340345,64.2596669 24.6963011,54.6350874 24.6571872,50.273566 L24.6192585,50.2661965 L24.6548166,49.9493076 C24.660743,49.0023256 24.7294887,48.35995 24.7579352,48.1339518 C24.7271181,47.5099999 24.6370376,47.0211558 24.5374748,46.6600498 L24.4284299,46.4303668 L24.4284299,50.9589304 C24.4284299,56.0316095 26.2229298,60.4054134 29.7585924,63.9538323 C32.8568901,67.0674501 36.3380303,68.5143305 37.3336577,68.8852625 L37.4912987,68.9454468 L37.6513103,68.8852625 C38.6445672,68.5155587 42.1268926,67.0686783 45.2251903,63.9538323 C48.7608529,60.4041852 50.5553528,56.0316095 50.5553528,50.9589304 L50.5553528,50.1335454 C50.4652722,50.283392 50.3728211,50.3791957 50.2791847,50.4921948 C50.1760662,52.768145 49.7707036,56.2969119 48.3140058,58.9622178 C46.5609904,62.6887332 43.8727964,65.7556774 37.4533701,68.6297861" id="Shape"></path>
                        <path d="M17.1224211,8.26244848 C18.7391304,9.07677929 19.2535379,7.57339933 22.2688666,9.5914167 C20.2728707,10.2473031 18.7379451,12.8045229 16.4906718,12.1486365 C18.1050105,11.3183384 17.9367021,10.0937716 18.873066,9.48824357 C18.2721337,9.40472246 17.1070126,9.12345285 17.1224211,8.26244848 L17.1224211,8.26244848 Z M22.9207655,24.8794643 C21.9559552,24.4692283 20.4684404,24.2100672 19.6363803,25.4174385 C19.188348,24.6043359 19.8532849,23.3785409 20.2728707,23.0174349 C18.1536066,23.0505977 16.9576685,22.3848853 16.6412012,21.7204012 C17.4234799,21.2770024 19.4040673,20.5326819 21.018406,21.7597053 C22.1337458,22.6059706 22.7003052,23.0174349 24.0195115,23.4657467 C24.4948051,22.9707613 24.3181997,23.1918466 24.4687291,23.0518259 C23.3853917,22.2792557 22.9018012,16.3050399 20.7825371,16.0765851 C21.0871517,15.3212104 22.1847124,15.3899925 23.0677391,15.6331863 C23.1305585,14.2956203 22.5971866,12.0909087 21.7959436,10.8147553 C23.032181,10.1429017 23.8749085,10.8712549 24.3039765,12.4569277 C24.7531941,14.1445454 24.2162665,18.3562201 25.2841954,22.1552023 L25.9503175,21.5214244 C25.6148859,19.3056586 27.9652778,18.4937843 28.4796853,17.3932708 C28.6788108,18.8769988 28.3801226,19.5463959 27.9818716,20.0855983 C28.8317107,20.1887715 29.2109974,21.0510041 29.0794323,21.6565321 C27.0348403,21.343328 25.8483843,23.4706597 26.3047135,25.1582774 C24.792308,25.5034161 23.7551961,25.2381138 22.9207655,24.8782361 L22.9207655,24.8794643 Z M32.9268211,26.1089442 C31.1631383,26.2096608 29.4314577,28.5924689 30.1615845,31.3032201 C29.8960838,31.405165 29.1292137,31.390426 28.8826774,30.8413975 C28.6954046,31.7195974 26.963724,32.7365898 25.7014107,32.5965691 C26.3995352,31.8190858 26.8689024,30.057773 28.2295932,29.1304431 C29.5973956,28.1945154 30.2137364,27.558281 30.6961416,25.9726082 C30.063207,26.2772146 26.7669691,27.1590993 25.8317905,26.1089442 C27.9996507,25.781001 30.5645765,24.5183583 31.8280751,23.691745 L31.3290762,23.14026 C29.9672001,23.9386236 28.15018,24.5883687 27.2315952,24.8880621 C26.90209,22.0765942 29.4871654,22.1883651 29.6815498,22.9498811 C30.7447377,21.6344236 29.9992024,19.7539704 29.2121826,19.5451676 C30.0169815,17.3023802 29.2121826,15.9230537 28.5306519,15.0952121 C28.3682699,17.4780202 25.8009734,17.8575499 25.4999147,19.6913296 C25.4015372,18.2370797 25.3079008,14.3165006 25.1988559,12.4028846 C24.9997304,8.84832449 20.6699364,7.60533388 20.0038143,7.60533388 C17.174573,7.74535456 16.9078871,7.36459656 16.9766328,6.00246554 C15.5448257,7.69131149 16.0236751,9.19469144 17.2433187,9.92181638 C17.073825,10.9388087 15.5068971,11.7273462 14.543272,11.9533445 C16.8415119,14.1629691 19.5083711,12.8499682 20.7837224,11.5934668 L21.0610758,11.3392187 C21.5221461,12.1817993 21.8540219,13.7171138 21.8540219,14.5977702 C19.7063113,14.4774015 19.3234688,16.203095 19.3234688,16.8233621 C22.0543326,15.6466971 22.3518356,21.0706561 23.0689244,21.9476277 C22.3696146,21.8948129 21.1381184,20.220706 19.3234688,20.1015656 C17.1342738,19.9578602 16.3626625,21.1701445 15.47608,21.1197862 C15.6396474,22.7226545 17.5218573,23.6217347 18.7391304,23.8121137 C18.1204191,25.449373 18.6656436,26.5633972 19.9540329,26.967492 C19.9540329,25.4677968 21.7840909,25.0010612 23.7480845,26.191237 C26.1044027,27.6184654 27.3157494,27.743747 29.2109974,27.1394472 C28.8992711,27.8506049 28.0458762,27.9206153 26.9980969,28.9879659 C25.5307317,30.4852046 25.4845061,32.4418094 23.8488325,33.148054 C25.7689711,34.0938078 28.6645875,32.7697526 29.078247,32.0045518 C29.87949,32.5253305 30.9142314,32.2182676 31.1939553,31.6987172 C29.8948986,28.710381 32.0912052,26.9367857 32.9600087,26.967492 C32.9600087,26.967492 33.3452217,26.0782379 32.9256358,26.1077159 L32.9268211,26.1089442 Z" id="Shape"></path>
                        <path d="M52.8583339,9.88619709 C53.8267,9.1652134 54.4406703,8.84955274 54.9444104,8.54126159 C55.7752851,8.57319613 57.2082775,8.47125125 58.0723398,8.02416767 C57.1739046,9.1652134 57.0755271,9.57913419 55.6057914,9.74617641 C57.5069657,9.92304464 58.3070234,11.6831292 59.2410168,11.9545728 C56.0739734,12.9555978 55.7539503,9.69581809 52.8583339,9.88619709 Z M56.7732831,19.7085251 C57.7238702,20.5154864 57.4109588,21.6577604 57.1904984,21.914465 C56.3584383,20.430737 53.6927645,20.9466027 51.0780572,24.0037209 C50.8967108,24.2321757 50.6489892,24.4950216 50.3574126,24.7615522 C50.5624644,21.1038189 47.6727744,21.0362651 46.8229353,21.4145666 C46.9165716,20.3619549 47.5483209,19.6385148 47.8849378,19.5328851 C47.0350987,18.5158928 46.8490112,17.2250004 46.7530043,16.2866161 C48.1694028,16.925307 50.2625909,18.6362614 50.6158016,21.58775 L51.5296454,20.9466027 C51.2570331,15.7916308 51.3162966,15.807598 51.2819238,12.3046245 C51.278368,11.8133238 51.3008881,10.6673651 52.8038114,10.788962 C52.8666307,12.092137 53.0610152,15.5521217 52.99464,20.3607267 L53.5315676,20.3607267 C54.0127876,19.0182477 55.7302449,17.4424009 57.7250555,17.5848781 C59.0904874,17.6782252 59.5574841,17.6512037 60.3433186,17.291326 C59.7056429,18.8954225 57.3754006,19.6028955 56.7744684,19.7085251 L56.7732831,19.7085251 Z M53.8930752,17.9091365 C53.8930752,14.5842594 53.7781039,11.8464866 53.7413606,10.9830258 L54.1289441,11.1107639 C56.4342957,11.9484315 56.9593706,14.8225402 61.7182326,11.560304 C59.1734563,11.8722799 59.0383355,9.627036 57.8720291,9.57913419 C59.6345267,8.54248984 59.7554243,6.16091 59.7554243,6.16091 C58.2738359,7.39898761 54.8436623,7.47145445 54.1763549,7.88046223 C53.2862166,8.43563195 52.1685063,9.11117033 51.4123036,9.53983014 C49.4317161,10.6575391 50.8113713,16.739841 50.6146163,18.9617481 C49.5443169,15.6466971 47.3859389,16.1478237 46.2480789,14.2538598 C45.3994251,15.8383043 46.3014161,18.4937843 46.6498857,19.2565285 C45.4148336,20.2907163 45.74908,22.2092453 46.0489535,22.7226545 C47.1014739,21.93903 48.7252948,22.1404633 49.2219232,23.4534642 C47.8410828,24.3255228 45.5298049,24.4839673 43.9510243,22.8995227 L43.3856501,23.5529526 C44.4974341,25.0808976 47.2911172,25.6741431 49.3677115,24.4409785 C49.3594146,24.7885737 49.2871131,25.1803859 49.1484364,25.6127305 C48.0674695,26.1998348 46.6747764,26.5216367 45.0841431,25.9529562 C45.3022329,27.6270631 47.1524405,28.866369 48.9113823,29.3699521 C48.3187469,29.8501985 47.5838791,30.0418058 47.049322,29.9767084 C47.3859389,30.9408859 47.5672853,32.2342349 46.865605,33.2512272 C45.9861341,32.6469274 45.5179522,32.0426276 45.1860764,29.6991236 C44.8470889,27.353163 43.2197122,24.9678984 41.9550283,24.4839673 C41.8839121,25.3142654 41.8839121,24.9507029 42.0225888,25.4862206 C45.3852018,28.0409839 43.4828423,32.6469274 46.9817615,34.3013823 C48.2654097,32.7857198 48.279633,32.2514304 48.0840633,30.8205173 C49.3499325,30.4729221 50.293408,29.3699521 50.6288396,28.5212303 C49.4317161,29.1083345 47.5340977,28.0741467 46.9995406,27.2635007 C49.080876,27.1947186 51.0104968,25.5672852 52.9780462,23.4325839 C54.7429143,21.5214244 57.0921209,21.8088353 56.908404,23.310987 C58.125677,23.1218363 58.6068969,21.3961428 58.2050902,20.2894881 C59.9889226,19.7072968 61.3875421,18.3414811 61.5854823,16.2018668 C59.1924207,17.4411726 56.1604981,15.3887642 53.8930752,17.9079083 L53.8930752,17.9091365 Z" id="Shape"></path>
                        <path d="M40.9404366,29.2495835 C40.7768692,29.2495835 40.6275251,29.3294198 40.5327034,29.4547015 L39.9685146,29.3699521 L39.9756262,28.305058 C40.1605284,28.2239934 40.2873524,28.0348427 40.2873524,27.8137574 C40.2873524,27.5214335 40.0574099,27.2782397 39.7729449,27.2782397 C39.4884799,27.2782397 39.2597227,27.5214335 39.2597227,27.8137574 C39.2597227,28.0176471 39.3640265,28.1932871 39.5252233,28.280493 L39.5169264,29.3085396 L38.9717019,29.2557247 C38.8946593,29.0653457 38.7156834,28.9376076 38.5058905,28.9376076 C38.2202402,28.9376076 37.991483,29.1758884 37.991483,29.471897 C37.991483,29.7654492 38.2202402,30.0061865 38.5058905,30.0061865 C38.6872369,30.0061865 38.8484337,29.9079263 38.937329,29.7580796 L39.5145559,29.8244052 L39.4967768,31.3818283 C39.3320242,31.4714906 39.2206087,31.6459023 39.2206087,31.8522486 C39.2206087,32.147029 39.4517365,32.3902228 39.7350162,32.3902228 C40.0206665,32.3902228 40.2553501,32.1482572 40.2553501,31.8522486 C40.2553501,31.6385328 40.1285261,31.4530668 39.9495502,31.370774 L39.9637735,29.8796765 L40.4497345,29.9582847 C40.522036,30.1683157 40.7116793,30.3181624 40.9392513,30.3181624 C41.222531,30.3181624 41.4548441,30.0786533 41.4548441,29.7863294 C41.4548441,29.4878643 41.2237163,29.2495835 40.9392513,29.2495835" id="Shape"></path>
                        <path d="M36.4743364,28.9376076 C36.2645435,28.9376076 36.0843824,29.0653457 36.0014134,29.2557247 L35.4621152,29.3085396 L35.4550036,28.280493 C35.6126446,28.1920589 35.7240601,28.0164189 35.7240601,27.8137574 C35.7240601,27.5214335 35.491747,27.2782397 35.2132084,27.2782397 C34.9240023,27.2782397 34.6928745,27.5214335 34.6928745,27.8137574 C34.6928745,28.0348427 34.8196985,28.2239934 34.9998596,28.305058 L35.0128976,29.3699521 L34.4463382,29.4547015 C34.3550724,29.3294198 34.2104693,29.2495835 34.0409756,29.2495835 C33.7565106,29.2495835 33.5265681,29.4878643 33.5265681,29.7863294 C33.5265681,30.0786533 33.7565106,30.3181624 34.0409756,30.3181624 C34.2673623,30.3181624 34.4570056,30.1683157 34.5281219,29.9582847 L35.0152682,29.8796765 L35.0283061,31.370774 C34.8505155,31.4530668 34.7272474,31.6385328 34.7272474,31.8522486 C34.7272474,32.147029 34.9560046,32.3902228 35.2392843,32.3902228 C35.5249346,32.3902228 35.7572476,32.1482572 35.7572476,31.8522486 C35.7572476,31.6459023 35.6422764,31.4714906 35.478709,31.3818283 L35.4692268,29.8244052 L36.0405273,29.7580796 C36.1306079,29.9079263 36.2918047,30.0061865 36.4743364,30.0061865 C36.7576161,30.0061865 36.9911145,29.7654492 36.9911145,29.471897 C36.9911145,29.1771166 36.7576161,28.9376076 36.4743364,28.9376076" id="Shape"></path>
                        <path d="M37.4901135,33.4588017 C36.7256138,34.9781489 35.2997331,34.9314754 34.0575694,34.0815253 C33.5573851,33.7363866 33.048904,33.514073 32.575981,33.4366932 C32.7928855,31.9406827 33.1472815,29.1218453 33.4044852,26.7402655 C35.0140829,25.9848907 37.0005966,25.8067943 37.4889282,27.729008 C37.978445,25.8067943 39.9637735,25.9848907 41.5721859,26.7402655 C41.8305749,29.1206171 42.1885267,31.9406827 42.4030607,33.4366932 C41.9372493,33.5153013 41.419286,33.7376148 40.9191017,34.0815253 C39.6781232,34.9314754 38.2546131,34.9781489 37.4901135,33.4588017 L37.4901135,33.4588017 Z M43.3097928,33.5116165 C42.9980666,31.360948 42.2501607,25.3400587 42.1624507,23.3269543 L41.2782387,23.3674866 C41.2889062,23.711397 41.3256496,24.1633936 41.3706899,24.6927701 C40.307502,24.3660551 38.9148089,24.1388286 37.4901135,24.1388286 C36.0713444,24.1388286 34.6727249,24.3660551 33.6095371,24.6927701 C33.6533921,24.1633936 33.6889502,23.7126253 33.7043587,23.3674866 L32.8177762,23.3269543 C32.7312514,25.3400587 31.9821603,31.360948 31.6716194,33.5116165 C31.1429887,33.724104 30.7968896,34.2719043 30.7968896,35.2545055 C30.7968896,35.2545055 35.6244973,35.3245159 37.4912987,35.3245159 C39.3581001,35.3245159 44.1809668,35.2545055 44.1809668,35.2545055 C44.1809668,34.2719043 43.8348677,33.724104 43.3097928,33.5116165 L43.3097928,33.5116165 Z" id="Shape"></path>
                        <path d="M63.5376232,76.4537488 L11.443789,76.4537488 C11.2102906,74.7354248 10.8938234,73.6324549 10.6105437,72.7038967 L64.3673127,72.7038967 C64.0828477,73.6324549 63.7711215,74.7354248 63.5376232,76.4537488 Z M28.2284079,64.9008143 C28.7096278,65.6389935 29.1671423,66.1757394 29.3876027,66.7628437 C29.6151747,67.3818825 29.4670158,67.7528145 29.0308362,68.3878206 C28.0411351,69.8224184 26.3284189,71.0568113 24.9783955,71.8207838 L19.7584632,71.8207838 C23.0392926,70.8541498 27.4722052,67.94565 28.2272226,64.899586 L28.2284079,64.9008143 Z M25.0649203,63.8997892 C25.4939883,63.0817737 26.5263591,62.8238408 27.2304099,63.7941596 C27.5314687,64.2117651 27.3999037,65.3159633 26.1648516,66.7002029 C25.2758985,65.8527093 24.6121469,64.7730761 25.0649203,63.9010175 L25.0649203,63.8997892 Z M45.8830156,68.3890488 C45.4456507,67.7528145 45.2963065,67.3831107 45.5262491,66.7640719 C45.7467094,66.1757394 46.2054092,65.6389935 46.6854438,64.9020425 C47.439276,67.9468782 51.8757444,70.8566063 55.1542033,71.8232403 L49.9319004,71.8232403 C48.5830623,71.0580395 46.8727166,69.8248749 45.8830156,68.3902771 L45.8830156,68.3890488 Z M47.6810713,63.7941596 C48.3886779,62.8238408 49.4186782,63.0817737 49.8489314,63.8997892 C50.3017049,64.7718479 49.6415091,65.851481 48.7490002,66.6989746 C47.5175039,65.3147351 47.3871241,64.2117651 47.6822565,63.7929313 L47.6810713,63.7941596 Z M64.5711793,71.5468837 C64.0105462,71.7163824 63.3349419,71.8232403 62.3215354,71.8232403 L61.0604074,71.8232403 C56.7282428,71.7360344 52.2704396,70.3996967 49.5407611,67.5010229 C53.3146631,63.5595635 48.8817505,60.3132946 46.4839478,63.6565954 C45.7372273,64.7055223 45.1398508,65.4437015 44.619517,66.457009 C44.1987458,67.2762529 44.5152131,68.0967249 45.4527623,69.3544546 C45.9659845,70.0484167 47.2437064,71.1194521 48.2879299,71.822012 L26.6318482,71.822012 C27.6713307,71.1194521 28.9478672,70.0484167 29.4682011,69.3544546 C30.3986386,68.0967249 30.719847,67.2762529 30.3014464,66.457009 C29.7834831,65.4437015 29.1801803,64.7055223 28.4334597,63.6565954 C26.0368423,60.3132946 21.6063003,63.5583353 25.3802023,67.5010229 C22.6493385,70.3996967 18.1950911,71.7360344 13.8570002,71.8232403 L12.6622473,71.8232403 C11.6464703,71.8232403 10.9696807,71.7176106 10.4137887,71.5468837 C9.51416822,71.3221136 9.31504273,71.7163824 9.79981847,73.3241637 C10.1328795,74.3927426 10.3960096,76.1356316 10.5169073,77.3344052 L64.4739871,77.3344052 C64.5877731,76.1344034 64.8532737,74.3927426 65.1863348,73.3241637 C65.66874,71.7163824 65.4696145,71.3221136 64.5723646,71.5468837 L64.5711793,71.5468837 Z" id="Shape"></path>
                        <path d="M17.673572,75.0744222 L17.6581635,75.0498572 L18.045747,73.9800501 L18.0670819,73.9542568 L18.0789346,73.9800501 L18.461777,75.0498572 L18.4451832,75.0744222 L17.6747573,75.0744222 L17.673572,75.0744222 Z M18.5068173,75.2316384 L18.5376344,75.2562035 L18.6786816,75.6504722 L18.6526056,75.7278521 L18.6063801,75.7561019 L18.702387,75.7831234 L19.2855402,75.7843517 L19.4242169,75.7561019 L19.389844,75.7278521 L19.2559084,75.7180261 C19.1907185,75.698374 19.1018232,75.6602982 18.9856667,75.3704309 C18.7865412,74.8840432 18.2922833,73.57964 18.2223523,73.4003153 L18.1441245,73.2983704 L18.0575997,73.4297934 L17.2812474,75.4379847 C17.2207986,75.5964292 17.1603498,75.7032871 17.0216731,75.7229391 L16.9209251,75.7278521 L16.8853669,75.7561019 L16.9434452,75.7843517 L17.3085086,75.7831234 L17.6380139,75.7843517 L17.6901658,75.7561019 L17.6415697,75.7278521 L17.5953441,75.7278521 C17.5005225,75.7278521 17.4744465,75.688548 17.4744465,75.6271355 L17.5183015,75.4367565 L17.5811209,75.25866 L17.6083821,75.2316384 L18.5068173,75.2316384 L18.5068173,75.2316384 Z" id="Shape"></path>
                        <path d="M20.0476693,74.7624463 C20.0476693,75.2242689 20.1626405,75.4613215 20.3214668,75.6111682 C20.5466683,75.8211992 20.8418007,75.8285687 21.005368,75.8285687 C21.2068641,75.8285687 21.4308802,75.8003189 21.6454142,75.5988857 C21.9061738,75.3741156 21.9429172,74.9945859 21.9429172,74.6371647 L21.9429172,74.2944825 L21.9488435,73.6226289 C21.9559552,73.510858 21.9749195,73.4531301 22.0590737,73.4383911 L22.1503396,73.4297934 L22.204862,73.4003153 L22.1408574,73.3720655 L21.7852762,73.3757503 L21.4379918,73.3720655 L21.3692461,73.4003153 L21.4237686,73.4297934 L21.5339988,73.4383911 C21.6359321,73.4580431 21.6596375,73.510858 21.6655638,73.6226289 L21.6714902,74.2944825 L21.6714902,74.697349 C21.6714902,75.0277487 21.6631933,75.3163878 21.4960701,75.4895713 C21.3692461,75.6173094 21.2033082,75.6664395 21.0670021,75.6664395 C20.961513,75.6664395 20.8204658,75.6467875 20.6817891,75.5350166 C20.5312597,75.4048219 20.4411792,75.2095299 20.4411792,74.7464791 L20.4411792,74.2957107 L20.444735,73.6238571 C20.4530319,73.5120862 20.4802931,73.4543584 20.5608915,73.4396194 L20.6533426,73.4310216 L20.703124,73.4015436 L20.633193,73.3732938 L20.2539064,73.3769785 L19.8035035,73.3732938 L19.7335725,73.4015436 L19.7869097,73.4310216 L19.9066221,73.4396194 C20.0109259,73.4592714 20.033446,73.5120862 20.0417429,73.6238571 L20.0488545,74.2957107 L20.0488545,74.7636746" id="Shape"></path>
                        <path d="M23.6331133,74.2416677 L23.6342985,73.6029768 L23.6722272,73.540336 L23.8713527,73.515771 C24.1155184,73.515771 24.4699144,73.555075 24.7520088,73.8400294 C24.8859444,73.9702241 25.0495118,74.2318416 25.0495118,74.6359364 C25.0495118,74.9675643 24.9866924,75.25866 24.787567,75.4367565 C24.6014794,75.5976574 24.3940571,75.6664395 24.0799603,75.6664395 C23.8346093,75.6664395 23.7148969,75.5964292 23.6722272,75.5387013 L23.6402249,75.2942793 L23.6342985,74.6482189 L23.6342985,74.2416677 L23.6331133,74.2416677 Z M23.2479003,74.8557935 C23.2479003,75.1505738 23.2479003,75.4072784 23.2301212,75.5387013 C23.2194538,75.6332767 23.2052305,75.7020588 23.1424112,75.7167978 L23.0333663,75.7266238 L22.9823996,75.7548736 L23.045219,75.7831234 L23.4328025,75.7818952 L24.091813,75.8150579 C24.6619283,75.8150579 24.9819514,75.5890597 25.1277397,75.4355282 C25.3007892,75.253747 25.4631713,74.9466841 25.4631713,74.5450458 C25.4631713,74.1618313 25.3161977,73.8977572 25.1609272,73.7319432 C24.8290514,73.369609 24.3087176,73.369609 23.9258751,73.369609 L23.4505816,73.3732938 L23.0037345,73.369609 L22.9385446,73.3978588 L22.9871407,73.4273368 L23.1127794,73.4359346 C23.2135274,73.4555866 23.2360476,73.5084015 23.2419739,73.6201723 L23.2502708,74.292026 L23.2502708,74.8545652 L23.2479003,74.8557935 Z" id="Shape"></path>
                        <path d="M26.6567389,75.0744222 L26.648442,75.0498572 L27.0324697,73.9800501 L27.0502488,73.9542568 L27.0656573,73.9800501 L27.4461292,75.0498572 L27.4307207,75.0744222 L26.6567389,75.0744222 L26.6567389,75.0744222 Z M27.4899842,75.2316384 L27.519616,75.2562035 L27.6665896,75.6504722 L27.6345873,75.7278521 L27.5919175,75.7561019 L27.6855539,75.7831234 L28.2663366,75.7843517 L28.4133101,75.7561019 L28.3706404,75.7278521 L28.2402606,75.7180261 C28.1750707,75.698374 28.0897312,75.6602982 27.97476,75.3704309 C27.7732639,74.8840432 27.2801913,73.57964 27.2031487,73.4003153 L27.1272914,73.2983704 L27.0455077,73.4297934 L26.2655996,75.4379847 C26.206336,75.5964292 26.1447019,75.7032871 26.0024695,75.7229391 L25.9088331,75.7278521 L25.8697191,75.7561019 L25.9301679,75.7843517 L26.2952313,75.7831234 L26.6199955,75.7843517 L26.6721474,75.7561019 L26.6271071,75.7278521 L26.578511,75.7278521 C26.4860599,75.7278521 26.4576134,75.688548 26.4576134,75.6271355 L26.5002832,75.4367565 L26.5654731,75.25866 L26.5962901,75.2316384 L27.4899842,75.2316384 L27.4899842,75.2316384 Z" id="Shape"></path>
                        <path d="M30.505313,73.6950957 C30.6025052,73.5526185 30.6617687,73.4629561 30.7316997,73.4433041 L30.8419299,73.4297934 L30.8917113,73.4003153 L30.8383741,73.3720655 L30.5337595,73.3757503 L30.2255891,73.3720655 L30.1615845,73.4003153 L30.1959573,73.4297934 L30.3002612,73.4383911 L30.3500425,73.4899777 L30.3180402,73.6177158 L29.8960838,74.2907977 L29.5049445,73.57964 L29.4729422,73.4899777 L29.5108708,73.4383911 L29.5973956,73.4297934 L29.6400654,73.4003153 L29.5796166,73.3720655 L29.2477407,73.3757503 L28.7795588,73.3720655 L28.7179247,73.3966306 L28.7463712,73.4310216 L28.8779363,73.4519019 C28.9881665,73.4826082 29.0580974,73.5612163 29.1303989,73.6914109 L29.6661413,74.6015454 L29.0758765,75.4723758 C28.9715727,75.6283637 28.9123091,75.6897763 28.8245991,75.7143413 L28.7072573,75.7290803 L28.6645875,75.7573301 L28.7096278,75.7855799 L28.7641503,75.7855799 L29.0189835,75.7843517 L29.3117454,75.7855799 L29.3662678,75.7855799 L29.4302724,75.7573301 L29.3911585,75.7290803 L29.3224128,75.7241673 L29.2607787,75.6713525 L29.3034485,75.5374731 L29.7621482,74.7710441 L30.2516651,75.6369615 L30.2445534,75.7143413 L30.1983279,75.7475041 L30.3097433,75.7843517 L30.8597089,75.7855799 L30.9521601,75.7855799 L31.0126089,75.7573301 L30.9746802,75.7290803 L30.8585237,75.7118848 C30.7755547,75.6873198 30.7269586,75.6467875 30.675992,75.5743206 C30.6013199,75.473604 30.0999504,74.6089149 30.0003877,74.4529269 L30.505313,73.6975522" id="Shape"></path>
                        <path d="M34.7189505,75.0744222 L34.703542,75.0498572 L35.0875697,73.9800501 L35.1100898,73.9542568 L35.1243131,73.9800501 L35.5190082,75.053542 L35.5012292,75.073194 L34.7201357,75.073194 L34.7189505,75.0744222 Z M35.5521958,75.2316384 L35.5818276,75.2562035 L35.7228748,75.6504722 L35.6944283,75.7278521 L35.6505733,75.7561019 L35.7442097,75.7831234 L36.3273629,75.7843517 L36.4684101,75.7561019 L36.4292961,75.7278521 L36.2989164,75.7180261 C36.236097,75.698374 36.1436459,75.6602982 36.0274894,75.3704309 C35.8271786,74.8840432 35.3352913,73.57964 35.2653603,73.4003153 L35.1847619,73.2983704 L35.0982371,73.4297934 L34.32307,75.4379847 C34.2626212,75.5964292 34.204543,75.7032871 34.0587547,75.7229391 L33.9663036,75.7278521 L33.9295602,75.7561019 L33.9876384,75.7843517 L34.3515165,75.7831234 L34.677466,75.7843517 L34.7296179,75.7561019 L34.6845776,75.7278521 L34.6407226,75.7278521 C34.5423451,75.7278521 34.5162692,75.688548 34.5162692,75.6271355 L34.56368,75.4367565 L34.6253141,75.25866 L34.6537606,75.2316384 L35.5533811,75.2316384 L35.5521958,75.2316384 Z" id="Shape"></path>
                        <path d="M37.4462584,74.8557935 C37.4462584,75.1505738 37.4462584,75.4072784 37.4320352,75.5387013 C37.422553,75.6332767 37.4024034,75.7020588 37.3443252,75.7167978 L37.2329097,75.7266238 L37.1819431,75.7548736 L37.2423919,75.7831234 L37.637087,75.7818952 L38.1218628,75.7831234 L38.1751999,75.7548736 L38.1254186,75.7266238 L37.9713334,75.7167978 C37.877697,75.7020588 37.8575474,75.6332767 37.84688,75.5423861 C37.8326567,75.4072784 37.8326567,75.1505738 37.8326567,74.8557935 L37.8326567,73.5477055 L38.2214255,73.555075 C38.4975936,73.5636728 38.5805625,73.6508786 38.5876742,73.7380845 L38.5876742,73.7724755 L38.622047,73.8351164 L38.6504935,73.7810733 L38.6599757,73.4138261 L38.635085,73.3475005 L38.3399526,73.374522 L37.1167532,73.374522 L36.8085828,73.3659243 L36.6770177,73.3229355 L36.6402743,73.3855763 L36.577455,73.750367 L36.6035309,73.8044101 L36.6355333,73.7687908 L36.6876852,73.6521069 C36.7362813,73.57964 36.8085828,73.569814 36.9887439,73.5612163 L37.4450732,73.5489338 L37.4450732,74.8570217" id="Shape"></path>
                        <path d="M43.0366581,74.6003171 L43.0710214,74.5708391 L43.6708184,74.5855781 C43.7926521,74.5941759 43.852007,74.6531319 43.8785605,74.6961207 L43.9004281,74.7980656 L43.9379154,74.8410544 L43.9722788,74.7784136 L43.9925844,74.5462741 L44.0238239,74.3448408 L43.9988323,74.3190475 L43.9472873,74.3534386 L43.7676606,74.4074816 L43.5895959,74.4123946 L43.0694595,74.4160794 L43.0350961,74.3816883 L43.0350961,73.5882378 L43.0772693,73.540336 L43.7004958,73.5526185 C43.852007,73.5526185 43.9394774,73.6042051 43.9707168,73.6471939 L43.9925844,73.7687908 L44.0347577,73.8203774 L44.0738069,73.7773886 L44.0909886,73.5169992 L44.126914,73.3720655 L44.1003604,73.3438157 L44.0347577,73.3683808 L43.8676267,73.3769785 L42.7961145,73.3769785 L42.2119373,73.3732938 L42.119781,73.4015436 L42.1806978,73.4310216 L42.3447048,73.4396194 C42.4774724,73.4592714 42.5055879,73.5120862 42.5133977,73.6238571 L42.5243315,74.2957107 L42.5243315,74.85825 C42.5243315,75.1665411 42.5243315,75.4097349 42.5040259,75.5411578 C42.4868442,75.6357332 42.4696625,75.7045153 42.3853161,75.7192543 L42.2416147,75.7290803 L42.1791359,75.7573301 L42.2666063,75.7855799 L42.7773708,75.7843517 L43.3943495,75.7855799 L43.4849438,75.7573301 L43.4224649,75.7290803 L43.2162847,75.7192543 C43.0913271,75.7045153 43.0678975,75.6357332 43.0569637,75.5411578 C43.0335341,75.4109632 43.0335341,75.1677694 43.0335341,74.85825 L43.0335341,74.6027736" id="Shape"></path>
                        <path d="M44.9767587,74.8557935 L44.9566873,75.5571251 C44.9466517,75.644331 44.906509,75.7008306 44.8021381,75.7155696 L44.6214961,75.7253956 L44.5351894,75.7536454 L44.6415675,75.7818952 L45.2978999,75.7806669 L46.1148031,75.7818952 L46.2131526,75.7536454 L46.1328673,75.7253956 L45.8578901,75.7155696 C45.6993265,75.7008306 45.6672124,75.6431027 45.6531625,75.5583534 L45.6330912,74.8545652 L45.6330912,74.292026 L45.6371054,73.6201723 C45.6511554,73.5084015 45.6852766,73.4506736 45.8338045,73.4359346 L45.9903608,73.4273368 L46.0726533,73.3929458 L45.9602538,73.3683808 L45.3219855,73.3720655 L44.6516031,73.3683808 L44.5211395,73.3929458 L44.6074462,73.4273368 L44.7880882,73.4359346 C44.906509,73.4555866 44.9566873,73.5084015 44.9687301,73.6201723 L44.9747515,74.292026 L44.9747515,74.8545652" id="Shape"></path>
                        <path d="M47.0208755,74.2416677 L47.0208755,73.6029768 L47.0635452,73.540336 L47.2614854,73.515771 C47.5056512,73.515771 47.8576766,73.555075 48.1433269,73.8400294 C48.2725214,73.9702241 48.4349035,74.2318416 48.4349035,74.6359364 C48.4349035,74.9675643 48.3744547,75.25866 48.1753292,75.4367565 C47.9904269,75.5976574 47.7794487,75.6664395 47.4689078,75.6664395 C47.2235568,75.6664395 47.1026591,75.5964292 47.0647305,75.5387013 L47.0279871,75.2942793 L47.0220607,74.6482189 L47.0220607,74.2416677 L47.0208755,74.2416677 Z M46.638033,74.8557935 C46.638033,75.1505738 46.638033,75.4072784 46.6166981,75.5387013 C46.6095865,75.6332767 46.5918075,75.7020588 46.5289881,75.7167978 L46.4163874,75.7266238 L46.3654207,75.7548736 L46.4317959,75.7831234 L46.82175,75.7818952 L47.47839,75.8150579 C48.0449494,75.8150579 48.3685283,75.5890597 48.5107608,75.4355282 C48.6838103,75.253747 48.8497482,74.9466841 48.8497482,74.5450458 C48.8497482,74.1618313 48.7015894,73.8977572 48.5451336,73.7319432 C48.2120726,73.369609 47.6952945,73.369609 47.307711,73.369609 L46.8359732,73.3732938 L46.3891262,73.369609 L46.3203805,73.3978588 L46.3749029,73.4273368 L46.4969858,73.4359346 C46.5977338,73.4555866 46.620254,73.5084015 46.6285509,73.6201723 L46.6356625,74.292026 L46.6356625,74.8545652 L46.638033,74.8557935 Z" id="Shape"></path>
                        <path d="M50.0216008,74.8557935 L50.0048111,75.5387013 C49.9849687,75.6332767 49.968179,75.7020588 49.8903358,75.7167978 L49.7438075,75.7266238 L49.6812277,75.7548736 L49.7621235,75.7831234 L50.2597093,75.7818952 L51.3647772,75.7990907 C51.5097793,75.7990907 51.549464,75.7990907 51.5723591,75.7118848 L51.6273072,75.3556919 L51.5952541,75.2942793 L51.5525167,75.3458658 C51.5250426,75.4748323 51.4777262,75.5460708 51.3724089,75.5853749 C51.268618,75.6222224 51.1053,75.6222224 51.0015091,75.6222224 C50.5970298,75.6222224 50.5313973,75.5706359 50.5237656,75.3532353 L50.5237656,74.6052301 L50.552766,74.5732956 L51.1129317,74.5843499 C51.25946,74.5929476 51.3174608,74.6420777 51.3373032,74.7059468 L51.3571456,74.8214024 L51.3846196,74.8496522 L51.4212517,74.7931526 L51.4380414,74.5806651 L51.4700945,74.3436125 L51.4426204,74.3178193 L51.3800406,74.3595798 L51.1877222,74.4062534 L50.5542924,74.4148511 L50.5222393,74.3792318 L50.5222393,73.5685858 L50.5542924,73.540336 L51.114458,73.5526185 C51.3144081,73.569814 51.3540929,73.6078898 51.3785143,73.6668459 L51.4075147,73.7823016 L51.4395678,73.8302034 L51.4746735,73.7921276 L51.4929895,73.57964 L51.5296216,73.3720655 L51.5006212,73.3438157 L51.4441468,73.3573265 L51.2716707,73.3769785 L50.2749727,73.3769785 L49.7087017,73.3732938 L49.6201742,73.4015436 L49.6858067,73.4310216 L49.836914,73.4396194 C49.972758,73.4592714 50.0032848,73.5120862 50.0109164,73.6238571 L50.0170218,74.2957107 L50.0170218,74.85825" id="Shape"></path>
                        <path d="M52.8826326,74.2932542 L52.8885402,73.6214006 C52.8959248,73.5096297 52.9269401,73.4519019 53.0288475,73.4371629 L53.1794933,73.4285651 L53.2444777,73.3990871 L53.166201,73.3708373 L52.6433717,73.374522 L52.1190654,73.3708373 L52.0393118,73.3990871 L52.0969116,73.4285651 L52.2283574,73.4371629 C52.3538955,73.4568149 52.3790032,73.5096297 52.3908185,73.6214006 L52.3982031,74.2932542 L52.3982031,74.8557935 C52.3982031,75.1505738 52.3982031,75.4072784 52.3790032,75.5387013 C52.3657109,75.6332767 52.3479879,75.7020588 52.2638035,75.7167978 L52.1294038,75.7266238 L52.0673732,75.7548736 L52.1456499,75.7831234 L52.6286025,75.7818952 L53.7481071,75.7990907 C53.9474912,75.7990907 53.9681681,75.7818952 53.9903218,75.7094283 L54.0464448,75.3384963 L54.0183833,75.2869098 L53.9799834,75.3348116 L53.8751222,75.5276471 C53.7791224,75.6099399 53.6269998,75.6148529 53.4202311,75.6148529 C53.1263242,75.6148529 53.0273706,75.5952009 52.9594323,75.5472991 C52.8811556,75.488343 52.8811556,75.2672577 52.8811556,74.8557935 L52.8811556,74.2932542" id="Shape"></path>
                        <path d="M54.8235295,74.8557935 L54.8034582,75.5571251 C54.7934225,75.644331 54.7532799,75.7008306 54.6489089,75.7155696 L54.4562242,75.7253956 L54.377946,75.7536454 L54.4783026,75.7818952 L55.1386494,75.7806669 L55.9675953,75.7818952 L56.0659448,75.7536454 L55.9716096,75.7253956 L55.706668,75.7155696 C55.5521188,75.7008306 55.5079619,75.6431027 55.4979262,75.5583534 C55.4718335,75.4207892 55.4718335,75.1689976 55.4718335,74.8545652 L55.4718335,74.292026 L55.4838763,73.6201723 C55.4959191,73.5084015 55.540076,73.4506736 55.6805753,73.4359346 L55.8351245,73.4273368 L55.917417,73.3929458 L55.8130461,73.3683808 L55.1747778,73.3720655 L54.4903454,73.3683808 L54.3719246,73.3929458 L54.4481956,73.4273368 L54.6388733,73.4359346 C54.755287,73.4555866 54.8094796,73.5084015 54.815501,73.6201723 L54.8235295,74.292026 L54.8235295,74.8545652" id="Shape"></path>
                        <path d="M57.048966,75.8273405 C57.3012386,75.8273405 57.5756082,75.7990907 57.8131496,75.6971458 C58.1611754,75.5497556 58.2624528,75.3249856 58.2624528,75.1407478 C58.2624528,74.8410544 58.050691,74.6236539 57.4724894,74.33133 L57.3362254,74.2576349 C56.94953,74.0598864 56.83168,73.945659 56.83168,73.7994971 C56.83168,73.6066616 57.0471246,73.4715539 57.402516,73.4715539 C57.7100309,73.4715539 57.8481363,73.5673575 57.9217926,73.6287701 C58.0285942,73.7122912 58.050691,73.8105513 58.050691,73.8388011 L58.100409,73.891616 L58.1538098,73.7994971 L58.1722239,73.4150543 L58.1059332,73.3732938 C57.982559,73.3536418 57.7818457,73.3217072 57.4669652,73.3217072 C56.8059003,73.3217072 56.3621214,73.5771835 56.3621214,73.926007 C56.3621214,74.1863963 56.537055,74.4111664 57.0692214,74.6862947 L57.2975558,74.7968374 C57.6934582,75.0044119 57.7597488,75.1542586 57.7597488,75.3139313 C57.7597488,75.478517 57.5535113,75.6762655 57.1134152,75.6762655 C56.8206316,75.6762655 56.5333722,75.5890597 56.4320948,75.3520071 L56.3842182,75.1935626 L56.3400245,75.1309218 L56.2810995,75.2181277 L56.2553198,75.6332767 L56.3473901,75.7438194 C56.5499448,75.8064602 56.7672308,75.8261122 57.0471246,75.8261122" id="Shape"></path>
                        <path d="M37.4901135,19.9873382 C35.87696,19.9873382 34.0575694,20.381607 32.6553941,21.016613 C32.6779143,20.6935829 32.7834034,20.4123133 32.9837141,20.1654347 C33.7991804,19.1496706 35.9184445,18.7873364 37.4901135,18.7873364 C39.0617825,18.7873364 41.1834171,19.1496706 41.9965128,20.1654347 C42.1956383,20.4135415 42.3023127,20.6923546 42.3260181,21.0129283 C40.9226575,20.376694 39.1281576,19.9873382 37.4901135,19.9873382 L37.4901135,19.9873382 Z M40.237571,22.3468095 L39.7373868,21.1504925 C40.4983306,21.3027957 41.2272721,21.5324787 41.8637625,21.8088353 L42.1553391,23.0370869 C41.6836013,22.8405667 41.0305172,22.5678948 40.237571,22.3468095 Z M35.5059702,22.1613435 L34.6478342,21.2856001 C35.351885,21.1025907 36.091494,20.9809937 36.818065,20.9294072 L37.3324725,21.9599103 C36.678203,21.968508 36.0725297,22.0483444 35.5059702,22.1625718 L35.5059702,22.1613435 Z M32.7134724,23.0886735 L32.462195,23.1943031 C32.120837,23.3355521 31.8837829,23.2237812 31.7984434,23.0493694 C31.7095481,22.8639034 31.7640705,22.559297 32.190768,22.2866252 L32.3673733,22.1871368 L33.1852101,22.8835555 L32.7146577,23.0874452 L32.7134724,23.0886735 Z M37.4901135,16.8000253 L38.6528641,17.6733122 C38.1562356,17.6254104 37.7402056,17.6143561 37.4901135,17.6143561 C37.2388361,17.6143561 36.8239913,17.6254104 36.3261776,17.6733122 L37.4901135,16.8000253 Z M36.1637955,13.6114842 C35.6896872,12.5429053 35.5569369,11.1439267 37.0219315,11.8182368 L37.138088,13.6114842 L36.1637955,13.6114842 Z M37.2767647,9.7388069 L37.4901135,9.8935666 L37.6987211,9.7388069 L38.5450044,9.10380082 L38.0590434,10.793875 L38.0104473,10.8098423 C37.9251078,10.5973548 37.7224265,10.4548776 37.4889282,10.4548776 C37.2566151,10.4548776 37.0586749,10.5961265 36.9697796,10.8098423 L36.9199982,10.793875 L36.4352225,9.10380082 L37.2755795,9.7388069 L37.2767647,9.7388069 Z M38.5272254,16.6575481 L37.6987211,16.0360528 L37.4901135,15.8763801 L37.2767647,16.0360528 L36.450631,16.6575481 L36.9887439,14.8544748 L37.991483,14.8544748 L38.5272254,16.6575481 Z M38.8164314,13.6102559 L37.8409536,13.6102559 L37.9582954,11.8170086 C39.4221048,11.1426985 39.2905397,12.5429053 38.8164314,13.6102559 L38.8164314,13.6102559 Z M33.9177075,14.030318 L34.5186397,13.1742266 L34.6703544,12.9519131 L34.5186397,12.736969 L33.9177075,11.8771929 L35.1468332,12.2690052 C35.2155789,12.8254032 35.3352913,13.1938786 35.4727827,13.5328761 L33.9165222,14.0290897 L33.9177075,14.030318 Z M39.8381348,12.2690052 L41.0660753,11.8771929 L40.4627725,12.736969 L40.3098725,12.9519131 L40.4627725,13.1742266 L41.0660753,14.030318 L39.5074443,13.5341043 C39.6461209,13.1951069 39.7658333,12.8266314 39.8381348,12.2702334 L39.8381348,12.2690052 Z M47.4973543,10.0704348 C47.5258008,9.59387321 46.6664795,9.22785423 46.4507602,9.20697396 C46.0928085,9.17995242 45.6364792,9.96603344 45.167112,10.4524211 C44.7522673,8.15681884 44.9679865,7.17298931 45.1991143,6.15599699 C46.134293,7.91730978 47.3977916,8.29315477 48.065099,8.20594891 C45.8166404,6.34514774 46.2054092,4.65261704 45.5191374,4.56295468 C45.1291834,4.52119412 44.8482742,4.5469874 44.650334,4.5469874 C43.8609437,4.5469874 43.753084,6.13388847 43.6511508,6.85978516 C43.1391138,5.87472738 42.6353737,5.0468858 41.7701261,3.90829658 C40.9416218,1.70112846 39.9246596,2.25138517 38.8911035,1.25036012 C39.6923465,2.51300276 39.0428181,3.28802952 40.9048785,4.20430521 C41.3908395,4.68332333 41.9573989,5.4301003 42.3366855,6.03317183 C42.023774,6.46060339 41.8116106,6.70993846 41.520034,6.99980584 C41.2900914,7.35968356 41.1727496,8.72672758 40.4544756,9.75968717 C41.520034,9.27452779 41.9384345,8.60513067 42.3177212,7.94555957 C45.6815195,10.5777027 42.9506558,17.296239 42.1743034,18.7701409 C41.4335092,18.253047 40.4852926,17.9607231 39.6236008,17.8010504 L39.5323349,17.501357 L38.7429446,14.8483335 L39.1091933,14.8483335 C39.5287791,14.8483335 39.6283419,14.5584662 39.5595962,14.3238701 L41.879171,15.0669623 L42.907986,15.392449 L42.2786072,14.4933688 L41.2000109,12.9482283 L42.2786072,11.4104573 L42.907986,10.5064641 L41.879171,10.8344073 L39.7895387,11.5025762 C39.6461209,11.0112755 39.2597227,10.7754512 38.8294694,10.7128104 L39.5323349,8.25876372 L39.8333937,7.20492386 L38.9752577,7.85221245 L37.4912987,8.9699214 L36.0014134,7.85221245 L35.1480185,7.20492386 L35.4490772,8.25876372 L36.1519428,10.7128104 C35.7311717,10.774223 35.3352913,11.0112755 35.1883177,11.5025762 L33.0986854,10.8344073 L32.0734262,10.5064641 L32.7039902,11.4104573 L33.7825866,12.9482283 L32.7039902,14.4933688 L32.0734262,15.392449 L33.0986854,15.0669623 L35.4312982,14.3226418 C35.3613672,14.5584662 35.4490772,14.8483335 35.87696,14.8483335 L36.2384676,14.8483335 L35.4490772,17.501357 L35.3589967,17.8010504 C34.4712289,17.9607231 33.5004922,18.2653295 32.7549569,18.8082167 C30.4875339,14.2563163 31.1252096,9.64914453 33.0299397,8.11751479 C32.9967521,9.08537705 33.8086625,10.3959215 34.1950608,10.6722781 C33.9425981,9.67248131 34.3775925,7.88905999 33.8774082,7.44320467 C33.5277534,7.13614177 32.9967521,6.98138207 32.4290074,6.99857759 C32.8118499,6.34391949 33.346407,5.50993665 34.2412864,4.28782632 C35.5770865,3.63439647 35.9611142,2.02661513 36.29299,1.21596908 C34.8410334,1.76745405 33.7778455,2.54370905 33.5431619,3.80512344 C33.0299397,4.51259636 32.4610097,5.34043793 31.8280751,6.32181096 C31.8636333,5.13163516 31.2283281,4.71771438 30.3950828,4.65138879 C27.9510546,5.18567823 28.1335862,7.01208836 26.035657,8.27350274 C27.4686494,8.79305317 29.7123669,5.53204518 30.4816076,5.89683591 C30.6001347,7.893973 30.163955,9.46736329 30.163955,10.554366 C29.7977064,10.1379887 29.6092483,9.84934954 29.2975221,9.79530647 C29.0012044,9.7412634 28.1821823,9.81250199 27.6179935,10.4511928 C27.4615377,11.4620439 27.5018369,13.3695186 26.5868079,15.6430123 C27.9522398,14.3484351 28.5993976,11.8133238 28.8174875,11.0751446 C29.1647718,11.5713583 29.5452437,12.6669587 29.6317685,13.6077994 C29.7965211,15.4280683 30.8751175,18.4557085 31.7937023,19.9173279 C31.5412396,20.425824 31.464197,20.9945045 31.5542776,21.6221411 C30.8419299,22.1723978 30.7601462,22.940055 31.0078678,23.4559207 C31.2721832,24.0061774 31.9738634,24.3857072 32.7964413,24.043025 L33.0572009,23.9349388 C33.9224485,23.5640068 35.5367873,22.8688164 37.4936693,22.8688164 C39.449366,22.8688164 41.0660753,23.5652351 41.9336935,23.9349388 L42.1932677,24.043025 C43.0158456,24.3857072 43.7139701,24.0061774 43.9794708,23.4559207 C44.2295629,22.9412833 44.1477792,22.1723978 43.4330609,21.6221411 C43.5290679,20.947831 43.4259493,20.3337052 43.1284464,19.7945027 L43.153337,19.8227525 C44.8281246,17.3588798 44.9371695,12.6423937 46.3215657,11.2986864 C46.4377223,12.9506848 47.2875614,14.3189571 48.121992,14.5068796 C47.4499435,13.3695186 47.4499435,11.1070792 47.5020954,10.0692066 L47.4973543,10.0704348 Z" id="Shape"></path>
                        <path d="M26.7528939,48.4889165 L25.3678514,48.5036555 C25.1590591,50.3570871 25.2594707,52.0471613 25.5893945,53.5849323 C26.4468776,52.4967014 27.3059545,51.4047858 27.2645148,50.6322155 C27.2230751,49.8461345 26.9855937,49.1300638 26.7528939,48.4876882" id="Shape"></path>
                        <path d="M30.0312047,51.6971096 C30.3879712,52.719015 30.820595,54.3341658 31.1761762,55.4715268 C30.8680058,55.4911788 30.5669471,55.5145156 30.2931495,55.5587326 C30.1390643,55.1521814 29.6246568,53.8121589 29.0983966,52.5163534 C28.6029535,51.3016126 29.7811126,50.9884085 30.0312047,51.6983379 L30.0312047,51.6971096 Z M32.1966943,50.6088787 C32.278478,50.0094919 33.9188927,49.8952645 33.6107223,51.2131785 C33.3013667,52.5544292 32.9114126,54.1081675 32.6150949,55.4469617 L32.1966943,55.4457335 L31.7771085,55.4469617 C31.477235,54.1069393 31.0896515,52.553201 30.7802958,51.2131785 C30.474496,49.8952645 32.1101696,50.0094919 32.1955091,50.6088787 L32.1966943,50.6088787 Z M35.2926215,52.5163534 C34.7628055,53.8121589 34.2531391,55.1521814 34.0966833,55.5587326 C33.8217005,55.5145156 33.5206418,55.4911788 33.2148419,55.4715268 C33.5716084,54.3341658 33.9983059,52.719015 34.3598134,51.6971096 C34.6110908,50.9884085 35.7833236,51.3016126 35.2914362,52.5151252 L35.2926215,52.5163534 Z M30.0406869,56.3030531 C30.3938975,56.1691737 31.7818496,56.1016199 32.1966943,56.1016199 C32.6103538,56.1016199 33.9923795,56.1691737 34.3479607,56.3030531 C34.3858894,56.4958886 34.3894452,56.7648757 34.3609987,56.9626242 C33.8264416,57.1222969 32.8924483,57.205818 32.1966943,57.205818 C31.4961993,57.205818 30.5645765,57.1235252 30.0312047,56.9626242 C29.9992024,56.7648757 30.0003877,56.4958886 30.0406869,56.3030531 Z M33.9094106,60.5171843 C33.4424139,60.622814 32.6956933,60.6744005 32.1966943,60.6744005 C31.6976954,60.6744005 30.9486043,60.622814 30.4804223,60.5171843 L30.662954,59.7249621 C30.3121139,59.6917993 29.949421,59.5517786 29.664956,59.4473772 C29.8107443,58.9265985 30.0371311,58.4033633 30.2255891,57.6860644 C30.8608942,57.8322263 31.4784203,57.8899542 32.1966943,57.8899542 C32.9114126,57.8899542 33.5289387,57.8322263 34.1618732,57.6860644 C34.3515165,58.4033633 34.5790885,58.9265985 34.7284326,59.4473772 C34.4439677,59.5505503 34.077719,59.6917993 33.7280641,59.7249621 L33.9094106,60.5171843 Z M26.8226768,48.4852317 C26.9945411,49.1239225 27.160479,49.8301672 27.191296,50.6137917 C27.2256689,51.5239262 26.5725847,52.6404069 25.8815718,53.8256696 L25.6468882,54.2322209 C27.6310315,64.3616118 37.0859361,67.7380755 37.0859361,67.7380755 L37.0859361,48.5048837 C37.0859361,48.5048837 29.9683854,48.4778622 26.8214915,48.4852317 L26.8226768,48.4852317 Z" id="Shape"></path>
                        <path d="M47.4617962,50.3841087 L47.4309791,49.9026341 L47.8956053,49.897721 C48.5190577,49.8940363 48.8378955,49.272541 48.9967218,48.5466443 C46.5740284,48.5269923 37.8824381,48.5613833 37.8824381,48.5613833 L37.8824381,57.8494219 C38.6066385,57.2942521 39.3000219,56.8336578 40.2150509,56.5339644 L40.2150509,54.4999798 L41.1182272,54.4999798 C41.1691938,52.2522794 41.6871571,50.6322155 42.693452,49.5587236 L42.9838433,49.2442912 L43.2789757,49.5587236 C44.2876411,50.6322155 44.8044192,52.2535076 44.8542006,54.4999798 L45.7941203,54.4999798 L45.7941203,56.6715286 C46.7861919,57.0977319 47.4534993,57.747477 47.9655362,58.4426674 C48.7869289,56.7157456 49.3854906,54.706326 49.6083215,52.3910718 L49.4755712,52.4033543 C48.5368367,52.4033543 47.5471357,51.7118486 47.4617962,50.3828804" id="Shape"></path>
                        <path d="M49.8220534,48.5626116 L49.6177567,48.5515573 C49.3765548,49.6152232 48.8546097,50.3484894 47.9003464,50.3546306 C47.9754748,51.4121553 48.8322029,51.9513577 49.6533439,51.9513577 L49.8444602,51.9243362 C49.9274969,50.8680398 49.9367232,49.7515591 49.8220534,48.5613833" id="Shape"></path>
                        <path d="M45.1386655,60.5921077 L44.3504605,59.6549517 L43.0075487,60.8967141 L43.5598849,61.5501439 C43.5598849,61.5501439 44.1228885,61.2737873 44.6230728,61.8744023 C44.2473419,62.2170845 43.5930725,62.8078736 43.2137859,63.1444145 C42.7147869,62.5474842 43.0561448,62.00951 43.0561448,62.00951 L42.5144761,61.3573084 L40.8705056,62.8791122 L40.3371338,62.2404213 L42.0225888,60.7751172 L41.4169154,60.0553617 L40.8657645,60.5564884 C40.3869151,59.9779819 40.0123696,59.2176941 40.3584686,58.2633427 C41.3161674,58.0373444 41.9905865,58.5311015 42.4718064,59.1022385 L41.923026,59.6033651 L42.5322552,60.3317183 L43.9119103,59.1354013 L43.1237053,58.1957888 C43.8407941,58.1061265 44.4547643,58.3702005 44.8115308,58.7878061 C45.1552593,59.1992704 45.3211972,59.8723522 45.1374803,60.5933359 L45.1386655,60.5921077 Z M42.9838433,57.005613 C40.3466159,57.005613 39.3284684,57.7609878 37.8812528,58.9130878 L37.8812528,67.7921185 C37.8812528,67.7921185 44.1347412,65.5652984 47.5459504,59.3024435 C46.7565601,58.0803332 45.6115886,57.005613 42.9826581,57.005613 L42.9838433,57.005613 Z" id="Shape"></path>
                        <path d="M27.4994664,40.9462234 C28.8151169,40.1736532 29.4966476,39.6012879 30.1959573,38.4663835 C29.6815498,38.2072224 29.065209,37.7232912 28.6100651,37.0624919 C31.1121716,37.7920733 32.3780408,38.1703748 35.3246238,37.0858287 C34.8410334,37.8731379 34.1286856,38.3447865 33.5277534,38.7415118 C34.1962461,39.880101 34.8588124,41.188189 35.093496,42.2285181 C34.2116546,42.1560512 33.2124714,42.3783648 32.4953826,43.0563597 C31.3918955,43.1091745 29.9992024,43.4702804 29.2299617,40.8786696 C28.832896,41.0874724 28.4322745,41.363829 28.4322745,41.363829 C28.8838626,43.0563597 29.7123669,44.2084597 31.9134146,43.9664941 C32.033127,44.5044683 32.1267634,44.8164442 32.3946346,45.2684408 C31.4961993,45.8150127 29.2287764,47.1992523 27.4994664,45.6074382 L27.4994664,40.9462234 Z M35.7750267,44.7648576 C35.5427136,45.1075398 34.1275004,45.5583082 33.7778455,45.3310816 C33.1887659,44.9576931 32.8924483,44.1568731 33.0299397,43.8141909 C33.1982481,43.3671073 34.7604349,42.9187955 35.2570634,43.0858377 C35.7572476,43.2602494 35.9741522,44.468849 35.7738414,44.7648576 L35.7750267,44.7648576 Z M39.9886642,42.8143941 L39.9886642,42.330463 L38.8899182,42.3120392 C39.1530483,41.1034396 41.4204712,39.5705816 42.4398041,39.2107039 C42.3852816,37.9001595 44.050587,37.4653584 45.3852018,37.4272826 C47.0457662,37.3830655 47.4309791,39.2242147 47.4309791,39.7990364 C47.4309791,40.5593242 47.2425211,42.2383441 46.322751,42.7615793 C44.991692,43.516954 43.8538321,42.4741684 43.8538321,41.5235017 C43.8538321,40.4868573 44.5484007,39.880101 45.74908,40.0188935 C46.9497592,40.1527729 46.8573081,39.4588107 45.950576,39.2217582 C45.5072847,39.108759 43.6037399,39.0068142 42.9696201,40.4721183 C42.6081125,40.4880856 42.2146026,40.3333259 41.9858454,40.1024146 C41.7393091,40.4340425 41.3540961,40.6538995 40.82428,40.812344 C41.2817946,41.788804 42.2252701,41.6217618 42.7977558,41.1574827 L42.7716799,41.5714035 C42.7716799,43.9664941 45.237043,44.5707939 46.751819,43.6741702 C46.5005416,44.4504252 46.6178834,45.4330265 46.7221872,46.0962824 L40.7555343,46.0962824 C40.8574676,45.4342547 41.651599,44.67888 42.3177212,44.1937206 L41.7890904,43.3278033 C41.1383768,43.6225836 40.5315182,43.8915707 39.8322084,44.0819497 C38.1787558,44.5278051 38.275948,43.3081512 39.9898494,42.8143941 L39.9886642,42.8143941 Z M25.6990402,43.7245285 C26.3651623,44.288296 26.6128839,44.7071298 26.4054615,46.6133763 C26.377015,46.8528853 26.4990979,47.2999689 26.635404,47.7839 L49.1128783,47.7839 C49.137769,47.5308802 49.1496217,47.2803169 49.1531775,47.0653729 C49.1721419,46.0201308 48.9836838,45.1910609 48.6624754,44.8471505 C48.5558011,44.7329231 48.4384593,44.6801083 48.2251105,44.6801083 L48.196664,44.6801083 L47.2994141,44.7845097 L47.7770782,43.9886026 C48.2464454,43.2074346 48.9173086,42.7566663 49.6296564,42.7038515 L49.6296564,35.7900232 L25.3873139,35.7900232 L25.3873139,43.507128 L25.6314797,43.6668007 L25.7002254,43.7245285 L25.6990402,43.7245285 Z" id="Shape"></path>
                        <path d="M25.3861287,44.0475587 L25.3861287,47.7826718 L26.7369292,47.7826718 C26.5020946,47.2925994 26.3174384,46.8590266 26.3736381,46.5593332 C26.7248864,44.669054 26.2552173,44.4799033 25.3861287,44.0475587" id="Shape"></path>
                        <path d="M50.1563862,47.7826718 L50.1563862,43.1497068 C49.453568,43.2012933 48.7121511,43.5378343 48.1492532,44.2268834 L48.3245557,44.2195139 C49.6787272,44.2195139 50.1386951,45.625862 50.1065295,47.0727424 C50.103313,47.3196209 50.0840136,47.554217 50.0598894,47.7839 L50.1563862,47.7839" id="Shape"></path>
                        <path d="M31.2816653,41.8086711 C31.6976954,42.0633983 32.2109176,41.7644371 32.74666,41.8544305 C32.6423561,41.5554693 32.5273849,41.338875 32.5925748,40.9072117 C32.7253251,40.0698153 32.2109176,39.8577969 31.9643813,39.8791513 C31.3563374,39.9279613 31.0126089,40.0957456 30.3773038,39.8791513 C30.8134834,40.4343649 30.7020679,41.4486975 31.2816653,41.8086711" id="Shape"></path>
                        <path d="M26.00484,46.5212574 C26.2158182,44.5904459 25.9218711,44.4356862 25.3861287,43.9800049 C24.9203173,43.5857361 24.1510766,43.4604544 23.3865769,42.911426 C22.8377966,42.5196137 22.6848967,41.9484767 21.9891427,41.188189 C22.1266341,39.5595274 23.2490855,37.5746728 24.0764045,37.1239045 C24.1984874,37.0588071 24.1581882,34.5384348 24.1581882,34.5384348 C24.1581882,34.5384348 24.7057833,34.5150981 24.6536314,34.4794788 C23.9128371,34.0127432 23.0203283,34.3652514 22.3731705,35.1513324 C21.7437917,35.6721111 20.3107994,36.6706796 19.3270247,37.0195031 C17.9841129,35.8489793 15.8980364,34.8197045 14.3773341,33.2315752 C14.3773341,33.2315752 16.3958501,33.2131514 17.3274729,32.8176544 C17.5751945,32.6616664 18.2211671,31.5930875 17.958037,30.5736387 C17.6439402,30.4569548 17.1935373,30.2125327 16.7502461,29.9558281 C16.1967246,29.6291132 15.6633528,29.2778333 15.414446,29.0825413 C14.5337898,28.3934921 14.1817644,27.7941053 12.6634326,27.3986083 C12.7629953,26.6763964 12.9111542,26.8446669 13.5820174,26.3779313 C14.4306712,25.781001 14.9047795,25.0686151 15.2473228,24.3623704 C15.5116382,23.8084289 15.2129499,22.6710679 14.5266782,24.1142636 C14.2908093,24.623988 13.6270577,25.3081241 12.8791518,25.5144704 C12.9372301,25.0686151 12.9621208,24.8119105 12.9621208,24.5650319 C15.1773918,22.9425115 14.9628578,21.5115984 14.7921788,20.1678912 C14.6973572,19.3891797 13.9470808,19.0612365 13.9802684,19.8767956 C14.0016032,20.4086285 14.4614883,21.929204 12.9431565,22.8233711 C12.9099689,22.1515175 12.7321783,21.8395416 12.5946869,21.4968594 C13.9470808,19.6532538 13.3805214,17.8710607 12.8115914,17.0604147 C12.4500838,16.5420925 11.557575,16.3603112 11.960567,17.1832398 C12.2948134,17.8526369 12.8258147,19.6778188 11.829002,20.4282805 C11.4805324,19.9787404 11.0810961,19.8031005 10.9459753,19.2012572 C11.045538,17.1979788 10.9234551,15.9721837 10.6781041,15.2622543 C10.4446057,14.5940855 9.83063551,14.1789364 9.88397269,15.1627659 C9.93493933,16.2755619 10.029761,17.6794535 9.93019825,17.7654311 C9.83063551,17.8514087 8.39882845,16.4733104 7.81686052,16.0593896 C7.22541042,15.6380993 6.53084177,15.797772 7.21592826,16.6256136 C7.81804579,17.355195 9.64928908,18.7504888 9.41342021,19.2000289 C9.26881718,19.4825268 7.95790774,18.3660461 7.28348869,18.126537 C6.59958747,17.8845715 6.38623874,18.2567317 6.96465086,18.7504888 C7.89627366,19.5427111 8.5185408,20.0610333 10.0451695,20.5977792 C11.5789098,21.1296122 12.3445947,23.330639 11.8621896,26.4626806 C11.8432252,26.6076143 11.5789098,26.586734 11.4283805,26.5339192 C11.3572642,25.3412869 11.1569535,23.9005478 10.8796001,23.2729112 C10.5145367,22.4426131 9.7986332,22.4254176 10.0641338,23.5492678 C10.275112,24.438522 10.3960096,25.3941017 10.2454803,26.5879623 C8.98079639,26.3644205 8.4983912,26.0168253 7.96857517,25.6901104 C7.91405272,25.0796693 8.21629676,24.087242 8.26844867,23.1869336 C8.31348896,22.3075055 7.81804579,21.7523357 7.53358081,22.8577622 C7.26096854,23.9189716 7.0843632,24.4299242 6.91486949,25.190212 C6.5498061,25.0673868 6.16814892,24.8929751 5.99035831,24.6890853 L5.89790719,22.5285908 C5.80545608,21.5521307 5.44750431,21.5816088 5.16896569,22.4426131 C5.03621537,22.8381102 4.93546736,23.3601171 4.89990923,24.0000362 C4.45306216,23.7199948 4.15437394,23.1857054 4.10103676,22.754589 C4.16622665,21.7351402 4.33572036,20.6530506 4.45306216,19.9775122 C4.53721639,19.4923528 4.21956383,18.5085233 3.84975936,19.6986991 C3.58662925,20.5535622 3.51669828,21.2696329 3.35194565,21.8727044 C3.03073728,21.8505959 2.60759562,19.9050453 2.38832054,18.6645112 C2.28994307,18.097059 1.83598437,17.4559117 1.75301542,18.7111848 C1.66293485,20.0991091 1.93910293,21.4944029 2.27216401,22.11467 C1.62145037,22.0458879 1.00273904,20.8348318 0.552336164,20.1298154 C0.155270467,19.4984941 -0.0355581222,20.1568369 0.00474108295,20.406172 C0.391139344,22.8737295 2.29112834,23.7531576 3.15519071,23.9263411 C4.48743502,25.9099674 7.03221129,26.757461 9.18229241,27.7253233 C6.38623874,27.689704 5.65374142,28.861456 4.37009321,28.0987117 C4.42817148,29.1930839 4.9496906,29.6991236 5.45580121,29.9533716 C5.81730878,30.1277834 6.16933419,30.1781417 6.33408683,30.208848 C6.56521462,31.536588 7.78485821,31.4665776 8.81722902,31.536588 C8.55054311,34.1269706 8.85160188,37.5451948 11.0467233,40.0962733 C10.9827187,41.408046 10.8950086,43.1300548 10.9151582,44.2723287 C9.11473198,45.9992505 7.51580175,49.6238209 6.88523772,51.6246428 C6.4123147,53.1218815 5.69996698,54.2850357 4.60240628,54.8365207 C5.50439731,55.8178937 6.83427108,55.3339626 7.60114125,54.7824776 C7.65210789,55.6619058 7.85123337,56.2846293 7.98398369,56.805408 C7.46957619,57.5939455 7.1211066,58.1454305 7.16614688,59.1157493 C6.58536422,59.285248 6.18592798,59.6524952 5.87064597,60.0639595 C5.67270575,60.3194358 5.90146301,61.5120681 6.12310864,62.0119665 C6.83901216,63.6762474 6.28074964,67.4260996 6.1527404,68.5376672 C6.45498444,68.5536345 7.00376479,68.5732865 7.11992133,68.1053227 C7.2953414,68.2785062 7.7327063,68.6101341 7.93538759,69.327433 C7.88442095,69.6394089 7.71611251,70.7902807 8.28622773,70.9352144 C8.75085386,71.055583 10.7658141,70.9880292 11.0325,70.6293797 C10.831004,70.3849576 10.4789786,69.8322444 10.2668151,69.2795312 C10.2668151,68.7133072 10.2170338,68.0218016 10.0653191,67.7294777 C9.83300605,67.3094157 9.24985284,66.3476947 8.88123364,65.9644802 C8.80300577,65.2729745 8.7330748,62.219541 9.04598628,61.042876 C9.56513486,60.6707158 13.1114649,57.942769 13.847518,55.3339626 C14.4970464,55.5624174 14.2979209,57.3802298 14.2979209,59.7421576 C14.2979209,60.3759354 15.0410857,60.6952808 15.4843769,60.7542369 C16.4420757,60.8746055 17.8110634,61.8228158 19.3400626,64.1724611 C19.6411214,63.8396049 20.0239639,63.5313137 20.0239639,63.5313137 C20.2230893,63.8076704 20.4565877,64.4819805 20.5905233,64.9155533 C20.7564612,65.2398117 21.990328,65.431419 22.9397299,65.1354103 C23.2538266,65.0211829 23.4363583,64.9671399 23.6402249,64.6195447 C22.4395456,62.4492241 21.7165305,61.008485 20.1756785,59.8060267 C19.4585897,59.2496287 18.5091879,58.9732721 17.7079448,58.4438956 C18.2425019,57.4047948 19.7098671,52.5421467 18.8220993,50.7611819 C18.5245964,50.1765342 17.4092566,49.5894299 16.0497511,49.8461345 C17.1864257,48.4336451 19.4929626,45.6344598 19.7952066,44.7759119 C20.059522,45.1050833 21.4225833,44.8778568 22.4336193,45.2856363 C22.804609,45.4416243 23.8393504,46.8295486 23.8879465,47.3061102 C23.9792123,48.1671145 24.0230673,49.1877916 23.4446552,51.5398934 C23.8488325,51.4723396 23.7871985,51.4526876 24.18782,51.2831888 C24.2565657,51.9120537 24.0716634,52.4008978 23.5394769,53.349108 C23.6710419,54.1953734 24.0372906,55.5071461 24.4248741,55.7491116 C24.9380963,54.1646671 26.8392706,51.9108254 26.7871187,50.5953679 C26.718373,48.8094901 25.9159447,47.2938277 26.0072105,46.5163444" id="Shape"></path>
                        <path d="M99.3221321,36.3292257 C98.9606245,35.1353651 97.7433515,33.328607 95.3088054,33.328607 C93.762027,33.328607 92.4131889,34.1466226 91.7553637,35.4092652 C90.9659734,36.9421232 90.6044658,39.0240097 90.6044658,41.8858359 C90.6044658,45.9795985 91.2611058,48.5368183 92.6443167,49.5599519 C93.3673319,50.1040673 94.2906578,50.3767392 95.3763658,50.3767392 C98.5671146,50.3767392 99.917138,47.8526821 99.917138,41.8170538 C99.917138,39.3973982 99.7191978,37.6581939 99.3245026,36.3292257 L99.3221321,36.3292257 Z M106.397013,57.6737819 C106.397013,57.6737819 105.739188,58.0815614 104.355977,58.0815614 C102.579256,58.0815614 100.99929,56.9921023 100.14471,56.409911 C99.059002,55.6606775 97.2822811,54.6056094 95.5055603,54.0246464 C92.0836837,54.0246464 89.8458925,53.0383604 88.101174,50.6838021 C86.358826,48.3648631 85.469873,45.3630162 85.469873,41.8846076 C85.469873,36.7713962 87.343786,32.6456991 90.6340976,30.80455 C91.9841209,30.0553165 93.661279,29.6450805 95.37281,29.6450805 C101.46036,29.6450805 105.210557,34.2485675 105.210557,41.6819461 C105.210557,46.8295486 103.433836,50.6838021 100.701787,52.5605705 C101.32761,52.7976231 102.215378,53.4117489 102.742823,53.7556593 C103.565401,54.2641555 104.551547,54.7419453 105.572065,54.7419453 C106.56058,54.7419453 107.613101,54.5724466 107.613101,54.5724466 L106.395828,57.6750101 L106.397013,57.6737819 Z" id="Shape"></path>
                        <path d="M120.146154,54.1265913 C119.586706,53.7188118 119.126821,53.1403053 118.830503,52.4230063 C117.744795,53.5112372 116.164829,54.0934285 114.388108,54.0934285 C112.017567,54.0934285 109.977716,52.933959 109.419453,51.2623086 C109.156323,50.478684 109.056761,49.5587236 109.056761,47.7863566 L109.056761,36.6006693 L113.400778,35.7494909 L113.400778,46.9658845 C113.400778,48.53559 113.532343,49.3548338 113.762285,49.8301672 C113.992228,50.3104136 114.651239,50.649411 115.309064,50.649411 C116.394772,50.649411 117.711608,49.8301672 118.039928,48.9777606 L118.039928,36.7038424 L122.251195,35.7826537 L122.251195,49.1128683 C122.251195,50.273566 122.612702,51.4674266 123.271713,52.2842139 L120.146154,54.125363" id="Shape"></path>
                        <path d="M136.199461,42.8070246 C136.199461,41.5136757 136.067896,40.8307678 135.6732,40.1822509 C135.246503,39.499343 134.619495,39.1591173 133.731727,39.1591173 C132.054569,39.1591173 131.100426,40.5224766 131.100426,42.9445888 L131.100426,43.0133709 L136.200646,43.0133709 L136.200646,42.8070246 L136.199461,42.8070246 Z M131.034051,46.3542152 L131.034051,46.4917794 C131.034051,49.1828786 132.317699,50.7194214 134.587492,50.7194214 C136.101083,50.7194214 137.516296,50.1409149 138.863949,48.9789889 L140.57548,51.7093921 C138.635192,53.344195 136.594156,54.1278195 134.225985,54.1278195 C129.38771,54.1278195 126.262151,50.5818572 126.262151,45.0952573 C126.262151,41.9570745 126.887974,39.8764163 128.368377,38.1716031 C129.749217,36.5687347 131.428746,35.8195013 133.666537,35.8195013 C135.606825,35.8195013 137.449921,36.5024091 138.534444,37.6606504 C140.081222,39.2979098 140.77342,41.6500116 140.77342,45.2979188 L140.77342,46.3554434 L131.034051,46.3554434 L131.034051,46.3542152 Z" id="Shape"></path>
                        <path d="M153.242469,42.8070246 C153.242469,41.5136757 153.110903,40.8307678 152.715023,40.1822509 C152.288326,39.499343 151.661317,39.1591173 150.774735,39.1591173 C149.096391,39.1591173 148.142249,40.5224766 148.142249,42.9445888 L148.142249,43.0133709 L153.242469,43.0133709 L153.242469,42.8070246 Z M148.075873,46.3542152 L148.075873,46.4917794 C148.075873,49.1828786 149.358336,50.7194214 151.6305,50.7194214 C153.142906,50.7194214 154.558119,50.1409149 155.905772,48.9789889 L157.618488,51.7093921 C155.675829,53.344195 153.635978,54.1278195 151.268993,54.1278195 C146.429532,54.1278195 143.306344,50.5818572 143.306344,45.0952573 C143.306344,41.9570745 143.929796,39.8764163 145.411385,38.1716031 C146.792225,36.5687347 148.470569,35.8195013 150.709545,35.8195013 C152.649833,35.8195013 154.491744,36.5024091 155.577452,37.6606504 C157.12423,39.2979098 157.816428,41.6500116 157.816428,45.2979188 L157.816428,46.3554434 L148.077059,46.3554434 L148.075873,46.3542152 Z" id="Shape"></path>
                        <path d="M170.283106,53.6500297 L170.283106,42.2960719 C170.283106,40.3185869 169.952415,39.7388521 168.802703,39.7388521 C167.91375,39.7388521 166.761667,40.3517496 165.739963,41.3061011 L165.739963,53.6488014 L161.331941,53.6488014 L161.331941,40.99781 C161.331941,39.4981148 161.132816,38.0659734 160.739306,36.9065039 L164.65544,35.7482627 C165.050136,36.4655616 165.280078,37.2135668 165.280078,37.9296375 C165.936718,37.4518476 166.498536,37.0440681 167.220366,36.6338321 C168.109319,36.1572705 169.259032,35.8833703 170.247548,35.8833703 C172.125017,35.8833703 173.767802,36.9065039 174.295247,38.4061991 C174.52519,39.054716 174.624753,39.8039494 174.624753,40.8958651 L174.624753,53.6475732 L170.281921,53.6475732" id="Shape"></path>
                        <path d="M184.623697,54.1941451 C182.551843,54.1941451 180.28205,53.5124655 177.814316,52.1834973 L179.394282,48.8426529 C180.741935,49.6938313 183.079289,50.8189097 184.987575,50.8189097 C186.238035,50.8189097 187.224181,49.9677314 187.224181,48.8426529 C187.224181,47.6475641 186.402788,47.0346666 184.623697,46.6944409 L182.650221,46.3185959 C181.531325,46.1134779 180.150485,45.2954623 179.557849,44.5462288 C178.965214,43.7957671 178.603707,42.5331245 178.603707,41.4105025 C178.603707,37.9996478 181.20182,35.7138716 185.116769,35.7138716 C187.818001,35.7138716 189.593537,36.5662782 191.140315,37.351131 L189.689544,40.4193035 C188.012386,39.5325058 186.796298,39.1578891 185.543467,39.1578891 C184.259818,39.1578891 183.405238,39.8395687 183.405238,40.8627023 C183.405238,41.7482717 183.964686,42.2272898 185.51265,42.6338411 L187.551315,43.1804131 C189.624354,43.726985 190.316552,44.3767301 190.906817,45.1591264 C191.531454,45.977142 191.830143,46.9646562 191.830143,48.125354 C191.830143,51.7400984 188.933341,54.1929169 184.622511,54.1929169" id="Shape"></path>
                        <path d="M199.654115,54.0590374 C197.776646,54.0590374 196.264241,53.139077 195.736795,51.6737729 C195.40729,50.7857469 195.3421,50.2428597 195.3421,47.7519655 L195.3421,34.7263573 C195.3421,32.4418094 195.27691,31.0440591 195.110972,29.4755818 L199.618557,28.4180572 C199.784495,29.3724086 199.85087,30.4987154 199.85087,32.952762 L199.85087,46.5593332 C199.85087,49.5587236 199.884057,49.9677314 200.147187,50.444293 C200.310755,50.7525842 200.672262,50.9245394 201.034955,50.9245394 C201.200893,50.9245394 201.299271,50.9245394 201.526843,50.8569855 L202.285416,53.5824758 C201.526843,53.8895387 200.607072,54.0590374 199.654115,54.0590374" id="Shape"></path>
                        <path d="M212.481115,46.0127612 C209.41956,46.0127612 208.368225,46.5937243 208.368225,48.6743825 C208.368225,50.0377417 209.190803,50.9577022 210.307328,50.9577022 C211.131091,50.9577022 211.954855,50.5130751 212.61268,49.7626134 L212.67787,46.0127612 L212.481115,46.0127612 L212.481115,46.0127612 Z M216.231311,54.5392838 C215.211979,54.0934285 214.291023,53.309804 213.86314,52.4230063 C213.533635,52.7620038 213.172128,53.1059142 212.842622,53.3429668 C212.020044,53.9570926 210.834774,54.2997748 209.453933,54.2997748 C205.702551,54.2997748 203.6627,52.3222897 203.6627,48.8438812 C203.6627,44.7501186 206.393564,42.8438721 211.7581,42.8438721 C212.085234,42.8438721 212.381552,42.8438721 212.74306,42.8770349 L212.74306,42.1609642 C212.74306,40.2154137 212.381552,39.5681251 210.769584,39.5681251 C209.354371,39.5681251 207.708029,40.2829676 205.899306,41.5456102 L204.023023,38.2710914 C204.911976,37.6913567 205.569801,37.3499028 206.755072,36.8401783 C208.399042,36.1241077 209.814256,35.8158165 211.359849,35.8158165 C214.19146,35.8158165 216.131749,36.9065039 216.789574,38.8508262 C217.020702,39.5681251 217.120264,40.1122406 217.085892,41.9877808 L216.986329,47.8526821 C216.953141,49.7613851 217.085892,50.5806289 218.566295,51.7413267 L216.230126,54.5392838 L216.231311,54.5392838 Z" id="Shape"></path>
                        <path d="M231.003341,53.6500297 L231.003341,42.2960719 C231.003341,40.3185869 230.67028,39.7388521 229.521752,39.7388521 C228.632799,39.7388521 227.481901,40.3517496 226.459013,41.3061011 L226.459013,53.6488014 L222.050991,53.6488014 L222.050991,40.99781 C222.050991,39.4981148 221.854236,38.0659734 221.458355,36.9065039 L225.375675,35.7482627 C225.768,36.4655616 226.000313,37.2135668 226.000313,37.9296375 C226.656953,37.4518476 227.216401,37.0440681 227.940601,36.6338321 C228.829554,36.1572705 229.979267,35.8833703 230.968968,35.8833703 C232.842881,35.8833703 234.489222,36.9065039 235.014297,38.4061991 C235.245425,39.054716 235.344987,39.8039494 235.344987,40.8958651 L235.344987,53.6475732 L231.002155,53.6475732" id="Shape"></path>
                        <path d="M249.492379,40.7951485 C248.669801,40.0446867 247.879225,39.67007 247.087465,39.67007 C245.112803,39.67007 244.259409,41.3748832 244.259409,45.2622995 C244.259409,49.0121516 245.014426,50.2416315 247.320963,50.2416315 C248.144726,50.2416315 249.063311,49.6594402 249.493564,49.1140965 L249.493564,40.7951485 L249.492379,40.7951485 Z M250.479709,53.6500297 C250.34933,53.3773578 250.28414,53.1059142 250.215394,52.6268961 C249.129686,53.6168669 247.844853,54.0934285 246.332447,54.0934285 C242.054805,54.0934285 239.357129,50.649411 239.357129,45.2291367 C239.357129,39.7732431 242.283562,36.0209345 246.563575,36.0209345 C247.779663,36.0209345 248.736176,36.3292257 249.558754,37.0096771 C249.492379,36.6350603 249.427189,35.442428 249.427189,34.4180662 L249.427189,28.4168289 L253.803209,29.1341278 L253.803209,47.2754039 C253.803209,51.571828 254.129158,52.96835 254.426661,53.6500297 L250.478524,53.6500297 L250.479709,53.6500297 Z" id="Shape"></path>
                        <path d="M274.526482,54.0246464 C271.696056,54.0246464 269.293512,53.0015128 267.581981,51.0940381 C265.67251,48.9445978 264.785927,46.045924 264.785927,42.0234001 C264.785927,37.556249 265.939196,34.3849034 268.271808,32.2023003 C269.883777,30.7026051 271.826435,29.9865344 274.162604,29.9865344 C276.565148,29.9865344 278.638186,30.770159 280.348532,32.3054734 L279.130074,34.0446777 C277.288163,32.7488723 275.972512,32.2366914 274.228979,32.2366914 C271.596493,32.2366914 269.523454,33.4981057 268.602499,36.1928897 C268.013419,37.932094 267.712361,39.9095791 267.712361,42.1278015 C267.712361,45.1959739 268.271808,47.6831834 269.293512,49.2184979 C270.31403,50.7525842 272.617011,51.7093921 274.754054,51.7093921 C276.166897,51.7093921 277.388911,51.401101 278.341869,50.7869752 L278.341869,43.6618877 L273.801096,43.6618877 L273.273651,41.3417204 L280.875977,41.3417204 L280.875977,52.2535076 C279.264009,53.344195 276.828278,54.0258747 274.526482,54.0258747" id="Shape"></path>
                        <path d="M294.921436,40.5224766 C294.229238,39.0227814 292.782022,38.3411018 291.431999,38.3411018 C289.985968,38.3411018 288.63476,39.0571725 288.077682,40.1822509 C287.551422,41.2385473 287.287107,42.6019066 287.287107,44.6137827 C287.287107,46.9990473 287.684173,49.1128683 288.309996,50.1740777 C288.901446,51.195983 290.218281,51.8776626 291.632309,51.8776626 C293.34384,51.8776626 294.627489,50.9564739 295.185751,49.3192145 C295.548444,48.2629182 295.678824,47.3085667 295.678824,45.6369163 C295.678824,43.2491952 295.450066,41.6475551 294.923806,40.5224766 L294.921436,40.5224766 Z M291.565934,54.0934285 C287.057164,54.0934285 284.489868,50.649411 284.489868,45.0584098 C284.489868,39.5337341 287.155542,36.1572705 291.466371,36.1572705 C294.197235,36.1572705 295.976327,37.4530759 297.091666,39.1234981 C298.114555,40.6588125 298.607628,42.6706887 298.607628,45.4317982 C298.607628,51.0928098 295.676453,54.0934285 291.565934,54.0934285 L291.565934,54.0934285 Z" id="Shape"></path>
                        <path d="M308.015122,53.8219849 L305.479827,53.8219849 L299.590217,36.8057873 L302.222703,36.2260525 L306.039275,47.920236 C306.501531,49.3192145 306.82748,50.8176815 306.82748,50.8176815 L306.896226,50.8176815 C306.896226,50.8176815 307.160541,49.4899415 307.685616,47.954627 L311.436998,36.6682231 L314.169047,36.6682231 L308.015122,53.8207566" id="Shape"></path>
                        <path d="M325.183768,39.8064059 C324.62195,38.8852172 323.469867,38.307939 322.220591,38.307939 C319.884423,38.307939 318.568772,40.080306 318.437207,43.5931056 L325.941156,43.5931056 C325.907969,41.7507282 325.67447,40.6244215 325.183768,39.8064059 Z M318.437207,45.6037535 L318.437207,46.0127612 C318.437207,47.6144013 318.633962,48.8438812 319.192225,49.7294506 C320.116736,51.195983 321.627956,51.8088805 323.274297,51.8088805 C324.854263,51.8088805 326.136726,51.2966996 327.289994,50.2072404 L328.274954,51.9108254 C326.828924,53.2754129 324.854263,54.0246464 322.746852,54.0246464 C318.207265,54.0246464 315.476401,50.6137917 315.476401,44.9896277 C315.476401,42.1278015 316.069036,40.2841958 317.449877,38.5793826 C318.765527,36.9765143 320.378681,36.2272808 322.350971,36.2272808 C324.128877,36.2272808 325.67447,36.8757976 326.794551,38.0672017 C328.209764,39.5693534 328.670835,41.1697652 328.670835,45.2291367 L328.670835,45.6037535 L318.437207,45.6037535 L318.437207,45.6037535 Z" id="Shape"></path>
                        <path d="M339.427167,39.2278994 C339.261229,39.1591173 338.967282,39.0903353 338.702966,39.0903353 C337.715636,39.0903353 336.728305,39.5337341 335.972102,40.3185869 C335.214714,41.1034396 335.016774,41.6143923 335.016774,43.0133709 L335.016774,53.6500297 L332.451848,53.6500297 L332.451848,40.5568677 C332.451848,38.0672017 331.893586,36.9421232 331.893586,36.9421232 L334.457326,36.2260525 C334.457326,36.2260525 335.081964,37.556249 334.985957,38.9871621 C336.170043,37.2491861 337.912391,36.1584987 339.59429,36.1584987 C340.019802,36.1584987 340.482058,36.3292257 340.482058,36.3292257 L339.428352,39.2278994" id="Shape"></path>
                        <path d="M351.403142,53.6500297 L351.403142,42.1609642 C351.403142,40.3517496 351.271577,39.9083508 350.809322,39.3286161 C350.447814,38.8852172 349.755616,38.6125454 349.000598,38.6125454 C347.683763,38.6125454 345.645097,39.7032328 344.459826,40.99781 L344.459826,53.6488014 L341.96009,53.6488014 L341.96009,40.5556394 C341.96009,38.1347555 341.333082,36.975286 341.333082,36.975286 L343.832818,36.2579871 C343.832818,36.2579871 344.426639,37.5194015 344.426639,38.91838 C346.13817,37.1447847 347.849701,36.2923781 349.589678,36.2923781 C351.368769,36.2923781 352.948735,37.2811207 353.606561,38.7808159 C353.870876,39.3949417 354.002441,40.0778495 354.002441,40.7595292 L354.002441,53.6475732 L351.404327,53.6475732" id="Shape"></path>
                        <path d="M376.930318,53.6500297 L376.930318,41.1034396 C376.930318,39.4661802 376.207303,38.6137736 374.825277,38.6137736 C373.344874,38.6137736 372.193976,39.6025162 370.483631,41.2397756 L370.483631,53.6500297 L367.885517,53.6500297 L367.885517,41.5800012 C367.885517,40.5568677 367.783584,39.8739598 367.422076,39.3973982 C367.029752,38.9196083 366.502306,38.7157185 365.746103,38.7157185 C364.495643,38.7157185 363.274814,39.3630071 361.566839,40.9646472 L361.566839,53.6488014 L359.096735,53.6488014 L359.096735,40.4880856 C359.096735,38.0315824 358.507655,36.8733411 358.507655,36.8733411 L361.007391,36.2592153 C361.007391,36.2592153 361.601212,37.5894118 361.601212,38.7820441 C362.684549,37.5206297 364.690027,36.2248243 366.368371,36.2248243 C367.983895,36.2248243 369.593492,37.2479579 370.186128,39.0559442 C371.766093,37.31674 373.771572,36.2248243 375.449915,36.2248243 C377.885646,36.2248243 379.56399,38.1347555 379.56399,40.8283113 L379.56399,53.6475732 L376.929133,53.6475732" id="Shape"></path>
                        <path d="M393.379505,39.8064059 C392.820058,38.8852172 391.667974,38.307939 390.418699,38.307939 C388.078975,38.307939 386.764509,40.080306 386.631759,43.5931056 L394.134523,43.5931056 C394.103706,41.7507282 393.872578,40.6244215 393.379505,39.8064059 Z M386.632944,45.6037535 L386.632944,46.0127612 C386.632944,47.6144013 386.83207,48.8438812 387.390332,49.7294506 C388.314844,51.195983 389.826064,51.8088805 391.470034,51.8088805 C393.051185,51.8088805 394.332463,51.2966996 395.486917,50.2072404 L396.471877,51.9108254 C395.023476,53.2754129 393.051185,54.0246464 390.943774,54.0246464 C386.404187,54.0246464 383.672138,50.6137917 383.672138,44.9896277 C383.672138,42.1278015 384.264773,40.2841958 385.646799,38.5793826 C386.963635,36.9765143 388.575603,36.2272808 390.551449,36.2272808 C392.32817,36.2272808 393.873763,36.8757976 394.991474,38.0672017 C396.406687,39.5693534 396.867757,41.1697652 396.867757,45.2291367 L396.867757,45.6037535 L386.632944,45.6037535 L386.632944,45.6037535 Z" id="Shape"></path>
                        <path d="M410.091823,53.6500297 L410.091823,42.1609642 C410.091823,40.3517496 409.960258,39.9083508 409.499187,39.3286161 C409.13768,38.8852172 408.449038,38.6125454 407.69165,38.6125454 C406.374814,38.6125454 404.332592,39.7032328 403.147322,40.99781 L403.147322,53.6488014 L400.649956,53.6488014 L400.649956,40.5556394 C400.649956,38.1347555 400.025318,36.975286 400.025318,36.975286 L402.52624,36.2579871 C402.52624,36.2579871 403.115319,37.5194015 403.115319,38.91838 C404.829221,37.1447847 406.539566,36.2923781 408.281914,36.2923781 C410.059821,36.2923781 411.639786,37.2811207 412.295241,38.7808159 C412.561927,39.3949417 412.692307,40.0778495 412.692307,40.7595292 L412.692307,53.6475732 L410.091823,53.6475732" id="Shape"></path>
                        <path d="M423.744956,38.6825557 L420.321895,38.6825557 L420.321895,49.6275057 C420.321895,51.5018176 420.813782,52.1515627 422.426935,52.1515627 C423.149951,52.1515627 423.577833,52.0483896 424.037718,51.8101088 L424.401596,53.5136937 C423.577833,53.9583208 422.654507,54.1953734 421.504795,54.1953734 C420.646659,54.1953734 419.988833,54.0258747 419.366566,53.72004 C418.213298,53.1415335 417.78423,52.0483896 417.78423,50.3448046 L417.78423,38.6825557 L415.646001,38.6825557 L415.646001,36.6706796 L417.78423,36.6706796 C417.78423,35.0334202 418.048545,32.3742555 418.048545,32.3742555 L420.747407,31.761358 C420.747407,31.761358 420.417901,34.4192944 420.417901,36.6719079 L424.530791,36.6719079 L423.742586,38.683784" id="Shape"></path>
                    </g>
                </g>
            </g>
        </g>
    </g>
</svg>