<?xml version="1.0" encoding="UTF-8"?>
<svg width="98px" height="61px" viewBox="0 0 98 61" version="1.1" xmlns="http://www.w3.org/2000/svg" xmlns:xlink="http://www.w3.org/1999/xlink">
    <!-- Generator: Sketch 54.1 (76490) - https://sketchapp.com -->
    <title>Qld-CoA-Stylised-1L-mono</title>
    <desc>Created with Sketch.</desc>
    <g id="Deliverables-11-📱(Andrew-Morrison,-Ellie-Flynn,-Jason-Beaumont)" stroke="none" stroke-width="1" fill="none" fill-rule="evenodd">
        <g id="📱-Services-results-search-(MH3)---modal-search-active-typing" transform="translate(-111.000000, -24.000000)" fill="#FFFFFF">
            <g id="Rounds-1-10-/-Qld-CoA-Stylised-1L-mono-(simplified-crest)" transform="translate(111.000000, 24.000000)">
                <g id="Qld-CoA-Stylised-1L-mono" stroke-width="1" fill-rule="evenodd" transform="translate(0.000000, 52.788462)">
                    <path d="M3.9204,2.22884615 C3.81790588,1.89921154 3.47315294,1.40182692 2.78481176,1.40182692 C2.34688235,1.40182692 1.96485882,1.62823077 1.77850588,1.97546154 C1.55488235,2.39659615 1.45355294,2.96905769 1.45355294,3.75619231 C1.45355294,4.88234615 1.63874118,5.58619231 2.03008235,5.86773077 C2.23507059,6.01671154 2.49596471,6.09178846 2.80344706,6.09178846 C3.70609412,6.09178846 4.08811765,5.3985 4.08811765,3.73859615 C4.08811765,3.07228846 4.03221176,2.59367308 3.9204,2.22884615 Z M5.92252941,8.09892308 C5.92252941,8.09892308 5.73617647,8.21153846 5.34483529,8.21153846 C4.84284706,8.21153846 4.3956,7.91123077 4.15334118,7.75169231 C3.84585882,7.54640385 3.34387059,7.25548077 2.83955294,7.09594231 C1.87168235,7.09594231 1.23808235,6.82378846 0.745411765,6.17742308 C0.251576471,5.53926923 0,4.71342308 0,3.75619231 C0,2.34967308 0.531105882,1.21413462 1.46170588,0.708538462 C1.84372941,0.502076923 2.31892941,0.389461538 2.80344706,0.389461538 C4.52604706,0.389461538 5.58709412,1.65521154 5.58709412,3.69988462 C5.58709412,5.11578846 5.08510588,6.17742308 4.31174118,6.69240385 C4.48877647,6.75809615 4.74035294,6.92701923 4.88943529,7.02086538 C5.12121176,7.16163462 5.40074118,7.29301923 5.68958824,7.29301923 C5.96911765,7.29301923 6.26728235,7.24609615 6.26728235,7.24609615 L5.92252941,8.09892308 L5.92252941,8.09892308 Z" id="Fill-35"></path>
                    <path d="M9.81963529,7.12409615 C9.66007059,7.01148077 9.53078824,6.85194231 9.44692941,6.65486538 C9.13944706,6.95517308 8.6922,7.11353846 8.18904706,7.11353846 C7.51934118,7.11353846 6.94164706,6.79563462 6.78324706,6.33578846 C6.70870588,6.12111538 6.68075294,5.86773077 6.68075294,5.37973077 L6.68075294,2.30275 L7.91068235,2.06930769 L7.91068235,5.1545 C7.91068235,5.58619231 7.94678824,5.81025 8.01201176,5.94280769 C8.0784,6.07419231 8.26358824,6.16803846 8.44994118,6.16803846 C8.75742353,6.16803846 9.13012941,5.94280769 9.22330588,5.70701923 L9.22330588,2.33090385 L10.4148,2.07751923 L10.4148,5.74455769 C10.4148,6.06363462 10.5172941,6.39209615 10.7036471,6.61732692 L9.81963529,7.12409615" id="Fill-36"></path>
                    <path d="M14.3666471,4.00957692 C14.3666471,3.65296154 14.3293765,3.46644231 14.2175647,3.28813462 C14.0964353,3.10044231 13.9194,3.00659615 13.6678235,3.00659615 C13.1926235,3.00659615 12.9224118,3.38198077 12.9224118,4.04711538 L12.9224118,4.06705769 L14.3666471,4.06705769 L14.3666471,4.00957692 Z M12.9037765,4.98557692 L12.9037765,5.02311538 C12.9037765,5.76332692 13.2671647,6.18680769 13.9100824,6.18680769 C14.3386941,6.18680769 14.7381882,6.02726923 15.1202118,5.70701923 L15.6047294,6.45778846 C15.0549882,6.90825 14.4784588,7.12409615 13.8075882,7.12409615 C12.4390588,7.12409615 11.5538824,6.14809615 11.5538824,4.63834615 C11.5538824,3.77613462 11.7309176,3.20367308 12.1502118,2.73444231 C12.5415529,2.29336538 13.0155882,2.08690385 13.6491882,2.08690385 C14.1989294,2.08690385 14.7195529,2.27459615 15.0270353,2.59367308 C15.4649647,3.04413462 15.6606353,3.69167308 15.6606353,4.69465385 L15.6606353,4.98557692 L12.9037765,4.98557692 L12.9037765,4.98557692 Z" id="Fill-37"></path>
                    <path d="M19.1931882,4.00957692 C19.1931882,3.65296154 19.1559176,3.46644231 19.0441059,3.28813462 C18.9229765,3.10044231 18.7459412,3.00659615 18.4943647,3.00659615 C18.0191647,3.00659615 17.7489529,3.38198077 17.7489529,4.04711538 L17.7489529,4.06705769 L19.1931882,4.06705769 L19.1931882,4.00957692 Z M17.7303176,4.98557692 L17.7303176,5.02311538 C17.7303176,5.76332692 18.0937059,6.18680769 18.7366235,6.18680769 C19.1652353,6.18680769 19.5647294,6.02726923 19.9479176,5.70701923 L20.4312706,6.45778846 C19.8815294,6.90825 19.305,7.12409615 18.6341294,7.12409615 C17.2656,7.12409615 16.3804235,6.14809615 16.3804235,4.63834615 C16.3804235,3.77613462 16.5574588,3.20367308 16.9767529,2.73444231 C17.3680941,2.29336538 17.8421294,2.08690385 18.4757294,2.08690385 C19.0254706,2.08690385 19.5472588,2.27459615 19.8535765,2.59367308 C20.2915059,3.04413462 20.4871765,3.69167308 20.4871765,4.69465385 L20.4871765,4.98557692 L17.7303176,4.98557692 L17.7303176,4.98557692 Z" id="Fill-38"></path>
                    <path d="M24.0185647,6.99271154 L24.0185647,3.86998077 C24.0185647,3.32567308 23.9253882,3.16613462 23.5992706,3.16613462 C23.3476941,3.16613462 23.0227412,3.33505769 22.7338941,3.59665385 L22.7338941,6.99271154 L21.4853294,6.99271154 L21.4853294,3.51219231 C21.4853294,3.10044231 21.4294235,2.70628846 21.3176118,2.38721154 L22.4264118,2.06930769 C22.5382235,2.26638462 22.6034471,2.47284615 22.6034471,2.66875 C22.7898,2.53736538 22.9482,2.42475 23.1520235,2.31213462 C23.4036,2.18075 23.7308824,2.10567308 24.0092471,2.10567308 C24.5403529,2.10567308 25.0062353,2.38721154 25.1553176,2.80013462 C25.2205412,2.97844231 25.2484941,3.18490385 25.2484941,3.48521154 L25.2484941,6.99271154 L24.0185647,6.99271154" id="Fill-39"></path>
                    <path d="M28.0822235,7.14286538 C27.4952118,7.14286538 26.8522941,6.95517308 26.1546353,6.58917308 L26.6007176,5.67065385 C26.9827412,5.90409615 27.6442941,6.21378846 28.1847176,6.21378846 C28.5376235,6.21378846 28.8183176,5.98034615 28.8183176,5.67065385 C28.8183176,5.34219231 28.5842118,5.17326923 28.0822235,5.07942308 L27.5231647,4.97619231 C27.2063647,4.91988462 26.8150235,4.69465385 26.6473059,4.48819231 C26.4807529,4.28173077 26.3782588,3.9345 26.3782588,3.62598077 C26.3782588,2.68751923 27.1131882,2.05875 28.2219882,2.05875 C28.9848706,2.05875 29.4880235,2.29336538 29.9259529,2.50921154 L29.5159765,3.35265385 C29.0419412,3.10865385 28.6971882,3.00659615 28.3419529,3.00659615 C27.9797294,3.00659615 27.7374706,3.19428846 27.7374706,3.47582692 C27.7374706,3.71982692 27.8958706,3.85003846 28.3338,3.96265385 L28.9103294,4.11280769 C29.4973412,4.26296154 29.6930118,4.44126923 29.8607294,4.65711538 C30.0377647,4.88234615 30.1216235,5.1545 30.1216235,5.47357692 C30.1216235,6.46834615 29.3016706,7.14286538 28.0822235,7.14286538" id="Fill-40"></path>
                    <path d="M32.3392235,7.10532692 C31.8081176,7.10532692 31.3795059,6.85194231 31.2315882,6.44840385 C31.1372471,6.20440385 31.1186118,6.05425 31.1186118,5.37034615 L31.1186118,1.78776923 C31.1186118,1.15782692 31.1011412,0.774230769 31.0545529,0.342538462 L32.3299059,0.0516153846 C32.3764941,0.314384615 32.3951294,0.624076923 32.3951294,1.29976923 L32.3951294,5.04188462 C32.3951294,5.86773077 32.4044471,5.98034615 32.4789882,6.11055769 C32.5255765,6.19501923 32.6280706,6.24194231 32.7305647,6.24194231 C32.7771529,6.24194231 32.8051059,6.24194231 32.8703294,6.22434615 L33.0834706,6.97394231 C32.8703294,7.05840385 32.6094353,7.10532692 32.3392235,7.10532692" id="Fill-41"></path>
                    <path d="M35.9707765,4.89173077 C35.1054,4.89173077 34.8072353,5.05126923 34.8072353,5.62373077 C34.8072353,5.99794231 35.0390118,6.25132692 35.3558118,6.25132692 C35.5887529,6.25132692 35.8216941,6.1305 36.0080471,5.92403846 L36.0266824,4.89173077 L35.9707765,4.89173077 Z M37.0318235,7.23671154 C36.7441412,7.11353846 36.4832471,6.89886538 36.3621176,6.65486538 C36.2689412,6.74871154 36.1664471,6.84255769 36.0732706,6.90825 C35.8403294,7.07717308 35.5048941,7.17101923 35.1135529,7.17101923 C34.0525059,7.17101923 33.4748118,6.62788462 33.4748118,5.67065385 C33.4748118,4.5445 34.2481765,4.02013462 35.7657882,4.02013462 C35.8589647,4.02013462 35.9428235,4.02013462 36.0453176,4.02951923 L36.0453176,3.83244231 C36.0453176,3.29751923 35.9428235,3.11921154 35.4862588,3.11921154 C35.0867647,3.11921154 34.6208824,3.31511538 34.1084118,3.66234615 L33.5773059,2.76142308 C33.8288824,2.60305769 34.0152353,2.50921154 34.3506706,2.36961538 C34.8165529,2.17253846 35.2160471,2.08690385 35.6539765,2.08690385 C36.4552941,2.08690385 37.0038706,2.38721154 37.1913882,2.92213462 C37.2554471,3.11921154 37.2834,3.26936538 37.2740824,3.78551923 L37.2461294,5.3985 C37.2379765,5.92403846 37.2740824,6.14809615 37.6933765,6.46834615 L37.0318235,7.23671154 L37.0318235,7.23671154 Z" id="Fill-42"></path>
                    <path d="M41.2166118,6.99271154 L41.2166118,3.86998077 C41.2166118,3.32567308 41.1234353,3.16613462 40.7973176,3.16613462 C40.5457412,3.16613462 40.2196235,3.33505769 39.9319412,3.59665385 L39.9319412,6.99271154 L38.6833765,6.99271154 L38.6833765,3.51219231 C38.6833765,3.10044231 38.6274706,2.70628846 38.5156588,2.38721154 L39.6244588,2.06930769 C39.7362706,2.26638462 39.8003294,2.47284615 39.8003294,2.66875 C39.9878471,2.53736538 40.1450824,2.42475 40.3500706,2.31213462 C40.6016471,2.18075 40.9277647,2.10567308 41.2072941,2.10567308 C41.7372353,2.10567308 42.2031176,2.38721154 42.3522,2.80013462 C42.4174235,2.97844231 42.4453765,3.18490385 42.4453765,3.48521154 L42.4453765,6.99271154 L41.2166118,6.99271154" id="Fill-43"></path>
                    <path d="M46.4519647,3.45588462 C46.2201882,3.25059615 45.9965647,3.14736538 45.7729412,3.14736538 C45.2138824,3.14736538 44.9716235,3.61542308 44.9716235,4.68526923 C44.9716235,5.71640385 45.1859294,6.05425 45.8381647,6.05425 C46.0711059,6.05425 46.332,5.89471154 46.4519647,5.74455769 L46.4519647,3.45588462 Z M46.7326588,6.99271154 C46.6942235,6.91646154 46.6767529,6.84255769 46.6581176,6.71117308 C46.3494706,6.98332692 45.9872471,7.11353846 45.5586353,7.11353846 C44.3485059,7.11353846 43.5844588,6.16803846 43.5844588,4.67588462 C43.5844588,3.17551923 44.4125647,2.14321154 45.6238588,2.14321154 C45.9686118,2.14321154 46.2388235,2.22884615 46.4706,2.41536538 C46.4519647,2.31213462 46.4344941,1.98367308 46.4344941,1.70213462 L46.4344941,0.0516153846 L47.6725765,0.248692308 L47.6725765,5.23896154 C47.6725765,6.42142308 47.7657529,6.80501923 47.8496118,6.99271154 L46.7326588,6.99271154 L46.7326588,6.99271154 Z" id="Fill-44"></path>
                    <path d="M54.0097412,7.09594231 C53.2084235,7.09594231 52.5282353,6.81440385 52.0448824,6.28886538 C51.5044588,5.69880769 51.2528824,4.90111538 51.2528824,3.79373077 C51.2528824,2.56669231 51.579,1.69275 52.2405529,1.09330769 C52.6971176,0.680384615 53.2456941,0.483307692 53.9072471,0.483307692 C54.5874353,0.483307692 55.1744471,0.699153846 55.6578,1.12146154 L55.3142118,1.59890385 C54.7924235,1.24346154 54.4197176,1.10151923 53.9258824,1.10151923 C53.1816353,1.10151923 52.5946235,1.44875 52.3337294,2.19013462 C52.1660118,2.66875 52.0809882,3.21188462 52.0809882,3.82305769 C52.0809882,4.66767308 52.2405529,5.35157692 52.5282353,5.77388462 C52.8170824,6.19501923 53.4693176,6.45778846 54.0749647,6.45778846 C54.4756235,6.45778846 54.8203765,6.3745 55.0894235,6.20440385 L55.0894235,4.24419231 L53.8047529,4.24419231 L53.6556706,3.60603846 L55.8068824,3.60603846 L55.8068824,6.60794231 C55.3503176,6.90825 54.6608118,7.09594231 54.0097412,7.09594231" id="Fill-45"></path>
                    <path d="M60.0196235,3.38198077 C59.8239529,2.96905769 59.4139765,2.78136538 59.0319529,2.78136538 C58.6231412,2.78136538 58.2399529,2.97844231 58.0827176,3.28813462 C57.9336353,3.57905769 57.8579294,3.95326923 57.8579294,4.50696154 C57.8579294,5.16271154 57.9709059,5.74455769 58.1467765,6.03665385 C58.3144941,6.31701923 58.6872,6.50471154 59.0878588,6.50471154 C59.5723765,6.50471154 59.9346,6.25132692 60.093,5.80086538 C60.1954941,5.50994231 60.2327647,5.24834615 60.2327647,4.7885 C60.2327647,4.13157692 60.1687059,3.69167308 60.0196235,3.38198077 Z M59.0692235,7.11353846 C57.7938706,7.11353846 57.0670941,6.16803846 57.0670941,4.62896154 C57.0670941,3.10865385 57.8206588,2.18075 59.0412706,2.18075 C59.8146353,2.18075 60.3177882,2.53736538 60.6334235,2.99721154 C60.9222706,3.41951923 61.0620353,3.97321154 61.0620353,4.73219231 C61.0620353,6.28886538 60.2327647,7.11353846 59.0692235,7.11353846 L59.0692235,7.11353846 Z" id="Fill-46"></path>
                    <path d="M63.9609882,7.03963462 L63.2423647,7.03963462 L61.5768353,2.35905769 L62.3210824,2.19951923 L63.4019294,5.41609615 C63.5312118,5.80086538 63.6243882,6.21378846 63.6243882,6.21378846 L63.6441882,6.21378846 C63.6441882,6.21378846 63.7187294,5.84778846 63.8666471,5.42665385 L64.9288588,2.32151923 L65.7022235,2.32151923 L63.9609882,7.03963462" id="Fill-47"></path>
                    <path d="M69.0565765,3.18490385 C68.8970118,2.93151923 68.5720588,2.77198077 68.2179882,2.77198077 C67.5552706,2.77198077 67.1837294,3.25880769 67.1464588,4.22659615 L69.2697176,4.22659615 C69.2604,3.71982692 69.1951765,3.40896154 69.0565765,3.18490385 Z M67.1464588,4.77911538 L67.1464588,4.89173077 C67.1464588,5.33280769 67.2023647,5.67065385 67.3596,5.91348077 C67.6216588,6.31701923 68.0491059,6.48594231 68.5161529,6.48594231 C68.9622353,6.48594231 69.3256235,6.34517308 69.6517412,6.04486538 L69.9312706,6.51409615 C69.5212941,6.88948077 68.9622353,7.09594231 68.3670706,7.09594231 C67.0812353,7.09594231 66.3078706,6.15748077 66.3078706,4.61019231 C66.3078706,3.82305769 66.4767529,3.31511538 66.8680941,2.84705769 C67.2396353,2.40598077 67.6962,2.19951923 68.2540941,2.19951923 C68.7584118,2.19951923 69.1951765,2.37782692 69.5119765,2.70628846 C69.9126353,3.11921154 70.0419176,3.55911538 70.0419176,4.67588462 L70.0419176,4.77911538 L67.1464588,4.77911538 L67.1464588,4.77911538 Z" id="Fill-48"></path>
                    <path d="M73.3240588,3.02536538 C73.2774706,3.00659615 73.1924471,2.98782692 73.1190706,2.98782692 C72.8395412,2.98782692 72.5588471,3.10865385 72.3457059,3.32567308 C72.1314,3.54151923 72.0743294,3.68228846 72.0743294,4.06705769 L72.0743294,6.99271154 L71.3487176,6.99271154 L71.3487176,3.39136538 C71.3487176,2.70628846 71.1914824,2.39659615 71.1914824,2.39659615 L71.9170941,2.19951923 C71.9170941,2.19951923 72.0941294,2.56669231 72.0650118,2.9585 C72.4016118,2.48105769 72.8942824,2.18075 73.3706471,2.18075 C73.4906118,2.18075 73.6210588,2.22884615 73.6210588,2.22884615 L73.3240588,3.02536538" id="Fill-49"></path>
                    <path d="M76.9474588,6.99271154 L76.9474588,3.83244231 C76.9474588,3.33505769 76.9101882,3.21188462 76.7785765,3.05351923 C76.6772471,2.93151923 76.4804118,2.85644231 76.2672706,2.85644231 C75.8945647,2.85644231 75.3168706,3.15675 74.9814353,3.51219231 L74.9814353,6.99271154 L74.2744588,6.99271154 L74.2744588,3.39136538 C74.2744588,2.72505769 74.0974235,2.40598077 74.0974235,2.40598077 L74.8055647,2.20890385 C74.8055647,2.20890385 74.9732824,2.55613462 74.9732824,2.94090385 C75.4578,2.45290385 75.9411529,2.21946154 76.4349882,2.21946154 C76.9381412,2.21946154 77.3842235,2.49044231 77.5705765,2.90336538 C77.6451176,3.07228846 77.6823882,3.25880769 77.6823882,3.44767308 L77.6823882,6.99271154 L76.9474588,6.99271154" id="Fill-50"></path>
                    <path d="M83.9450118,6.99271154 L83.9450118,3.54151923 C83.9450118,3.09105769 83.7388588,2.85644231 83.3486824,2.85644231 C82.9293882,2.85644231 82.6021059,3.12859615 82.1187529,3.57905769 L82.1187529,6.99271154 L81.3838235,6.99271154 L81.3838235,3.67290385 C81.3838235,3.39136538 81.3547059,3.20367308 81.2522118,3.07228846 C81.1415647,2.94090385 80.9924824,2.88459615 80.7781765,2.88459615 C80.4241059,2.88459615 80.0793529,3.06173077 79.5948353,3.50280769 L79.5948353,6.99271154 L78.8971765,6.99271154 L78.8971765,3.37259615 C78.8971765,2.69690385 78.7282941,2.37782692 78.7282941,2.37782692 L79.4376,2.20890385 C79.4376,2.20890385 79.6041529,2.57490385 79.6041529,2.90336538 C79.9116353,2.55613462 80.4800118,2.19951923 80.9540471,2.19951923 C81.4106118,2.19951923 81.8671765,2.48105769 82.0348941,2.97844231 C82.4821412,2.49982692 83.0505176,2.19951923 83.5245529,2.19951923 C84.2140588,2.19951923 84.6880941,2.72505769 84.6880941,3.46644231 L84.6880941,6.99271154 L83.9450118,6.99271154" id="Fill-51"></path>
                    <path d="M88.605,3.18490385 C88.4454353,2.93151923 88.1204824,2.77198077 87.7664118,2.77198077 C87.1048588,2.77198077 86.7321529,3.25880769 86.6948824,4.22659615 L88.8181412,4.22659615 C88.8099882,3.71982692 88.7436,3.40896154 88.605,3.18490385 Z M86.6948824,4.77911538 L86.6948824,4.89173077 C86.6948824,5.33280769 86.7507882,5.67065385 86.9091882,5.91348077 C87.1700824,6.31701923 87.5975294,6.48594231 88.0645765,6.48594231 C88.5118235,6.48594231 88.8740471,6.34517308 89.2001647,6.04486538 L89.4796941,6.51409615 C89.0697176,6.88948077 88.5118235,7.09594231 87.9154941,7.09594231 C86.6296588,7.09594231 85.8562941,6.15748077 85.8562941,4.61019231 C85.8562941,3.82305769 86.0251765,3.31511538 86.4153529,2.84705769 C86.7880588,2.40598077 87.2446235,2.19951923 87.8025176,2.19951923 C88.3068353,2.19951923 88.7436,2.37782692 89.0604,2.70628846 C89.4610588,3.11921154 89.5903412,3.55911538 89.5903412,4.67588462 L89.5903412,4.77911538 L86.6948824,4.77911538 L86.6948824,4.77911538 Z" id="Fill-52"></path>
                    <path d="M93.5701412,6.99271154 L93.5701412,3.83244231 C93.5701412,3.33505769 93.5328706,3.21188462 93.4024235,3.05351923 C93.2999294,2.93151923 93.1042588,2.85644231 92.8899529,2.85644231 C92.5184118,2.85644231 91.9407176,3.15675 91.6052824,3.51219231 L91.6052824,6.99271154 L90.8983059,6.99271154 L90.8983059,3.39136538 C90.8983059,2.72505769 90.7201059,2.40598077 90.7201059,2.40598077 L91.4282471,2.20890385 C91.4282471,2.20890385 91.5959647,2.55613462 91.5959647,2.94090385 C92.0804824,2.45290385 92.5638353,2.21946154 93.0576706,2.21946154 C93.5608235,2.21946154 94.0080706,2.49044231 94.1944235,2.90336538 C94.2689647,3.07228846 94.3062353,3.25880769 94.3062353,3.44767308 L94.3062353,6.99271154 L93.5701412,6.99271154" id="Fill-53"></path>
                    <path d="M97.6710706,2.87521154 L96.7020353,2.87521154 L96.7020353,5.8865 C96.7020353,6.40148077 96.8418,6.57978846 97.2983647,6.57978846 C97.5021882,6.57978846 97.6244824,6.55163462 97.7549294,6.48594231 L97.8574235,6.95517308 C97.6244824,7.07717308 97.3635882,7.14286538 97.0374706,7.14286538 C96.7952118,7.14286538 96.6088588,7.09594231 96.4318235,7.01148077 C96.1057059,6.85194231 95.9857412,6.55163462 95.9857412,6.08357692 L95.9857412,2.87521154 L95.3800941,2.87521154 L95.3800941,2.32151923 L95.9857412,2.32151923 C95.9857412,1.87223077 96.0591176,1.14023077 96.0591176,1.14023077 L96.8231647,0.971307692 C96.8231647,0.971307692 96.7299882,1.70213462 96.7299882,2.32151923 L97.8935294,2.32151923 L97.6710706,2.87521154" id="Fill-54"></path>
                </g>
                <path d="M75.8745824,19.2929333 C75.7027166,19.3389192 75.3034947,19.4594339 75.0383743,19.4943198 C75.5400992,18.994818 75.8422131,18.3795586 75.8422131,17.867371 C75.6025258,17.9458642 75.1717052,18.1115719 74.7786488,18.2011651 C75.5601374,17.5208912 75.983251,16.7319955 75.7982833,15.6830417 C75.5601374,15.805935 75.2256541,16.0057357 74.8888587,16.1492434 C75.5701564,15.0717466 75.5601374,14.1226932 75.2788323,13.5661054 C74.9759477,13.8578779 74.606783,14.2011863 74.2160387,14.4453872 C74.4657451,13.1990112 74.4541846,12.3974298 73.9462942,11.8400492 C73.4260725,12.8422242 72.9844621,13.5906841 72.2553811,14.480273 C72.3108714,13.6564915 72.2253238,12.6297378 71.7027901,12.0953501 C71.7027901,12.0953501 71.5540452,13.24579 71.1633009,13.6112985 C71.0677343,12.4862301 70.7309389,11.874935 70.2322968,11.2723614 C70.2322968,11.2723614 70.1999275,12.4418299 69.8893359,13.1657111 C69.6257569,12.1873219 69.1371339,11.4261762 68.5113265,10.7030879 C68.5552563,12.8652172 67.970296,16.9428962 66.281695,19.6822276 C66.0843961,21.3075906 65.9109889,23.7480138 63.336855,25.196569 C62.9669196,24.9285823 62.3149085,24.5852739 61.397777,24.6407741 C61.1557776,23.4134268 62.7149011,22.3002514 64.0582291,21.4082838 C65.416971,20.5060091 66.0065555,19.7385207 65.9764983,18.535752 C65.9448996,17.2203972 65.0770928,16.6804596 64.1784581,16.6431952 C62.9114293,16.5861092 61.8833172,17.7658849 61.6420885,18.2542867 C61.2760066,18.4350588 60.1931748,18.7799529 59.7484816,18.9020533 C59.2567758,19.0376324 58.6987899,19.2461546 58.3519755,19.5482343 C58.5585227,19.6814347 59.1511901,19.7274206 59.381629,19.6917419 C59.8101375,19.6298988 61.1796692,19.3674622 62.487545,19.204133 C62.9653782,19.4689482 63.7322235,19.9129499 62.919907,20.495702 C61.807018,21.2298903 61.3284141,21.4193839 59.7585007,22.2645727 C57.27608,23.6021275 58.0799188,26.969404 58.6895415,27.212812 C58.6895415,28.3466018 59.6729531,30.3985236 60.3426904,31.1105119 C60.645575,32.5376599 60.2440409,34.6633176 59.8255515,35.5425993 C59.4795078,34.6775891 58.8814455,32.6700675 58.4907012,31.5013918 C58.8937767,29.2869338 58.2417655,28.3133017 57.787824,27.9366932 C57.332341,27.5561204 56.618674,27.6591922 56.1531719,28.4274736 C56.8683804,28.3466018 57.107297,29.2893124 57.0911123,30.2637374 C57.0749276,31.4347916 56.7836035,32.3759164 55.9905545,32.3814665 C56.0560639,33.3844344 57.1026728,33.6635211 57.6236651,33.1838408 C57.7061299,33.4074273 58.1292435,34.7204035 58.5261534,35.8922506 C58.7619872,36.5860031 58.9916554,37.2258412 59.1419417,37.5604281 C59.3068712,37.9330723 60.5160976,37.9861939 60.6563648,37.5604281 C60.8482687,36.9856046 60.9993257,36.5574602 61.2998982,35.8922506 C61.5311078,35.3871988 61.847865,34.740225 62.3357174,33.7840358 C62.6624936,34.3620308 63.0933142,35.2738198 63.3422499,35.8922506 C63.4601668,36.1800588 63.5387781,36.4091953 63.5480265,36.5146457 C63.6466759,37.4692492 63.5911856,40.85714 63.3422499,42.8860688 C60.6347852,42.1273018 59.8687106,43.4894353 60.1053151,44.4995389 C60.4929766,44.0539516 61.0016378,44.1102447 61.318395,44.3473098 C61.2413251,45.0918054 61.4370826,45.6246073 62.1746413,45.8505724 C62.9522764,43.734429 65.7452887,44.2014236 66.0057848,44.3798171 C66.018116,43.9675299 66.3934463,42.9455333 64.9560931,42.7306683 C65.010042,40.9039188 65.191927,38.6640892 65.258207,38.1963018 C65.3244871,37.7277216 65.376124,37.4391205 65.1603283,36.7049321 C65.0948189,36.4853099 65.0185197,36.2149446 64.9375964,35.8930435 C64.7503166,35.1533051 64.5576419,34.1876016 64.5437693,33.1402335 C64.7942464,33.3947416 65.3884551,33.5969209 65.7984669,33.5073277 C66.1152241,34.8869041 66.5683949,34.4873027 66.8073115,35.0676762 C66.9298527,35.3657916 66.9575978,35.6432926 66.9922793,35.8930435 C67.0215658,36.1364515 67.05933,36.3457665 67.1888074,36.52416 C68.1483274,36.552703 68.9637267,36.3180164 69.5502284,35.8930435 C69.7305719,35.7630144 69.8877945,35.6171282 70.0203547,35.4569705 C69.7852916,33.9862151 69.3822161,33.2623339 68.6361797,32.3703664 C68.4404222,31.1683906 67.8947675,30.0623509 67.1425655,29.0910974 C68.0889836,28.7739534 69.04465,27.9850577 69.5502284,27.4356057 C70.0018579,27.4015127 70.5213089,27.0138042 70.5621559,26.2550371 C70.8241935,26.2233227 71.0500082,26.2090512 71.2588676,26.1654439 C71.2342052,25.9569218 71.1833391,25.6421563 71.1501991,25.4542485 C71.4977842,25.4542485 71.8314968,25.439977 72.1551902,25.4082626 C72.0603943,25.1291759 71.9386239,24.8421606 71.8422865,24.630467 C72.1906424,24.630467 72.6206923,24.6050954 72.9682774,24.5844811 C72.7856218,24.2276941 72.6422719,23.9161001 72.5359154,23.6021275 C72.933596,23.5601059 73.5540085,23.457827 74.0588162,23.3357265 C73.8969694,23.1597116 73.7143138,22.9789395 73.4345502,22.7006457 C74.7547571,22.3002514 75.328157,21.3527836 75.3944371,20.9404964 C75.1979089,20.9404964 74.798687,21.0316753 74.5597704,21.0086824 C75.2988705,20.5607165 75.7936591,19.9486286 75.8699583,19.2921405" id="Shape" fill-rule="nonzero"></path>
                <path d="M57.4124937,22.3414801 L40.7322604,22.3414801 L40.7322604,28.6788102 C40.8093303,28.7255889 40.8810053,28.7850534 40.9542217,28.8532394 L40.9542217,22.6110525 L57.5481367,22.6110525 L57.5481367,28.4163735 C57.6090219,28.4805952 57.6652829,28.5606741 57.7200025,28.662953 L57.7200025,22.3414801 L57.4124937,22.3414801" id="Shape" fill-rule="nonzero"></path>
                <path d="M49.2022398,44.1800164 C41.8420667,41.3598133 40.9072091,35.1469622 40.881776,32.3315163 L40.8571136,32.3267591 L40.8802346,32.1222012 C40.8840881,31.5109062 40.9287886,31.0962404 40.9472854,30.9503541 C40.9272472,30.5475812 40.8686741,30.232023 40.8039354,29.9989221 L40.7330311,29.8506573 L40.7330311,32.7739322 C40.7330311,36.048444 41.8998691,38.8718186 44.1988635,41.1623911 C46.21347,43.1722913 48.4770123,44.1062804 49.1243992,44.3457241 L49.2269022,44.3845742 L49.3309465,44.3457241 C49.9767921,44.1070732 52.241105,43.1730841 54.2557116,41.1623911 C56.554706,38.8710257 57.7215439,36.048444 57.7215439,32.7739322 L57.7215439,32.2411302 C57.6629708,32.3378592 57.6028563,32.3997022 57.5419711,32.4726454 C57.4749203,33.941815 57.2113413,36.2197018 56.2641525,37.940208 C55.1242891,40.3457453 53.3763443,42.3255168 49.2022398,44.1808092" id="Shape" fill-rule="nonzero"></path>
                <path d="M35.982444,5.2125323 C37.0336771,5.73819849 37.3681604,4.76773783 39.328818,6.07040684 C38.0309613,6.49379409 37.0329064,8.14452864 35.5716616,7.72114139 C36.6213533,7.18516802 36.511914,6.39468659 37.1207661,6.0038066 C36.7300218,5.94989212 35.9724249,5.76832717 35.982444,5.2125323 L35.982444,5.2125323 Z M39.7527023,15.9391355 C39.1253535,15.6743202 38.1581266,15.5070267 37.6170961,16.2864081 C37.3257719,15.7615348 37.7581339,14.9702605 38.0309613,14.7371597 C36.6529519,14.7585669 35.8753169,14.3288368 35.6695403,13.8998995 C36.1782015,13.613677 37.4660391,13.1332039 38.5157308,13.925271 C39.2409583,14.4715516 39.6093524,14.7371597 40.4671401,15.0265536 C40.7761903,14.707031 40.6613562,14.8497458 40.7592349,14.7593598 C40.0548162,14.2606508 39.7403711,10.4041797 38.3623618,10.2567077 C38.5604313,9.76909881 39.2740984,9.81349898 39.848269,9.97048526 C39.889116,9.1070607 39.5423016,7.68387697 39.0213092,6.86009542 C39.825148,6.42640099 40.3731148,6.89656698 40.6521078,7.92014926 C40.9442026,9.00953892 40.5950761,11.7282559 41.2894756,14.1805719 L41.7226084,13.7714562 C41.5045006,12.3411367 43.0327962,11.8170562 43.3672795,11.1066537 C43.4967569,12.0644286 43.3025408,12.4965373 43.043586,12.8446028 C43.596177,12.9112031 43.8428006,13.4677908 43.7572531,13.8586708 C42.4277977,13.6564915 41.6563283,15.029725 41.9530473,16.1191147 C40.9696357,16.3419083 40.2952743,16.1706506 39.7527023,15.9383426 L39.7527023,15.9391355 Z M46.2589412,16.7327883 C45.1121415,16.7978029 43.9861506,18.3359513 44.460901,20.0857933 C44.2882645,20.1516007 43.7896224,20.1420864 43.6293171,19.787678 C43.5075467,20.3545729 42.3815558,21.011061 41.5607616,20.9206749 C42.0147032,20.4187945 42.3198999,19.2818333 43.2046621,18.683224 C44.0940484,18.0790646 44.4948118,17.6683632 44.8084862,16.6447809 C44.396933,16.8414102 42.2536198,17.4106836 41.6455385,16.7327883 C43.0551465,16.5210947 44.7229386,15.7060346 45.5445035,15.1724398 L45.2200393,14.8164457 C44.3345064,15.3318047 43.1530252,15.7512276 42.5557337,15.9446855 C42.3414795,14.1298289 44.0223734,14.2019792 44.148768,14.6935524 C44.8400848,13.8443993 44.3553153,12.6305306 43.8435713,12.4957444 C44.3668758,11.047982 43.8435713,10.1576002 43.4004195,9.62321257 C43.2948338,11.161361 41.6255003,11.4063547 41.4297428,12.5900948 C41.3657748,11.6513485 41.3048896,9.12053932 41.2339853,7.88526342 C41.1045079,5.59072653 38.2891454,4.7883522 37.8560127,4.7883522 C36.0163547,4.87873824 35.8429475,4.63295163 35.8876481,3.75366987 C34.9566439,4.8438524 35.2680062,5.81431306 36.0610553,6.28368619 C35.9508453,6.94017428 34.9319816,7.44919041 34.3054035,7.59507665 C35.7997884,9.02143182 37.5338606,8.17386446 38.3631325,7.36276867 L38.543476,7.19864664 C38.8432778,7.74254861 39.0590734,8.73362363 39.0590734,9.30210427 C37.6625673,9.22440398 37.4136316,10.3383723 37.4136316,10.7387666 C39.1893215,9.97920672 39.3827669,13.4804765 39.8490397,14.0465786 C39.3943274,14.0124856 38.5935714,12.9318174 37.4136316,12.85491 C35.990151,12.7621454 35.4884261,13.5446982 34.9119434,13.5121909 C35.0182999,14.5468733 36.2421695,15.1272468 37.0336771,15.2501401 C36.6313724,16.3070225 36.9858938,17.0261465 37.8236433,17.2869975 C37.8236433,16.3189154 39.0136022,16.0176286 40.2906501,16.78591 C41.8227992,17.7072133 42.6104533,17.788085 43.8428006,17.3979979 C43.6401069,17.8570638 43.0852038,17.9022569 42.4039061,18.5912522 C41.449781,19.5577486 41.4197237,20.8207746 40.3561595,21.2766691 C41.6046914,21.8871713 43.4875085,21.0324682 43.7564824,20.5385164 C44.2774747,20.8746891 44.9502948,20.6764741 45.1321797,20.3410943 C44.2874938,18.4120658 45.7155986,17.267176 46.2805208,17.2869975 C46.2805208,17.2869975 46.5309979,16.7129668 46.2581705,16.7319955 L46.2589412,16.7327883 Z" id="Shape" fill-rule="nonzero"></path>
                <path d="M59.2190116,6.26069324 C59.8486725,5.79528442 60.2478944,5.59151939 60.5754414,5.39251153 C61.1157012,5.41312589 62.047476,5.34731851 62.6093154,5.05871746 C62.0251258,5.79528442 61.9611578,6.06247824 61.0054913,6.1703072 C62.2416921,6.28447905 62.7619138,7.42064745 63.3692244,7.59586951 C61.3099173,8.24205042 61.1018286,6.13779994 59.2190116,6.26069324 Z M61.7646296,12.6011948 C62.38273,13.1221038 62.1792655,13.8594636 62.0359155,14.0251714 C61.494885,13.0673965 59.7615835,13.4003977 58.061422,15.3738263 C57.9435051,15.5212982 57.7824291,15.6909703 57.5928372,15.8630209 C57.7261681,13.5018838 55.8472045,13.4582765 55.2946135,13.7024774 C55.3554987,13.0229963 55.7662811,12.5560018 55.9851596,12.4878158 C55.4325686,11.8313277 55.3115689,10.9980318 55.2491423,10.3922868 C56.1701273,10.804574 57.5311813,11.909028 57.7608495,13.8142706 L58.3550583,13.4003977 C58.1777975,10.0727642 58.2163325,10.0830714 58.1939822,7.82183462 C58.1916701,7.50469061 58.2063134,6.76495221 59.1835594,6.84344536 C59.2244065,7.68466983 59.3508011,9.9181565 59.3076419,13.0222035 L59.6567685,13.0222035 C59.9696722,12.1556075 61.0864147,11.1383681 62.3835007,11.2303398 C63.2713456,11.2905972 63.575001,11.2731543 64.0859742,11.0408463 C63.6713383,12.0763215 62.1561445,12.5330088 61.7654003,12.6011948 L61.7646296,12.6011948 Z M59.8918316,11.4396549 C59.8918316,9.29338281 59.8170738,7.52609783 59.7931821,6.96871724 L60.0452006,7.05117468 C61.5442097,7.59190521 61.8856293,9.44719765 64.9799848,7.34136145 C63.3252946,7.54274789 63.2374349,6.09339978 62.4790673,6.06247824 C63.6250964,5.39330439 63.7037076,3.85594882 63.7037076,3.85594882 C62.7403342,4.65515171 60.509932,4.70193045 60.0760286,4.96595284 C59.4972338,5.32432557 58.7704649,5.76039857 58.2787591,6.03710672 C56.9909215,6.75860933 57.8880148,10.6848521 57.7600788,12.1191359 C57.0641378,9.97920672 55.6606954,10.3026936 54.9208246,9.08010346 C54.3690043,10.1028929 54.955506,11.8170562 55.1820915,12.3094223 C54.3790234,12.9770104 54.5963604,14.2154578 54.7913472,14.5468733 C55.4757277,14.0410286 56.531585,14.1710576 56.8545078,15.018625 C55.9566437,15.5815556 54.4537811,15.6838345 53.4272104,14.6610451 L53.0595871,15.0828466 C53.7825025,16.0691645 55.5990395,16.4521159 56.9493037,15.6560844 C56.9439088,15.8804638 56.8968962,16.1333862 56.8067245,16.4124729 C56.1038472,16.79146 55.1982761,16.9991893 54.1639984,16.6320951 C54.305807,17.7127633 55.5088677,18.5127591 56.6525847,18.8378317 C56.2672353,19.1478399 55.7894021,19.2715261 55.441817,19.2295045 C55.6606954,19.8518996 55.7786123,20.6867812 55.3223586,21.3432693 C54.7505002,20.9531822 54.4460742,20.5630951 54.2302785,19.0503182 C54.0098587,17.5359555 52.9516893,15.9962214 52.1293537,15.6838345 C52.0831118,16.2198079 52.0831118,15.9851213 52.1732835,16.3308083 C54.3597559,17.9799571 53.1227844,20.9531822 55.3978871,22.0211646 C56.2325539,21.0427754 56.2418023,20.6978813 56.114637,19.7741994 C56.9377432,19.54982 57.5512195,18.8378317 57.7693272,18.2899654 C56.9909215,18.6689525 55.7570327,18.0013644 55.4094476,17.4780767 C56.7627946,17.4336766 58.0174922,16.3831371 59.2968521,15.0051464 C60.4444226,13.7714562 61.9719475,13.9569854 61.8524892,14.9266532 C62.6439969,14.8045528 62.9569006,13.6905845 62.6956337,12.9762176 C63.8555353,12.6004019 64.7649598,11.7187416 64.8936665,10.3375794 C63.3376257,11.1375752 61.3661783,9.81270612 59.8918316,11.438862 L59.8918316,11.4396549 Z" id="Shape" fill-rule="nonzero"></path>
                <path d="M51.4696356,18.7601314 C51.3632791,18.7601314 51.2661711,18.8116673 51.2045152,18.892539 L50.8376626,18.8378317 L50.8422868,18.150422 C50.9625158,18.0980933 51.0449805,17.9759928 51.0449805,17.833278 C51.0449805,17.6445774 50.895465,17.4875911 50.7104973,17.4875911 C50.5255296,17.4875911 50.3767847,17.6445774 50.3767847,17.833278 C50.3767847,17.9648928 50.4446062,18.0782718 50.5494212,18.1345648 L50.5440263,18.7981887 L50.1895049,18.7640957 C50.1394095,18.6412024 50.023034,18.558745 49.8866203,18.558745 C49.7008819,18.558745 49.552137,18.7125598 49.552137,18.9036391 C49.552137,19.0931326 49.7008819,19.2485332 49.8866203,19.2485332 C50.0045372,19.2485332 50.1093522,19.1851044 50.1671547,19.0883754 L50.5424849,19.1311899 L50.5309245,20.1365364 C50.4237973,20.1944152 50.3513517,20.3070013 50.3513517,20.4402018 C50.3513517,20.6304882 50.5016379,20.7874745 50.6858349,20.7874745 C50.8715733,20.7874745 51.0241717,20.631281 51.0241717,20.4402018 C51.0241717,20.3022441 50.9417069,20.1825223 50.8253314,20.1294006 L50.8345798,19.1668686 L51.1505663,19.2176116 C51.1975789,19.3531907 51.3208907,19.4499196 51.4688649,19.4499196 C51.6530619,19.4499196 51.8041188,19.2953119 51.8041188,19.1066112 C51.8041188,18.9139462 51.6538326,18.7601314 51.4688649,18.7601314" id="Shape" fill-rule="nonzero"></path>
                <path d="M48.5656426,18.558745 C48.429229,18.558745 48.3120827,18.6412024 48.2581338,18.7640957 L47.9074659,18.7981887 L47.9028417,18.1345648 C48.0053446,18.0774789 48.0777903,17.9640999 48.0777903,17.833278 C48.0777903,17.6445774 47.9267334,17.4875911 47.7456192,17.4875911 C47.5575687,17.4875911 47.4072824,17.6445774 47.4072824,17.833278 C47.4072824,17.9759928 47.4897472,18.0980933 47.6068934,18.150422 L47.6153711,18.8378317 L47.2469771,18.892539 C47.1876332,18.8116673 47.093608,18.7601314 46.9833981,18.7601314 C46.7984304,18.7601314 46.6489148,18.9139462 46.6489148,19.1066112 C46.6489148,19.2953119 46.7984304,19.4499196 46.9833981,19.4499196 C47.1306015,19.4499196 47.2539133,19.3531907 47.3001553,19.2176116 L47.6169125,19.1668686 L47.6253901,20.1294006 C47.5097853,20.1825223 47.4296327,20.3022441 47.4296327,20.4402018 C47.4296327,20.6304882 47.5783775,20.7874745 47.7625745,20.7874745 C47.9483129,20.7874745 48.0993699,20.631281 48.0993699,20.4402018 C48.0993699,20.3070013 48.0246121,20.1944152 47.9182557,20.1365364 L47.9120901,19.1311899 L48.2835669,19.0883754 C48.34214,19.1851044 48.446955,19.2485332 48.5656426,19.2485332 C48.7498396,19.2485332 48.9016673,19.0931326 48.9016673,18.9036391 C48.9016673,18.7133527 48.7498396,18.558745 48.5656426,18.558745" id="Shape" fill-rule="nonzero"></path>
                <path d="M49.2261315,21.4772627 C48.7290308,22.4580305 47.8018802,22.4279018 46.9941879,21.8792427 C46.668953,21.656449 46.3383232,21.5129414 46.0308144,21.4629912 C46.1718523,20.4972877 46.4022912,18.677674 46.5695328,17.1403184 C47.6161418,16.6527095 48.9078329,16.5377448 49.2253608,17.7785707 C49.5436594,16.5377448 50.8345798,16.6527095 51.880418,17.1403184 C52.0484303,18.6768811 52.2811813,20.4972877 52.4206778,21.4629912 C52.1177932,21.5137342 51.7809979,21.6572419 51.455763,21.8792427 C50.6488414,22.4279018 49.7232322,22.4580305 49.2261315,21.4772627 L49.2261315,21.4772627 Z M53.0102624,21.5113556 C52.8075686,20.1230578 52.3212577,16.236458 52.264226,14.9369604 L51.6892847,14.9631248 C51.696221,15.1851256 51.7201126,15.4768981 51.7493992,15.8186207 C51.0580824,15.60772 50.1525114,15.4610409 49.2261315,15.4610409 C48.3036051,15.4610409 47.3941805,15.60772 46.7028637,15.8186207 C46.7313796,15.4768981 46.7545005,15.1859184 46.7645196,14.9631248 L46.188037,14.9369604 C46.131776,16.236458 45.6446943,20.1230578 45.4427713,21.5113556 C45.0990396,21.6485204 44.8739956,22.002136 44.8739956,22.636424 C44.8739956,22.636424 48.0130516,22.681617 49.2269022,22.681617 C50.4407527,22.681617 53.576726,22.636424 53.576726,22.636424 C53.576726,22.002136 53.3516819,21.6485204 53.0102624,21.5113556 L53.0102624,21.5113556 Z" id="Shape" fill-rule="nonzero"></path>
                <path d="M66.1630074,49.2313275 L32.2900262,49.2313275 C32.1381986,48.1221164 31.932422,47.4101281 31.748225,46.8107259 L66.7024965,46.8107259 C66.5175288,47.4101281 66.314835,48.1221164 66.1630074,49.2313275 Z M43.2038914,41.7736862 C43.5167951,42.2501951 43.8142848,42.5966749 43.9576348,42.975662 C44.1056089,43.3752634 44.0092716,43.6147072 43.7256544,44.0246158 C43.082121,44.9506763 41.9684613,45.7475006 41.0906354,46.2406595 L37.696478,46.2406595 C39.8297722,45.6166787 42.7121856,43.7391862 43.2031207,41.7728934 L43.2038914,41.7736862 Z M41.1468964,41.1275053 C41.4258893,40.5994605 42.0971679,40.4329599 42.554963,41.0593193 C42.7507205,41.3288917 42.6651729,42.0416729 41.8621048,42.9352261 C41.2840808,42.3881527 40.8524895,41.6912288 41.1468964,41.1282982 L41.1468964,41.1275053 Z M54.6834494,44.0254087 C54.3990615,43.6147072 54.3019535,43.3760563 54.4514691,42.9764549 C54.594819,42.5966749 54.8930794,42.2501951 55.2052124,41.7744791 C55.6953768,43.7399791 58.5801023,45.6182644 60.7118551,46.2422453 L57.3161563,46.2422453 C56.4391011,45.7482935 55.3269828,44.952262 54.6834494,44.0262015 L54.6834494,44.0254087 Z M55.8525994,41.0593193 C56.3127066,40.4329599 56.9824438,40.5994605 57.2622074,41.1275053 C57.5566143,41.6904359 57.1273351,42.3873599 56.546999,42.9344333 C55.746243,42.04088 55.6614661,41.3288917 55.8533701,41.0585265 L55.8525994,41.0593193 Z M66.8350567,46.0638518 C66.4705162,46.1732664 66.0312179,46.2422453 65.3722705,46.2422453 L64.552247,46.2422453 C61.735343,46.1859522 58.836745,45.3233205 57.0618257,43.4521709 C59.5157306,40.9078831 56.6333172,38.8123541 55.0741936,40.970519 C54.5886534,41.6476215 54.2002213,42.1241303 53.8618845,42.7782399 C53.5882864,43.3070775 53.794063,43.836708 54.4036857,44.6485966 C54.7373983,45.0965625 55.5682116,45.7879365 56.2471972,46.2414524 L42.1657601,46.2414524 C42.8416629,45.7879365 43.6717055,45.0965625 44.0100423,44.6485966 C44.6150408,43.836708 44.8239002,43.3070775 44.5518435,42.7782399 C44.2150481,42.1241303 43.8227625,41.6476215 43.3372223,40.970519 C41.7788694,38.8123541 38.8979974,40.9070902 41.3519022,43.4521709 C39.5762123,45.3233205 36.6799264,46.1859522 33.8591689,46.2422453 L33.0823046,46.2422453 C32.4218157,46.2422453 31.9817467,46.1740593 31.620289,46.0638518 C31.0353287,45.9187584 30.9058513,46.1732664 31.2210671,47.2111202 C31.4376334,47.9009084 31.6087285,49.0259768 31.6873398,49.7998082 L66.7718594,49.7998082 C66.8458465,49.0251839 67.018483,47.9009084 67.2350494,47.2111202 C67.5487238,46.1732664 67.4192464,45.9187584 66.8358274,46.0638518 L66.8350567,46.0638518 Z" id="Shape" fill-rule="nonzero"></path>
                <path d="M36.3408189,48.3409457 L36.3307998,48.3250885 L36.5828183,47.6345075 L36.5966909,47.6178574 L36.6043979,47.6345075 L36.8533336,48.3250885 L36.8425438,48.3409457 L36.3415896,48.3409457 L36.3408189,48.3409457 Z M36.8826201,48.4424318 L36.9026583,48.458289 L36.9943715,48.7127971 L36.9774161,48.7627473 L36.9473588,48.780983 L37.0097854,48.798426 L37.3889692,48.7992188 L37.479141,48.780983 L37.4567907,48.7627473 L37.3697018,48.7564044 C37.3273133,48.7437186 37.2695109,48.71914 37.1939824,48.532025 C37.0645051,48.2180524 36.7431237,47.3760351 36.6976524,47.2602775 L36.6467863,47.1944701 L36.5905253,47.2793062 L36.0857176,48.5756323 C36.046412,48.6779112 36.0071064,48.7468901 35.9169346,48.7595758 L35.8514252,48.7627473 L35.8283042,48.780983 L35.8660685,48.7992188 L36.1034437,48.798426 L36.317698,48.7992188 L36.3516087,48.780983 L36.3200101,48.7627473 L36.2899528,48.7627473 C36.2282969,48.7627473 36.2113415,48.7373757 36.2113415,48.6977327 L36.2398574,48.5748394 L36.2807044,48.4598747 L36.2984305,48.4424318 L36.8826201,48.4424318 L36.8826201,48.4424318 Z" id="Shape" fill-rule="nonzero"></path>
                <path d="M37.8845285,48.1395593 C37.8845285,48.4376746 37.9592863,48.5906966 38.0625599,48.6874256 C38.2089927,48.8230046 38.4008967,48.8277618 38.5072531,48.8277618 C38.6382719,48.8277618 38.783934,48.809526 38.9234305,48.679497 C39.0929842,48.5344036 39.1168758,48.2894098 39.1168758,48.0586876 L39.1168758,47.8374796 L39.1207293,47.4037852 C39.1253535,47.3316349 39.1376847,47.2943705 39.1924043,47.2848562 L39.2517481,47.2793062 L39.2872003,47.2602775 L39.2455825,47.2420417 L39.0143729,47.2444203 L38.7885582,47.2420417 L38.7438576,47.2602775 L38.7793098,47.2793062 L38.8509848,47.2848562 C38.9172649,47.2975419 38.9326788,47.3316349 38.9365323,47.4037852 L38.9403858,47.8374796 L38.9403858,48.0975377 C38.9403858,48.310817 38.9349909,48.4971391 38.8263224,48.6089324 C38.7438576,48.6913899 38.6359598,48.7231043 38.5473295,48.7231043 C38.4787373,48.7231043 38.3870241,48.7104185 38.2968524,48.6382682 C38.1989736,48.5542251 38.1404005,48.4281603 38.1404005,48.1292521 L38.1404005,47.8382725 L38.1427126,47.404578 C38.1481075,47.3324278 38.1658336,47.2951634 38.2182411,47.285649 L38.2783556,47.280099 L38.3107249,47.2610704 L38.2652537,47.2428346 L38.0186301,47.2452132 L37.7257646,47.2428346 L37.6802934,47.2610704 L37.7149748,47.280099 L37.7928154,47.285649 C37.8606369,47.2983348 37.8752801,47.3324278 37.880675,47.404578 L37.8852992,47.8382725 L37.8852992,48.1403521" id="Shape" fill-rule="nonzero"></path>
                <path d="M40.2158923,47.8033866 L40.216663,47.3910994 L40.2413253,47.3506636 L40.3708027,47.3348064 C40.5295667,47.3348064 40.7600056,47.3601779 40.9434319,47.5441214 C41.0305209,47.6281646 41.1368773,47.7970438 41.1368773,48.0578947 C41.1368773,48.2719669 41.0960303,48.4598747 40.9665529,48.5748394 C40.8455532,48.6787041 40.7106809,48.7231043 40.5064457,48.7231043 C40.3469111,48.7231043 40.2690705,48.6779112 40.2413253,48.6406468 L40.2205165,48.4828677 L40.216663,48.0658233 L40.216663,47.8033866 L40.2158923,47.8033866 Z M39.9654152,48.1998166 C39.9654152,48.390103 39.9654152,48.5558108 39.9538547,48.6406468 C39.9469184,48.701697 39.93767,48.7460972 39.896823,48.7556115 L39.8259187,48.7619544 L39.7927787,48.7801902 L39.8336257,48.798426 L40.0856442,48.7976331 L40.5141527,48.8190403 C40.8848588,48.8190403 41.0929475,48.6731541 41.1877434,48.5740466 C41.3002654,48.4567033 41.4058512,48.2584883 41.4058512,47.9992231 C41.4058512,47.7518507 41.3102845,47.5813858 41.209323,47.4743497 C40.9935273,47.240456 40.6551906,47.240456 40.4062549,47.240456 L40.0972047,47.2428346 L39.8066512,47.240456 L39.7642628,47.2586918 L39.7958615,47.2777204 L39.8775555,47.2832705 C39.9430649,47.2959562 39.9577082,47.3300492 39.9615617,47.4021995 L39.9669566,47.8358939 L39.9669566,48.1990238 L39.9654152,48.1998166 Z" id="Shape" fill-rule="nonzero"></path>
                <path d="M42.1819448,48.3409457 L42.1765499,48.3250885 L42.4262563,47.6345075 L42.4378168,47.6178574 L42.4478359,47.6345075 L42.6952302,48.3250885 L42.6852111,48.3409457 L42.1819448,48.3409457 L42.1819448,48.3409457 Z M42.723746,48.4424318 L42.7430135,48.458289 L42.8385802,48.7127971 L42.8177713,48.7627473 L42.7900261,48.780983 L42.8509113,48.798426 L43.2285537,48.7992188 L43.3241204,48.780983 L43.2963752,48.7627473 L43.2115984,48.7564044 C43.1692099,48.7437186 43.1137196,48.71914 43.0389618,48.532025 C42.907943,48.2180524 42.5873324,47.3760351 42.5372369,47.2602775 L42.4879122,47.1944701 L42.434734,47.2793062 L41.9276142,48.5756323 C41.8890793,48.6779112 41.8490029,48.7468901 41.7565191,48.7595758 L41.6956339,48.7627473 L41.6702008,48.780983 L41.7095065,48.7992188 L41.9468817,48.798426 L42.1580532,48.7992188 L42.1919639,48.780983 L42.1626773,48.7627473 L42.1310787,48.7627473 C42.0709642,48.7627473 42.0524674,48.7373757 42.0524674,48.6977327 L42.0802126,48.5748394 L42.122601,48.4598747 L42.1426392,48.4424318 L42.723746,48.4424318 L42.723746,48.4424318 Z" id="Shape" fill-rule="nonzero"></path>
                <path d="M44.6844037,47.4505639 C44.747601,47.3585922 44.7861359,47.3007134 44.8316071,47.2880276 L44.9032821,47.2793062 L44.9356515,47.2602775 L44.90097,47.2420417 L44.7029005,47.2444203 L44.5025188,47.2420417 L44.460901,47.2602775 L44.4832513,47.2793062 L44.5510728,47.2848562 L44.5834421,47.3181563 L44.5626333,47.4006137 L44.2882645,47.835101 L44.0339339,47.3760351 L44.0131251,47.3181563 L44.0377874,47.2848562 L44.0940484,47.2793062 L44.1217936,47.2602775 L44.082488,47.2420417 L43.8666923,47.2444203 L43.5622663,47.2420417 L43.52219,47.2578989 L43.5406867,47.280099 L43.6262343,47.2935776 C43.6979093,47.3133991 43.7433805,47.3641422 43.7903931,47.4481853 L44.138749,48.0356946 L43.754941,48.5978324 C43.6871195,48.6985256 43.6485846,48.7381686 43.5915528,48.7540258 L43.5152537,48.7635401 L43.4875085,48.7817759 L43.5167951,48.8000117 L43.5522472,48.8000117 L43.7179474,48.7992188 L43.90831,48.8000117 L43.9437622,48.8000117 L43.9853799,48.7817759 L43.9599468,48.7635401 L43.9152463,48.7603687 L43.87517,48.7262757 L43.9029151,48.639854 L44.2011756,48.1451093 L44.5194741,48.7040756 L44.51485,48.7540258 L44.4847927,48.775433 L44.5572384,48.7992188 L44.9148426,48.8000117 L44.9749571,48.8000117 L45.0142628,48.7817759 L44.9896004,48.7635401 L44.9140719,48.7524401 C44.860123,48.7365829 44.8285243,48.7104185 44.7953843,48.6636398 C44.7468303,48.5986252 44.4208247,48.0404518 44.356086,47.9397586 L44.6844037,47.4521496" id="Shape" fill-rule="nonzero"></path>
                <path d="M47.4242378,48.3409457 L47.4142187,48.3250885 L47.6639251,47.6345075 L47.6785684,47.6178574 L47.6878167,47.6345075 L47.9444594,48.3274671 L47.9328989,48.3401529 L47.4250085,48.3401529 L47.4242378,48.3409457 Z M47.966039,48.4424318 L47.9853065,48.458289 L48.0770196,48.7127971 L48.0585228,48.7627473 L48.030007,48.780983 L48.0908922,48.798426 L48.470076,48.7992188 L48.5617891,48.780983 L48.5363561,48.7627473 L48.4515792,48.7564044 C48.4107322,48.7437186 48.3506177,48.71914 48.2750892,48.532025 C48.1448411,48.2180524 47.8250011,47.3760351 47.7795299,47.2602775 L47.7271224,47.1944701 L47.6708614,47.2793062 L47.1668244,48.5756323 C47.1275187,48.6779112 47.0897545,48.7468901 46.9949586,48.7595758 L46.9348441,48.7627473 L46.9109524,48.780983 L46.9487166,48.7992188 L47.1853212,48.798426 L47.3972633,48.7992188 L47.4311741,48.780983 L47.4018875,48.7627473 L47.3733717,48.7627473 C47.3094037,48.7627473 47.2924483,48.7373757 47.2924483,48.6977327 L47.3232762,48.5748394 L47.3633526,48.4598747 L47.3818493,48.4424318 L47.9668097,48.4424318 L47.966039,48.4424318 Z" id="Shape" fill-rule="nonzero"></path>
                <path d="M49.1976156,48.1998166 C49.1976156,48.390103 49.1976156,48.5558108 49.1883672,48.6406468 C49.1822016,48.701697 49.1690998,48.7460972 49.1313355,48.7556115 L49.0588898,48.7619544 L49.0257498,48.7801902 L49.0650554,48.798426 L49.3216981,48.7976331 L49.6369139,48.798426 L49.6715953,48.7801902 L49.639226,48.7619544 L49.5390352,48.7556115 C49.47815,48.7460972 49.4650481,48.701697 49.4581118,48.6430254 C49.4488634,48.5558108 49.4488634,48.390103 49.4488634,48.1998166 L49.4488634,47.3554207 L49.7016526,47.3601779 C49.8812254,47.3657279 49.9351743,47.422021 49.9397985,47.478314 L49.9397985,47.5005141 L49.9621488,47.54095 L49.9806456,47.5060641 L49.9868111,47.268999 L49.9706265,47.2261845 L49.7787225,47.2436275 L48.9833614,47.2436275 L48.7829797,47.2380774 L48.6974321,47.2103273 L48.6735405,47.2507632 L48.6326934,47.4862426 L48.6496488,47.5211285 L48.6704577,47.4981355 L48.7043684,47.4228138 C48.7359671,47.3760351 48.7829797,47.3696922 48.9001259,47.3641422 L49.1968449,47.3562136 L49.1968449,48.2006095" id="Shape" fill-rule="nonzero"></path>
                <path d="M52.8326619,48.0349018 L52.855006,48.0158731 L53.2450121,48.0253874 C53.3242321,48.0309375 53.3628264,48.0689947 53.3800923,48.0967448 L53.3943113,48.1625522 L53.4186867,48.1903023 L53.4410308,48.1498665 L53.4542341,48.0000159 L53.4745469,47.8699869 L53.4582966,47.8533368 L53.4247805,47.8755369 L53.3079818,47.9104227 L53.1921988,47.9135942 L52.8539904,47.9159728 L52.8316463,47.8937727 L52.8316463,47.3815851 L52.8590686,47.3506636 L53.2643093,47.3585922 C53.3628264,47.3585922 53.4197023,47.3918923 53.4400151,47.4196424 L53.4542341,47.4981355 L53.4816564,47.5314356 L53.5070474,47.5036855 L53.5182195,47.3355992 L53.5415792,47.2420417 L53.5243133,47.223806 L53.4816564,47.2396632 L53.3729828,47.2452132 L52.6762533,47.2452132 L52.2964036,47.2428346 L52.2364808,47.2610704 L52.2760908,47.280099 L52.3827331,47.285649 C52.4690626,47.2983348 52.4873441,47.3324278 52.4924223,47.404578 L52.4995318,47.8382725 L52.4995318,48.2014024 C52.4995318,48.4004102 52.4995318,48.5573965 52.4863284,48.6422325 C52.4751564,48.7032828 52.4639843,48.7476829 52.4091397,48.7571972 L52.3157008,48.7635401 L52.2750752,48.7817759 L52.331951,48.8000117 L52.6640656,48.7992188 L53.0652437,48.8000117 L53.1241508,48.7817759 L53.0835252,48.7635401 L52.9494606,48.7571972 C52.8682094,48.7476829 52.8529748,48.7032828 52.8458653,48.6422325 C52.8306307,48.5581894 52.8306307,48.4012031 52.8306307,48.2014024 L52.8306307,48.0364875" id="Shape" fill-rule="nonzero"></path>
                <path d="M54.0941738,48.1998166 L54.0811228,48.6525397 C54.0745974,48.7088328 54.0484954,48.7453043 53.9806303,48.7548187 L53.8631714,48.7611615 L53.8070522,48.7793973 L53.8762224,48.7976331 L54.3029896,48.7968402 L54.8341646,48.7976331 L54.8981144,48.7793973 L54.8459105,48.7611615 L54.667112,48.7548187 C54.5640092,48.7453043 54.5431277,48.7080399 54.533992,48.6533326 L54.520941,48.1990238 L54.520941,47.8358939 L54.5235512,47.4021995 C54.5326869,47.3300492 54.5548736,47.2927848 54.6514508,47.2832705 L54.7532485,47.2777204 L54.8067575,47.2555204 L54.733672,47.2396632 L54.3186508,47.2420417 L53.8827479,47.2396632 L53.7979165,47.2555204 L53.8540357,47.2777204 L53.9714946,47.2832705 C54.0484954,47.2959562 54.0811228,47.3300492 54.0889534,47.4021995 L54.0928687,47.8358939 L54.0928687,48.1990238" id="Shape" fill-rule="nonzero"></path>
                <path d="M55.4233202,47.8033866 L55.4233202,47.3910994 L55.4510653,47.3506636 L55.579772,47.3348064 C55.738536,47.3348064 55.9674335,47.3601779 56.1531719,47.5441214 C56.2371781,47.6281646 56.3427638,47.7970438 56.3427638,48.0578947 C56.3427638,48.2719669 56.3034582,48.4598747 56.1739808,48.5748394 C56.0537518,48.6787041 55.9165674,48.7231043 55.7146443,48.7231043 C55.5551097,48.7231043 55.4764984,48.6779112 55.451836,48.6406468 L55.4279444,48.4828677 L55.4240909,48.0658233 L55.4240909,47.8033866 L55.4233202,47.8033866 Z M55.1743845,48.1998166 C55.1743845,48.390103 55.1743845,48.5558108 55.1605119,48.6406468 C55.1558877,48.701697 55.1443272,48.7460972 55.1034802,48.7556115 L55.0302638,48.7619544 L54.9971238,48.7801902 L55.0402829,48.798426 L55.2938428,48.7976331 L55.7208099,48.8190403 C56.0892039,48.8190403 56.2996047,48.6731541 56.3920885,48.5740466 C56.5046105,48.4567033 56.6125084,48.2584883 56.6125084,47.9992231 C56.6125084,47.7518507 56.516171,47.5813858 56.4144388,47.4743497 C56.1978724,47.240456 55.8618478,47.240456 55.6098293,47.240456 L55.3030912,47.2428346 L55.0125377,47.240456 L54.9678372,47.2586918 L55.0032894,47.2777204 L55.0826713,47.2832705 C55.1481807,47.2959562 55.162824,47.3300492 55.1682189,47.4021995 L55.1728431,47.8358939 L55.1728431,48.1990238 L55.1743845,48.1998166 Z" id="Shape" fill-rule="nonzero"></path>
                <path d="M57.3744822,48.1998166 L57.3635651,48.6406468 C57.350663,48.701697 57.3397458,48.7460972 57.2891298,48.7556115 L57.1938527,48.7619544 L57.1531614,48.7801902 L57.2057623,48.798426 L57.5293076,48.7976331 L58.2478561,48.8087331 C58.3421407,48.8087331 58.367945,48.8087331 58.382832,48.7524401 L58.4185609,48.5225107 L58.3977191,48.4828677 L58.3699299,48.5161678 C58.3520654,48.5994181 58.3212988,48.645404 58.2528184,48.6707755 C58.1853304,48.6945613 58.0791361,48.6945613 58.0116481,48.6945613 C57.7486435,48.6945613 57.7059673,48.6612612 57.7010049,48.5209249 L57.7010049,48.0380732 L57.7198619,48.0174588 L58.0840985,48.0245946 C58.1793756,48.0301446 58.2170895,48.061859 58.2299916,48.1030877 L58.2428937,48.1776166 L58.2607582,48.1958523 L58.2845774,48.1593808 L58.2954946,48.022216 L58.3163365,47.869194 L58.298472,47.852544 L58.2577808,47.8795012 L58.1327295,47.9096299 L57.7208544,47.9151799 L57.7000125,47.892187 L57.7000125,47.3688993 L57.7208544,47.3506636 L58.0850909,47.3585922 C58.2151045,47.3696922 58.2409088,47.3942709 58.2567883,47.4323281 L58.2756452,47.506857 L58.2964871,47.5377785 L58.3193139,47.5131999 L58.3312236,47.3760351 L58.3550428,47.2420417 L58.3361859,47.223806 L58.2994645,47.2325274 L58.1873154,47.2452132 L57.5392323,47.2452132 L57.1710258,47.2428346 L57.1134626,47.2610704 L57.1561388,47.280099 L57.2543933,47.285649 C57.3427232,47.2983348 57.3625726,47.3324278 57.3675349,47.404578 L57.3715048,47.8382725 L57.3715048,48.2014024" id="Shape" fill-rule="nonzero"></path>
                <path d="M59.2348113,47.8366868 L59.2386527,47.4029923 C59.2434544,47.3308421 59.2636214,47.2935776 59.3298847,47.2840633 L59.4278391,47.2785133 L59.470094,47.2594847 L59.4191961,47.2412489 L59.0792367,47.2436275 L58.7383169,47.2412489 L58.6864587,47.2594847 L58.7239119,47.2785133 L58.8093819,47.2840633 C58.8910106,47.2967491 58.9073363,47.3308421 58.915019,47.4029923 L58.9198207,47.8366868 L58.9198207,48.1998166 C58.9198207,48.390103 58.9198207,48.5558108 58.9073363,48.6406468 C58.8986933,48.701697 58.8871692,48.7460972 58.83243,48.7556115 L58.7450393,48.7619544 L58.7047051,48.7801902 L58.755603,48.798426 L59.0696333,48.7976331 L59.797569,48.8087331 C59.9272145,48.8087331 59.9406592,48.7976331 59.9550643,48.7508544 L59.9915571,48.5114106 L59.9733107,48.4781105 L59.9483419,48.509032 L59.880158,48.6335111 C59.8177361,48.6866327 59.7188213,48.6898041 59.5843741,48.6898041 C59.393267,48.6898041 59.3289244,48.6771184 59.2847489,48.6461968 C59.233851,48.6081396 59.233851,48.4654247 59.233851,48.1998166 L59.233851,47.8366868" id="Shape" fill-rule="nonzero"></path>
                <path d="M60.496841,48.1998166 L60.48379,48.6525397 C60.4772645,48.7088328 60.4511626,48.7453043 60.3832975,48.7548187 L60.258008,48.7611615 L60.2071092,48.7793973 L60.2723641,48.7976331 L60.7017415,48.7968402 L61.2407471,48.7976331 L61.3046969,48.7793973 L61.2433573,48.7611615 L61.0710843,48.7548187 C60.9705917,48.7453043 60.9418796,48.7080399 60.9353541,48.6533326 C60.9183878,48.5645322 60.9183878,48.4019959 60.9183878,48.1990238 L60.9183878,47.8358939 L60.9262184,47.4021995 C60.934049,47.3300492 60.9627611,47.2927848 61.054118,47.2832705 L61.1546106,47.2777204 L61.2081196,47.2555204 L61.1402545,47.2396632 L60.7252332,47.2420417 L60.2801947,47.2396632 L60.2031939,47.2555204 L60.2527876,47.2777204 L60.376772,47.2832705 C60.4524677,47.2959562 60.4877053,47.3300492 60.4916206,47.4021995 L60.496841,47.8358939 L60.496841,48.1990238" id="Shape" fill-rule="nonzero"></path>
                <path d="M61.9438869,48.8269689 C62.1079222,48.8269689 62.2863255,48.8087331 62.4407821,48.7429258 C62.667079,48.6477826 62.7329326,48.5026892 62.7329326,48.3837602 C62.7329326,48.1903023 62.5952387,48.0499661 62.2192746,47.8612654 L62.1306716,47.8136938 C61.8792306,47.6860434 61.802601,47.6123074 61.802601,47.517957 C61.802601,47.393478 61.9426895,47.3062634 62.1737758,47.3062634 C62.3737312,47.3062634 62.4635315,47.3681065 62.5114251,47.4077495 C62.5808707,47.461664 62.5952387,47.5250928 62.5952387,47.5433285 L62.6275668,47.5774215 L62.6622896,47.517957 L62.674263,47.2697918 L62.6311589,47.2428346 C62.5509372,47.2301488 62.4204274,47.2095345 62.2156826,47.2095345 C61.7858383,47.2095345 61.4972798,47.3744494 61.4972798,47.5996216 C61.4972798,47.7677079 61.6110269,47.9128013 61.9570576,48.090402 L62.1055275,48.1617594 C62.3629552,48.2957527 62.4060593,48.3924816 62.4060593,48.4955534 C62.4060593,48.6017967 62.2719575,48.7294471 61.9857937,48.7294471 C61.795417,48.7294471 61.6086322,48.6731541 61.5427787,48.5201321 L61.5116479,48.4178531 L61.4829118,48.3774173 L61.4445969,48.4337103 L61.4278342,48.701697 L61.4877011,48.7730544 C61.6194083,48.8134903 61.7606942,48.8261761 61.9426895,48.8261761" id="Shape" fill-rule="nonzero"></path>
                <path d="M49.2261315,12.781174 C48.1772105,12.781174 46.9941879,13.0356821 46.0824512,13.4455907 C46.0970945,13.2370685 46.1656867,13.0555036 46.2959348,12.8961387 C46.8261755,12.2404435 48.2041849,12.0065498 49.2261315,12.0065498 C50.248078,12.0065498 51.6276288,12.2404435 52.1563281,12.8961387 C52.2858055,13.0562964 52.3551684,13.2362757 52.3705824,13.4432121 C51.4580751,13.0325106 50.2912372,12.781174 49.2261315,12.781174 L49.2261315,12.781174 Z M51.0126112,14.3042581 L50.6873763,13.5320124 C51.1821649,13.6303271 51.6561447,13.7785919 52.0700099,13.9569854 L52.2596018,14.7498454 C51.9528637,14.6229878 51.5282087,14.4469729 51.0126112,14.3042581 Z M47.9359817,14.1845362 L47.3779958,13.6192271 C47.8357909,13.5010909 48.3167069,13.4225978 48.7891453,13.3892976 L49.1236285,14.0545072 C48.6982028,14.0600572 48.3043758,14.1115931 47.9359817,14.1853291 L47.9359817,14.1845362 Z M46.1202155,14.7831456 L45.9568273,14.8513315 C45.7348661,14.9425104 45.5807263,14.8703602 45.525236,14.757774 C45.4674336,14.6380522 45.5028858,14.4414229 45.7803373,14.265408 L45.8951714,14.2011863 L46.4269536,14.6507379 L46.1209862,14.7823527 L46.1202155,14.7831456 Z M49.2261315,10.7237023 L49.9821869,11.2874257 C49.6592642,11.2565042 49.3887489,11.2493685 49.2261315,11.2493685 C49.0627433,11.2493685 48.7929988,11.2565042 48.4693053,11.2874257 L49.2261315,10.7237023 Z M48.3637196,8.66543767 C48.0554401,7.97564946 47.9691218,7.0725819 48.9217055,7.50786205 L48.9972339,8.66543767 L48.3637196,8.66543767 Z M49.0874057,6.16555004 L49.2261315,6.2654504 L49.3617744,6.16555004 L49.9120534,5.75564141 L49.5960669,6.8466168 L49.5644682,6.85692398 C49.5089779,6.71975919 49.3771884,6.62778743 49.2253608,6.62778743 C49.0743038,6.62778743 48.9455971,6.71896633 48.8877947,6.85692398 L48.8554254,6.8466168 L48.5402096,5.75564141 L49.086635,6.16555004 L49.0874057,6.16555004 Z M49.9004929,10.6317305 L49.3617744,10.2305433 L49.2261315,10.1274715 L49.0874057,10.2305433 L48.5502287,10.6317305 L48.9001259,9.46781201 L49.552137,9.46781201 L49.9004929,10.6317305 Z M50.0885434,8.66464481 L49.4542583,8.66464481 L49.5305575,7.50706919 C50.4823704,7.07178904 50.3968229,7.97564946 50.0885434,8.66464481 L50.0885434,8.66464481 Z M46.9032454,8.93580294 L47.2939897,8.38317951 L47.3926391,8.23967184 L47.2939897,8.10092134 L46.9032454,7.54591933 L47.70246,7.79884168 C47.7471605,8.15800726 47.8250011,8.39586527 47.9144022,8.61469463 L46.9024747,8.93501008 L46.9032454,8.93580294 Z M50.7528857,7.79884168 L51.5513296,7.54591933 L51.159044,8.10092134 L51.0596238,8.23967184 L51.159044,8.38317951 L51.5513296,8.93580294 L50.5378608,8.61548749 C50.6280325,8.39665813 50.7058731,8.15880012 50.7528857,7.79963454 L50.7528857,7.79884168 Z M55.7331411,6.37962225 C55.7516379,6.07199256 55.1928813,5.83572028 55.0526141,5.82224166 C54.8198631,5.80479874 54.523144,6.31222915 54.2179473,6.62620171 C53.9482028,5.14434634 54.0884699,4.50926547 54.2387562,3.85277738 C54.8468375,4.98973864 55.6684024,5.2323538 56.1023058,5.17606074 C54.6402902,3.97487782 54.8930794,2.88231672 54.4468449,2.82443794 C54.193285,2.7974807 54.0106294,2.81413076 53.8819227,2.81413076 C53.3686373,2.81413076 53.2985037,3.8385059 53.2322236,4.30708617 C52.8992818,3.67121243 52.5717348,3.13682478 52.0091247,2.40184355 C51.4704063,0.977074099 50.8091467,1.33227539 50.1370974,0.686094473 C50.6580898,1.50115457 50.2357468,2.00144924 51.4465146,2.59292281 C51.7625011,2.90213822 52.1308951,3.38419711 52.3775187,3.77349138 C52.1740542,4.04940666 52.0360991,4.21035724 51.8465072,4.39747221 C51.6969917,4.62978019 51.6206925,5.51223339 51.1536491,6.17902866 C51.8465072,5.86584896 52.1185639,5.43374025 52.3651875,5.00797442 C54.5524306,6.70707343 52.7767406,11.0440177 52.271933,11.9954497 C51.7902462,11.6616557 51.1736872,11.472955 50.6133892,11.3698832 L50.5540454,11.1764253 L50.0407601,9.46384771 L50.278906,9.46384771 C50.5517333,9.46384771 50.616472,9.27673274 50.5717715,9.12529648 L52.080029,9.60497679 L52.7489955,9.8150847 L52.3397545,9.23471116 L51.6384186,8.23729326 L52.3397545,7.24463252 L52.7489955,6.66108755 L52.080029,6.87278118 L50.7212871,7.30409703 C50.6280325,6.98695302 50.3767847,6.8347239 50.0970211,6.79428804 L50.5540454,5.21015372 L50.7498029,4.52987983 L50.191817,4.94771706 L49.2269022,5.66921967 L48.2581338,4.94771706 L47.7032307,4.52987983 L47.8989882,5.21015372 L48.3560126,6.79428804 C48.0824145,6.83393104 47.8250011,6.98695302 47.7294345,7.30409703 L46.3706926,6.87278118 L45.7040381,6.66108755 L46.1140499,7.24463252 L46.8153857,8.23729326 L46.1140499,9.23471116 L45.7040381,9.8150847 L46.3706926,9.60497679 L47.8874277,9.12450362 C47.8419565,9.27673274 47.8989882,9.46384771 48.1772105,9.46384771 L48.4122736,9.46384771 L47.8989882,11.1764253 L47.8404151,11.3698832 C47.2631617,11.472955 46.6319594,11.6695843 46.1471899,12.0200284 C44.6728432,9.08168918 45.0874791,6.10767126 46.325992,5.11897482 C46.3044125,5.74374851 46.8323411,6.58973015 47.0835889,6.76812365 C46.9194301,6.1227356 47.2022765,4.97150286 46.8770417,4.68369467 C46.6496855,4.48547967 46.3044125,4.38557931 45.9352478,4.39667935 C46.1841835,3.97408496 46.5317686,3.43573301 47.1136462,2.64683729 C47.9822237,2.22503576 48.2319301,1.187182 48.4477257,0.663894393 C47.5036197,1.01988854 46.812303,1.52097607 46.6597046,2.33524331 C46.325992,2.79193068 45.9560566,3.32631833 45.5445035,3.95981348 C45.5676245,3.19153212 45.1545299,2.9243383 44.6127287,2.88152386 C43.0235479,3.22641796 43.1422355,4.40540081 41.7780987,5.21966804 C42.7098735,5.55504783 44.1688062,3.45000449 44.6689897,3.68548391 C44.7460596,4.9746743 44.4624424,5.99032798 44.4624424,6.69200909 C44.2242965,6.42322955 44.1017554,6.23690744 43.8990616,6.2020216 C43.706387,6.16713576 43.1738341,6.21312164 42.8069815,6.62540885 C42.7052493,7.27793265 42.731453,8.50924425 42.1364736,9.97682814 C43.0243186,9.14115368 43.4451201,7.50469061 43.5869286,7.02818174 C43.8127434,7.34849719 44.0601377,8.05572832 44.1163987,8.66305909 C44.2235258,9.83807764 44.9248617,11.7924776 45.5221532,12.735981 C45.3579944,13.064225 45.307899,13.4313192 45.3664721,13.8364707 C44.9032821,14.191672 44.8501039,14.6872095 45.01118,15.0202107 C45.1830458,15.375412 45.6392994,15.6204057 46.1741644,15.3991978 L46.3437181,15.3294261 C46.9063282,15.0899824 47.9560199,14.6412236 49.2284436,14.6412236 C50.5000965,14.6412236 51.5513296,15.0907752 52.1154811,15.3294261 L52.2842641,15.3991978 C52.8191291,15.6204057 53.2730706,15.375412 53.4457072,15.0202107 C53.6083246,14.6880024 53.5551464,14.191672 53.090415,13.8364707 C53.1528416,13.4011905 53.0857909,13.0047605 52.8923455,12.656695 L52.9085301,12.6749308 C53.9975275,11.0844536 54.0684318,8.03987112 54.9686079,7.17248226 C55.0441364,8.23887898 55.5967274,9.12212504 56.1392993,9.24343262 C55.7023131,8.50924425 55.7023131,7.0487961 55.7362239,6.37882939 L55.7331411,6.37962225 Z" id="Shape" fill-rule="nonzero"></path>
                <path d="M42.2444677,31.1794907 L41.3438713,31.189005 C41.2081082,32.3854308 41.2733989,33.4764061 41.4879253,34.4690669 C42.0454867,33.7665929 42.6040844,33.0617404 42.577139,32.5630314 C42.5501937,32.055601 42.3957761,31.5933636 42.2444677,31.1786978" id="Shape" fill-rule="nonzero"></path>
                <path d="M44.3761242,33.250441 C44.6081045,33.9101006 44.8894096,34.9527115 45.1206192,35.6868999 C44.9202375,35.6995856 44.72448,35.71465 44.5464486,35.7431929 C44.4462578,35.4807563 44.1117745,34.615746 43.7695843,33.7792787 C43.4474322,32.9951401 44.2135067,32.7929608 44.3761242,33.2512339 L44.3761242,33.250441 Z M45.7841908,32.5479671 C45.837369,32.1610514 46.9040161,32.0873154 46.7036344,32.9380542 C46.5024821,33.8038573 46.2489222,34.8068253 46.0562475,35.6710427 L45.7841908,35.6702498 L45.5113634,35.6710427 C45.3163767,34.8060324 45.0643582,33.8030645 44.8632058,32.9380542 C44.6643655,32.0873154 45.7279298,32.1610514 45.7834201,32.5479671 L45.7841908,32.5479671 Z M47.797256,33.7792787 C47.4527536,34.615746 47.1213532,35.4807563 47.0196209,35.7431929 C46.8408188,35.71465 46.6450613,35.6995856 46.446221,35.6868999 C46.6782014,34.9527115 46.9556529,33.9101006 47.190716,33.250441 C47.3541042,32.7929608 48.1163253,32.9951401 47.7964853,33.7784858 L47.797256,33.7792787 Z M44.3822898,36.2236661 C44.611958,36.1372444 45.5144462,36.0936371 45.7841908,36.0936371 C46.0531647,36.0936371 46.9517994,36.1372444 47.1830091,36.2236661 C47.2076714,36.3481451 47.2099835,36.5217815 47.1914867,36.6494319 C46.8439016,36.7525037 46.236591,36.8064182 45.7841908,36.8064182 C45.3287078,36.8064182 44.7229386,36.7532966 44.3761242,36.6494319 C44.3553153,36.5217815 44.356086,36.3481451 44.3822898,36.2236661 Z M46.8978505,38.9439688 C46.5941952,39.0121548 46.108655,39.0454549 45.7841908,39.0454549 C45.4597266,39.0454549 44.972645,39.0121548 44.668219,38.9439688 L44.7869066,38.4325741 C44.5587798,38.4111669 44.322946,38.3207808 44.1379783,38.2533877 C44.2327742,37.9172151 44.3799777,37.5794567 44.5025188,37.1164265 C44.9156133,37.2107768 45.3171474,37.2480412 45.7841908,37.2480412 C46.2489222,37.2480412 46.6504562,37.2107768 47.0620094,37.1164265 C47.1853212,37.5794567 47.3332953,37.9172151 47.4304034,38.2533877 C47.2454357,38.319988 47.0072897,38.4111669 46.7799336,38.4325741 L46.8978505,38.9439688 Z M42.2898426,31.1771121 C42.401594,31.5893993 42.5094918,32.0452938 42.52953,32.5511385 C42.5518802,33.1386478 42.1272252,33.8593575 41.6779078,34.6244675 L41.5253095,34.8869041 C42.8154592,41.4256207 48.9633232,43.6051929 48.9633232,43.6051929 L48.9633232,31.1897979 C48.9633232,31.1897979 44.3352771,31.1723549 42.2890719,31.1771121 L42.2898426,31.1771121 Z" id="Shape" fill-rule="nonzero"></path>
                <path d="M55.7100201,32.4028737 L55.689982,32.0920726 L55.9920959,32.0889011 C56.3974834,32.0865225 56.6048014,31.6853354 56.708075,31.2167551 C55.1327668,31.2040693 49.4812328,31.2262694 49.4812328,31.2262694 L49.4812328,37.2218769 C49.9521297,36.8635041 50.4029885,36.5661816 50.9979679,36.3727238 L50.9979679,35.0597476 L51.5852404,35.0597476 C51.6183804,33.6088138 51.9551758,32.5630314 52.609499,31.8700718 L52.7983202,31.6670996 L52.9902242,31.8700718 C53.6460888,32.5630314 53.9821135,33.6096066 54.0144829,35.0597476 L54.625647,35.0597476 L54.625647,36.4615241 C55.2707218,36.7366465 55.7046252,37.1560695 56.0375671,37.6048283 C56.5716613,36.4900671 56.9608642,35.1929481 57.1057556,33.698407 L57.0194373,33.7063356 C56.4090439,33.7063356 55.7655104,33.2599554 55.7100201,32.4020808" id="Shape" fill-rule="nonzero"></path>
                <path d="M57.2447305,31.2270623 L57.1118907,31.2199265 C56.9550539,31.9065433 56.6156694,32.3798807 55.9951787,32.383845 C56.0440295,33.0664975 56.6010999,33.4145631 57.1350305,33.4145631 L57.2593001,33.3971201 C57.313293,32.7152605 57.3192923,31.9945508 57.2447305,31.2262694" id="Shape" fill-rule="nonzero"></path>
                <path d="M54.1994506,38.9923333 L53.6869359,38.3873811 L52.8137342,39.1889626 L53.1728798,39.6107641 C53.1728798,39.6107641 53.5389617,39.4323706 53.8641966,39.8200791 C53.6198851,40.0412871 53.1944594,40.4226527 52.9478358,40.6398964 C52.6233716,40.2545664 52.8453328,39.9072937 52.8453328,39.9072937 L52.4931235,39.4862851 L51.4241643,40.4686386 L51.0773499,40.0563514 L52.1732835,39.1104694 L51.7794565,38.6458535 L51.4210815,38.9693403 C51.1097192,38.5959033 50.8661784,38.1051229 51.0912225,37.4890707 C51.7139471,37.3431844 52.1524747,37.6619142 52.4653783,38.0305941 L52.1085448,38.354081 L52.504684,38.824247 L53.4017773,38.0520013 L52.8892627,37.4454634 C53.3555354,37.3875846 53.7547574,37.5580495 53.9867377,37.8276219 C54.2102403,38.09323 54.3181382,38.5277173 54.1986799,38.9931261 L54.1994506,38.9923333 Z M52.7983202,36.677182 C51.0835155,36.677182 50.4214852,37.1647909 49.4804621,37.9084936 L49.4804621,43.6400787 C49.4804621,43.6400787 53.5466687,42.2026235 55.7647397,38.1598303 C55.2514544,37.3709345 54.5069594,36.677182 52.7975495,36.677182 L52.7983202,36.677182 Z" id="Shape" fill-rule="nonzero"></path>
                <path d="M42.7299116,26.3105373 C43.5853873,25.8118284 44.028539,25.4423556 44.4832513,24.709753 C44.148768,24.5424595 43.7480047,24.2300726 43.4520564,23.803514 C45.0790014,24.2744728 45.9021077,24.5186737 47.8180648,23.8185783 C47.5036197,24.3268016 47.0404298,24.6312598 46.6496855,24.8873536 C47.0843596,25.6223348 47.5151802,26.4667307 47.6677786,27.1382832 C47.0943787,27.0915044 46.4446796,27.2350121 45.9784069,27.6726708 C45.2608864,27.7067638 44.3553153,27.9398647 43.8551318,26.26693 C43.5969477,26.4017162 43.3364516,26.5801097 43.3364516,26.5801097 C43.6300878,27.6726708 44.1688062,28.4163735 45.5999938,28.2601801 C45.6778344,28.6074528 45.7387196,28.8088392 45.9128975,29.1006117 C45.3287078,29.4534344 43.8543611,30.3469877 42.7299116,29.3194411 L42.7299116,26.3105373 Z M48.1109304,28.7755391 C47.9598734,28.9967471 47.0396591,29.2877267 46.812303,29.1410476 C46.4292657,28.9000181 46.236591,28.3830734 46.325992,28.1618655 C46.4354313,27.8732644 47.4512122,27.5838705 47.774135,27.6916995 C48.0993699,27.8042856 48.2404078,28.5844599 48.1101597,28.7755391 L48.1109304,28.7755391 Z M50.8507645,27.5164774 L50.8507645,27.2040906 L50.1363267,27.1921977 C50.3074218,26.4120234 51.7817686,25.4225341 52.4445695,25.1902261 C52.4091173,24.3442445 53.4919491,24.063572 54.3597559,24.0389934 C55.4395049,24.0104504 55.689982,25.1989476 55.689982,25.5700061 C55.689982,26.0607864 55.5674409,27.1446261 54.9693786,27.4823844 C54.1038839,27.9699933 53.3640131,27.2968552 53.3640131,26.6831815 C53.3640131,26.0140077 53.8156426,25.6223348 54.5963604,25.711928 C55.3770783,25.7983498 55.3169638,25.3503838 54.7273792,25.1973619 C54.4391379,25.1244187 53.2013957,25.0586114 52.7890718,26.0044934 C52.5540087,26.0148005 52.2981367,25.9149002 52.1493919,25.7658425 C51.9890865,25.9799147 51.7386094,26.1218366 51.3941071,26.2241156 C51.6915968,26.8544393 52.305073,26.7466103 52.6773205,26.4469092 L52.6603651,26.7141031 C52.6603651,28.2601801 54.2634186,28.6502672 55.2483716,28.0714794 C55.0849834,28.572567 55.1612826,29.206855 55.2291041,29.6349994 L51.3494065,29.6349994 C51.4156866,29.2076478 51.9320548,28.7200389 52.3651875,28.4068592 L52.0214559,27.8478929 C51.5983422,28.0381793 51.2037445,28.2118156 50.7490322,28.3347089 C49.6739074,28.6225171 49.7371047,27.8352071 50.8515351,27.5164774 L50.8507645,27.5164774 Z M41.5592202,28.1039867 C41.9923529,28.4679094 42.153429,28.7382747 42.0185567,29.9687934 C42.0000599,30.1234011 42.0794419,30.4120022 42.1680722,30.724389 L56.7836035,30.724389 C56.7997882,30.5610599 56.8074952,30.3993164 56.8098073,30.2605659 C56.8221384,29.5858421 56.6995973,29.0506615 56.490738,28.8286607 C56.4213751,28.7549248 56.3450759,28.7208318 56.2063501,28.7208318 L56.1878534,28.7208318 L55.6044344,28.7882249 L55.915026,28.2744516 C56.2202227,27.7701926 56.6564382,27.479213 57.1196282,27.44512 L57.1196282,22.982111 L41.3565264,22.982111 L41.3565264,27.9636505 L41.5152904,28.0667223 L41.5599909,28.1039867 L41.5592202,28.1039867 Z" id="Shape" fill-rule="nonzero"></path>
                <path d="M41.3557557,28.3125089 L41.3557557,30.7235962 L42.2340869,30.7235962 C42.0813904,30.407245 41.9613214,30.1273654 41.9978641,29.9339076 C42.2262564,28.713696 41.9208633,28.5915956 41.3557557,28.3125089" id="Shape" fill-rule="nonzero"></path>
                <path d="M57.4621238,30.7235962 L57.4621238,27.7329282 C57.0051302,27.7662283 56.5230386,27.983472 56.1570254,28.4282664 L56.2710124,28.4235093 C57.1515355,28.4235093 57.4506205,29.331334 57.4297055,30.2653231 C57.427614,30.4246879 57.4150649,30.5761242 57.3993787,30.724389 L57.4621238,30.724389" id="Shape" fill-rule="nonzero"></path>
                <path d="M45.1892114,26.8672639 C45.4597266,27.0316952 45.7934392,26.83871 46.141795,26.8968025 C46.0739735,26.7038173 45.9992158,26.5640015 46.0416042,26.2853545 C46.1279225,25.744799 45.7934392,25.6079371 45.6331339,25.6217217 C45.2377654,25.6532295 45.0142628,25.7615375 44.6011682,25.6217217 C44.8847854,25.9801228 44.8123397,26.634894 45.1892114,26.8672639" id="Shape" fill-rule="nonzero"></path>
                <path d="M41.7580605,29.9093289 C41.8952449,28.662953 41.7041116,28.5630526 41.3557557,28.2689016 C41.0528711,28.0143935 40.5526876,27.9335218 40.0555869,27.5791134 C39.6987534,27.326191 39.5993333,26.9575111 39.1469331,26.4667307 C39.2363342,25.4153984 39.9661859,24.1341366 40.5041336,23.843157 C40.5835156,23.8011354 40.5573118,22.1741866 40.5573118,22.1741866 C40.5573118,22.1741866 40.9133747,22.1591223 40.8794639,22.1361293 C40.3977772,21.8348425 39.817441,22.0623934 39.3966395,22.5698238 C38.9873985,22.9059964 38.0556237,23.5505916 37.4159437,23.7757639 C36.542742,23.0201683 35.1863122,22.3557516 34.1975057,21.3305836 C34.1975057,21.3305836 35.5100057,21.3186907 36.1157749,21.0633897 C36.2768509,20.9626965 36.6968817,20.2729083 36.5257866,19.6148345 C36.3215515,19.5395128 36.0286859,19.3817336 35.7404446,19.2160259 C35.3805283,19.0051251 35.0337138,18.7783672 34.8718671,18.6523024 C34.2992379,18.207508 34.0703404,17.8205923 33.0830753,17.5652914 C33.147814,17.0990897 33.2441513,17.2077115 33.6803668,16.9064247 C34.2321871,16.5210947 34.5404666,16.0612359 34.7631986,15.6053414 C34.9350644,15.2477615 34.7408483,14.5135731 34.2946137,15.4451837 C34.1412447,15.7742206 33.7096534,16.2158436 33.2233424,16.3490441 C33.2611067,16.0612359 33.2772914,15.8955282 33.2772914,15.7361633 C34.7177273,14.6887952 34.5782309,13.7651133 34.4672502,12.8977244 C34.4055943,12.3950512 33.917742,12.1833576 33.9393216,12.7098166 C33.9531942,13.053125 34.2522253,14.0346857 33.2649602,14.6118878 C33.2433806,14.1781934 33.1277758,13.9768069 33.0383747,13.755599 C33.917742,12.5655161 33.549348,11.4150762 33.1794126,10.8917886 C32.9443495,10.5572017 32.3640133,10.4398584 32.6260509,10.9710746 C32.843388,11.4031833 33.188661,12.5813733 32.5405033,13.0658108 C32.3139179,12.775624 32.0541924,12.662245 31.9663328,12.2737436 C32.0310715,10.9805889 31.9516895,10.1893146 31.7921548,9.73104153 C31.6403272,9.29972569 31.2411052,9.031739 31.2757867,9.66681987 C31.3089267,10.385151 31.3705826,11.29139 31.3058439,11.3468902 C31.2411052,11.4023904 30.3101011,10.5128015 29.931688,10.2456077 C29.5471094,9.9736567 29.0954799,10.0767285 29.5409438,10.6111162 C29.9324587,11.082075 31.1231883,11.982764 30.9698193,12.2729507 C30.875794,12.4553085 30.0234012,11.7345988 29.5848736,11.5799911 C29.1401804,11.4237977 29.0014546,11.6640343 29.3775556,11.982764 C29.9833249,12.4941587 30.3879417,12.8287456 31.3806017,13.1752254 C32.3778859,13.5185338 32.8757573,14.939339 32.5620829,16.961132 C32.5497517,17.0546895 32.3778859,17.0412109 32.2800072,17.0071179 C32.2337652,16.2372508 32.1035171,15.307226 31.9231736,14.9020746 C31.6857984,14.3661012 31.2202964,14.3550011 31.3929329,15.0804681 C31.5301173,15.6544987 31.6087285,16.2713438 31.5108498,17.0420037 C30.6885142,16.8977032 30.3748398,16.6733238 30.0303375,16.4624231 C29.9948853,16.0683716 30.1914135,15.4277407 30.2253243,14.8465744 C30.2546108,14.2788866 29.9324587,13.9205139 29.747491,14.6340879 C29.5702303,15.3191189 29.4553962,15.6489487 29.3451863,16.139729 C29.1078111,16.060443 28.8596461,15.9478569 28.7440413,15.8162422 L28.6839268,14.4216014 C28.6238122,13.7912777 28.3910612,13.8103063 28.209947,14.3661012 C28.1236288,14.6214021 28.0581194,14.9583676 28.0349984,15.3714477 C27.744445,15.1906756 27.5502289,14.8457815 27.5155474,14.5674876 C27.5579359,13.9094138 27.6681458,13.2109041 27.744445,12.7748311 C27.7991646,12.4616514 27.5926173,11.8265706 27.3521593,12.5948519 C27.1810642,13.1466825 27.1355929,13.6089199 27.0284658,13.9982141 C26.8196065,13.9839427 26.544467,12.7280524 26.4018877,11.9272638 C26.3379197,11.5609625 26.0427421,11.1470895 25.9887932,11.9573925 C25.9302201,12.8533243 26.1097929,13.7540133 26.3263592,14.1544076 C25.9032456,14.1100074 25.5009409,13.3282474 25.2080754,12.8731458 C24.9498913,12.4656157 24.8258088,12.8905887 24.8520125,13.0515393 C25.1032603,14.6443951 26.3386904,15.2120828 26.9005298,15.3238761 C27.7667952,16.604345 29.4214855,17.1514184 30.819533,17.7761921 C29.0014546,17.7531992 28.5251628,18.5095876 27.6904961,18.0172216 C27.7282603,18.7236598 28.0673677,19.0503182 28.3964561,19.2144402 C28.6315192,19.3270263 28.8604168,19.3595336 28.9675439,19.3793551 C29.1178302,20.2364367 29.9108792,20.1912437 30.5821578,20.2364367 C30.4087506,21.9085785 30.6045081,24.1151079 32.0318422,25.7618782 C31.9902244,26.6086527 31.9331927,27.7202424 31.9462946,28.4576022 C30.7756032,29.5723634 29.7359306,31.9120933 29.3259188,33.2036623 C29.01841,34.1701587 28.5552201,34.9209971 27.841553,35.2769912 C28.4280548,35.9104864 29.2927788,35.5980996 29.7914209,35.2421054 C29.8245609,35.8097932 29.9540383,36.2117732 30.0403566,36.5479458 C29.7058733,37.056962 29.4792879,37.4129561 29.5085744,38.0393155 C29.130932,38.1487302 28.8712066,38.3857954 28.6662007,38.6514035 C28.537494,38.8163184 28.6862388,39.5861854 28.8303595,39.9088795 C29.2958616,40.9832048 28.9328625,43.4038064 28.849627,44.1213447 C29.0461552,44.1316519 29.4029887,44.1443377 29.4785172,43.842258 C29.5925806,43.9540513 29.8769684,44.1681235 30.0087579,44.6311537 C29.9756179,44.8325402 29.8661786,45.57545 30.2368848,45.6690075 C30.5389987,45.7467078 31.8491866,45.7031005 32.0225938,45.4715853 C31.891575,45.3138062 31.6626775,44.9570192 31.5247224,44.6002322 C31.5247224,44.2347237 31.492353,43.7883435 31.3937036,43.5996428 C31.2426466,43.3284847 30.8634628,42.7076753 30.6237755,42.460303 C30.5729094,42.0139228 30.5274382,40.0428728 30.7309027,39.2833129 C31.0684687,39.0430763 33.3743994,37.2821342 33.8530033,35.5980996 C34.2753462,35.7455715 34.1458689,36.9190043 34.1458689,38.4436741 C34.1458689,38.8527899 34.629097,39.0589335 34.9173383,39.0969908 C35.5400629,39.1746911 36.43022,39.786779 37.4244214,41.3035202 C37.6201789,41.0886552 37.8691146,40.8896473 37.8691146,40.8896473 C37.998592,41.0680408 38.1504196,41.5033209 38.2375086,41.7832005 C38.3454064,41.9925156 39.1477038,42.1162017 39.7650335,41.9251225 C39.9692687,41.8513865 40.0879563,41.8165007 40.2205165,41.5921213 C39.4397986,40.1911376 38.9696724,39.2611128 37.967764,38.4849029 C37.5014913,38.1257373 36.8841615,37.9473438 36.3631692,37.6056211 C36.7107543,36.9348615 37.6648794,33.7959287 37.087626,32.6462817 C36.8941806,32.2688803 36.1689531,31.8898933 35.2849616,32.055601 C36.0240617,31.143812 37.5238415,29.336884 37.7203697,28.7826749 C37.8922355,28.9951613 38.7785391,28.8484822 39.4359451,29.1117118 C39.6771738,29.212405 40.3499939,30.1083368 40.3815925,30.4159665 C40.4409363,30.9717614 40.4694522,31.630628 40.0933512,33.148955 C40.3561595,33.1053477 40.3160831,33.0926619 40.5765793,32.9832472 C40.6212798,33.3891915 40.5010508,33.7047498 40.1550071,34.3168378 C40.2405546,34.8631183 40.4787006,35.7098928 40.730719,35.8660862 C41.0644316,34.8432968 42.3006324,33.3883987 42.2667217,32.5392456 C42.2220211,31.3864271 41.7002581,30.4080379 41.7596019,29.9061575" id="Shape" fill-rule="nonzero"></path>
            </g>
        </g>
    </g>
</svg>